SplineFontDB: 3.0
FontName: InconsolataLGC
FullName: Inconsolata LGC
FamilyName: Inconsolata LGC
Weight: Medium
Copyright: Created by Raph Levien using his own tools and FontForge. Copyright 2006 Raph Levien. Released under the SIL Open Font License, http://scripts.sil.org/OFL.\n\nHellenisation of the Roman font, by Dimosthenis Kaponis, using FontForge. Hellenic glyphs Copyright 2010-2012 Dimosthenis Kaponis. Released under the SIL Open Font License, http://scripts.sil.org/OFL.\n\nCyrillic glyphs added by MihailJP, using FontForge. Cyrillic glyphs Copyright 2012 MihailJP. Released under the SIL Open Font License, http://scripts.sil.org/OFL.
UComments: "2005-8-26: Created." 
Version: 1.1.0
ItalicAngle: 0
UnderlinePosition: -100
UnderlineWidth: 50
Ascent: 820
Descent: 180
LayerCount: 2
Layer: 0 0 "Back"  1
Layer: 1 0 "Fore"  0
XUID: [1021 77 1780377399 11264577]
FSType: 8
OS2Version: 0
OS2_WeightWidthSlopeOnly: 0
OS2_UseTypoMetrics: 0
CreationTime: 1161020814
ModificationTime: 1329341276
PfmFamily: 17
TTFWeight: 500
TTFWidth: 5
LineGap: 200
VLineGap: 0
Panose: 2 11 6 9 3 0 3 0 0 0
OS2TypoAscent: 0
OS2TypoAOffset: 1
OS2TypoDescent: 0
OS2TypoDOffset: 1
OS2TypoLinegap: 0
OS2WinAscent: 0
OS2WinAOffset: 1
OS2WinDescent: 0
OS2WinDOffset: 1
HheadAscent: 0
HheadAOffset: 1
HheadDescent: 0
HheadDOffset: 1
OS2Vendor: 'PfEd'
MarkAttachClasses: 1
DEI: 91125
LangName: 1033 
Encoding: UnicodeBmp
UnicodeInterp: none
NameList: Adobe Glyph List
DisplaySize: -72
AntiAlias: 1
FitToEm: 1
WinInfo: 0 21 12
BeginPrivate: 6
BlueValues 31 [-14 0 529 542 722 730 749 777]
OtherBlues 11 [-201 -193]
StemSnapH 16 [20 63 68 72 79]
StdHW 4 [68]
StemSnapV 7 [77 84]
StdVW 4 [84]
EndPrivate
Grid
-1000 308 m 0
 2000 308 l 0
-1000 1054 m 0
 2000 1054 l 0
-1000 723 m 0
 2000 723 l 0
  Named: "capitals" 
-1000 750 m 0
 2000 750 l 0
-1000 541 m 0
 2000 541 l 0
156 1320 m 0
 156 -680 l 0
265 1320 m 0
 265 -680 l 0
168 917 m 25
 406.5 917 l 25
EndSplineSet

StartChar: a
Encoding: 97 97 0
Width: 600
Flags: MW
TeX: 97 0
LayerCount: 2
Fore
SplineSet
115 467 m 0
 164 518 233 541 304 541 c 0
 386 541 453 511 488 453 c 0
 512 412 514 371 514 328 c 0
 514 0 l 0
 435 0 l 0
 435 58 l 0
 377 11 310 -13 245 -13 c 0
 134 -13 67 59 67 137 c 0
 67 196 105 257 188 288 c 0
 250.963 311.148 326.786 312.005 399.592 312.005 c 0
 405.417 312.005 411.222 312 417 312 c 0
 434 312 l 0
 434 331 l 0
 434 359 434 393 417 422 c 0
 402 447 371 473 308 473 c 0
 259 473 199 459 156 414 c 0
 115 467 l 0
437 248 m 0
 418 248 l 0
 398.588 248 377.183 248.374 355.5 248.374 c 0
 315.747 248.374 275.059 247.118 244 240 c 0
 178 224 151 181 151 142 c 0
 151 95 192 51 262 51 c 0
 331 51 382 93 401 113 c 0
 437 151 437 186 437 213 c 0
 437 248 l 0
EndSplineSet
Validated: 1
EndChar

StartChar: c
Encoding: 99 99 1
Width: 600
Flags: MW
TeX: 99 0
LayerCount: 2
Fore
SplineSet
539 442 m 4
 480 373 l 4
 470.825 379.924 477.126 390.809 472.703 399.753 c 4
 469.634 405.96 426.164 469.074 335.78 469.074 c 4
 238.504 469.074 160.969 393.768 160.969 273.126 c 4
 160.969 149.42 239.6 62.9789 342.756 62.9789 c 4
 395.811 62.9789 447.209 86.4429 483 127 c 4
 531 71 l 4
 480.516 16.5812 409.687 -13.0011 335.781 -13.0011 c 4
 186.048 -13.0011 74.9996 104.892 74.9996 264.509 c 4
 74.9996 423.38 185.476 540.028 341.051 540.028 c 4
 426.18 540.028 497.315 503.103 539 442 c 4
EndSplineSet
Validated: 1
EndChar

StartChar: m
Encoding: 109 109 2
Width: 600
Flags: MW
TeX: 109 0
LayerCount: 2
Fore
SplineSet
54 0 m 0
 54 529 l 0
 131 529 l 0
 130 477 l 0
 154 514 195 542 238 542 c 0
 286 542 324 509 332 465 c 0
 353 512 400 542 451 542 c 0
 480 542 513 531 533 500 c 0
 553.571 470 555.041 432.653 555.041 394.886 c 0
 555.041 388.592 555 382.286 555 376 c 0
 555 -1 l 0
 476 -1 l 0
 476 375 l 0
 476 384 476.422 393.844 476.422 403.846 c 0
 476.422 420.516 475.25 437.625 469 452 c 0
 460 471 444 481 427 481 c 0
 395 481 374 448 365 433 c 0
 346 401 343 378 343 350 c 0
 343 0 l 0
 265 0 l 0
 265 368 l 0
 265 376 265.264 384.397 265.264 392.95 c 0
 265.264 407.917 264.455 423.364 260 438 c 0
 251 467 230 478 211 478 c 0
 190 478 166 464 147 429 c 0
 132 401 130 378 130 353 c 0
 130 0 l 0
 54 0 l 0
EndSplineSet
Validated: 1
EndChar

StartChar: s
Encoding: 115 115 3
Width: 600
Flags: MW
TeX: 115 0
LayerCount: 2
Fore
SplineSet
511 459 m 0
 462 386 l 0
 459.954 386.487 455.921 388.387 455.967 395.318 c 0
 455.994 399.389 456.754 402.17 453.49 406.383 c 0
 433.342 432.386 382.005 479.074 306.539 479.074 c 0
 246.687 479.074 195 449.386 195 406.786 c 0
 195 389 204.202 363.327 247.446 342.429 c 0
 296.926 318.517 382.175 306.563 441.996 272.983 c 0
 504.635 237.822 519.699 189.926 519.699 153.285 c 0
 519.699 73.3785 444.137 -12.0003 299.462 -12.0003 c 0
 219.049 -12.0003 138.142 14.2177 76 72 c 0
 124 155 l 0
 129.709 152.331 129.203 145.694 129.13 144.104 c 0
 128.917 139.47 128.401 136.208 132.349 131.72 c 0
 149.099 112.681 207.222 58 297.964 58 c 0
 373.592 58 434.068 92.1676 434.068 141.757 c 0
 434.068 160.887 424.919 188.765 381.245 209.208 c 0
 342.194 227.486 283.74 241.548 238.968 257.732 c 0
 210.234 268.119 109.997 301.799 109.997 394.231 c 0
 109.997 473.3 190.548 542.004 313.496 542.004 c 0
 391.8 542.004 462.083 512.905 511 459 c 0
EndSplineSet
Validated: 1
EndChar

StartChar: I
Encoding: 73 73 4
Width: 600
Flags: MW
TeX: 73 0
LayerCount: 2
Fore
SplineSet
112 722 m 0
 470 722 l 0
 470 654 l 0
 327 654 l 0
 327 66 l 0
 477 66 l 0
 477 -1 l 0
 104 -1 l 0
 104 67 l 0
 246 67 l 0
 246 654 l 0
 112 654 l 0
 112 722 l 0
EndSplineSet
Validated: 1
EndChar

StartChar: o
Encoding: 111 111 5
Width: 600
Flags: MW
TeX: 111 0
LayerCount: 2
Fore
SplineSet
543.113 262.304 m 4
 543.113 86.8043 430.326 -14 304.969 -14 c 4
 171.548 -14 56.8677 99.5323 56.8677 260.578 c 4
 56.8677 424.14 172.53 541.005 307.44 541.005 c 4
 427.751 541.005 543.113 445.084 543.113 262.304 c 4
301.758 470.103 m 4
 220.795 470.103 144.985 397.575 144.985 267.806 c 4
 144.985 137.225 221.249 57.9927 305.614 57.9927 c 4
 382.884 57.9927 459.167 125.6 459.167 258.844 c 4
 459.167 404.202 378.128 470.103 301.758 470.103 c 4
EndSplineSet
Validated: 1
EndChar

StartChar: n
Encoding: 110 110 6
Width: 600
Flags: MW
TeX: 110 0
LayerCount: 2
Fore
SplineSet
89 0 m 4
 89 529 l 4
 174 529 l 4
 174 436 l 4
 212.871 495.002 278.12 542.003 349.957 542.003 c 4
 410.281 542.003 464.544 508.129 490.899 448.568 c 4
 509.729 406.014 510 362.334 510 321 c 4
 510 0 l 4
 428 0 l 4
 428 319 l 4
 428 356.393 427.762 401.823 399.11 436.061 c 4
 380.097 458.781 353.908 469.58 327.341 469.58 c 4
 271.362 469.58 220.49 422.787 200.308 395.893 c 4
 178.287 366.55 174 340.651 174 305 c 4
 174 0 l 4
 89 0 l 4
EndSplineSet
Validated: 1
EndChar

StartChar: l
Encoding: 108 108 7
Width: 600
Flags: MW
TeX: 108 0
LayerCount: 2
Fore
SplineSet
108 770 m 0
 342 770 l 0
 342 67 l 0
 498 67 l 0
 498 0 l 0
 101 0 l 0
 101 67 l 0
 258 67 l 0
 258 703 l 0
 108 703 l 0
 108 770 l 0
EndSplineSet
Validated: 1
EndChar

StartChar: t
Encoding: 116 116 8
Width: 600
Flags: MW
TeX: 116 0
LayerCount: 2
Fore
SplineSet
228 671 m 0
 319 686 l 0
 320 684 320 682 320 680 c 0
 320 671 314 665 312 655 c 0
 307 625 299 530 299 530 c 0
 472 530 l 0
 472 461 l 0
 298 461 l 0
 291 392 288 323 288 254 c 0
 288 177 291 157 291 152 c 0
 300 89 341 67 380 67 c 0
 413 67 454 82 499 115 c 0
 525 49 l 0
 480 16 419 -10 356 -10 c 0
 302 -10 260 11 235 46 c 0
 204 90 204 143 204 190 c 0
 204 280 208 370 215 461 c 0
 91 461 l 0
 92 529 l 0
 218 529 l 0
 228 671 l 0
EndSplineSet
Validated: 1
EndChar

StartChar: e
Encoding: 101 101 9
Width: 600
Flags: MW
TeX: 101 0
LayerCount: 2
Fore
SplineSet
310 542 m 0
 396 542 495 496 519 354 c 0
 522.847 334.126 524.638 313.019 524.638 290.942 c 0
 524.638 278.583 524.077 265.92 523 253 c 1
 147 253 l 1
 154 94 256 55 327 55 c 0
 380 55 429 76 464 115 c 1
 510 70 l 1
 465 16 396 -12 320 -12 c 0
 177 -12 66 82 66 259 c 0
 66 452 183 542 310 542 c 0
150 317 m 1
 441 317 l 1
 441.721 323.201 442.073 329.345 442.073 335.408 c 0
 442.073 413.426 383.799 478 304 478 c 0
 247 478 166 442 150 317 c 1
EndSplineSet
Validated: 1
EndChar

StartChar: b
Encoding: 98 98 11
Width: 600
Flags: MW
TeX: 98 0
LayerCount: 2
Fore
SplineSet
79 771 m 0
 177 771 l 0
 179 764 173 760 171 758 c 0
 165 754 164 751 164 745 c 0
 164 448 l 0
 198 506 260 542 327 542 c 0
 431 542 540 456 540 271 c 0
 540 79 427 -13 319 -13 c 0
 255 -13 197 18 162 70 c 0
 133 0 l 0
 79 0 l 0
 79 771 l 0
298 470 m 0
 246 470 198 441 178 393 c 0
 166 364 164 330 164 282 c 0
 164 236 164 205 167 177 c 0
 181 76 261 62 297 62 c 0
 349 62 453 92 453 254 c 0
 453 441 348 470 298 470 c 0
EndSplineSet
Validated: 1
EndChar

StartChar: H
Encoding: 72 72 12
Width: 600
Flags: MW
TeX: 72 0
LayerCount: 2
Fore
SplineSet
73 722 m 0
 163 722 l 0
 163.822 720.356 164.252 718.529 164.252 716.663 c 0
 164.252 707.549 157 706.38 157 694 c 0
 157 413 l 0
 440 413 l 0
 440 722 l 0
 528 722 l 0
 528.872 720.545 529.336 718.865 529.336 717.137 c 0
 529.336 708.364 521 708.006 521 696 c 0
 521 -1 l 0
 439 -1 l 0
 439 344 l 0
 157 344 l 0
 157 0 l 0
 73 0 l 0
 73 722 l 0
EndSplineSet
Validated: 1
EndChar

StartChar: g
Encoding: 103 103 13
Width: 600
Flags: MW
TeX: 103 0
LayerCount: 2
Fore
SplineSet
156 364 m 0
 156 300 208 248 272 248 c 0
 337 248 389 300 389 364 c 0
 389 428 337 481 273 481 c 0
 208 481 156 428 156 364 c 0
278 547 m 0
 326 547 370 529 403 496 c 1
 440.059 526.732 486.922 543.575 534.728 543.575 c 0
 539.812 543.575 544.906 543.385 550 543 c 1
 560 475 l 1
 550 477 540 478 529 478 c 0
 497 478 465 469 437 452 c 1
 455 426 464 394 464 362 c 0
 464 265 378 181 273 181 c 0
 250 181 228 185 206 193 c 1
 201 189 168 162 168 134 c 0
 168 117 180 105 200 99 c 0
 212 96 236 92 276 92 c 0
 300.615 92 325.904 93.3465 350.968 93.3465 c 0
 386.998 93.3465 422.564 90.5641 455 77 c 0
 511 55 537 8 537 -38 c 0
 537 -109 473 -199 294 -199 c 0
 108 -199 54 -132 54 -74 c 0
 54 -32 84 7 141 43 c 1
 107 61 98 92 98 114 c 0
 98 148 120 184 158 216 c 1
 109 248 80 301 80 359 c 0
 80 463 172 547 278 547 c 0
197 28 m 1
 167 12 131 -16 131 -54 c 0
 131 -73 140 -102 183 -119 c 0
 223 -135 268 -136 292 -136 c 0
 328 -136 373 -134 411 -113 c 0
 448 -93 461 -66 461 -43 c 0
 461 -19 447 11 398 19 c 0
 382.5 21 364.25 21.25 345 21.25 c 0
 338.583 21.25 332.056 21.2222 325.481 21.2222 c 0
 312.333 21.2222 299 21.3333 286 22 c 0
 245 23 217 26 197 28 c 1
EndSplineSet
Validated: 1
EndChar

StartChar: h
Encoding: 104 104 14
Width: 600
Flags: MW
TeX: 104 0
LayerCount: 2
Fore
SplineSet
91 0 m 4
 91 770 l 4
 187 770 l 4
 187.379 768.886 187.572 767.712 187.572 766.526 c 4
 187.572 760.484 182.866 756.916 180.206 754.11 c 4
 176.27 749.956 176 746.931 176 743 c 4
 176 436 l 4
 214.871 495.002 280.12 542.003 351.957 542.003 c 4
 412.281 542.003 466.544 508.129 492.899 448.568 c 4
 511.729 406.014 512 362.334 512 321 c 4
 512 0 l 4
 430 0 l 4
 430 319 l 4
 430 356.393 429.762 401.823 401.11 436.061 c 4
 382.097 458.781 355.908 469.58 329.341 469.58 c 4
 273.362 469.58 222.49 422.787 202.308 395.893 c 4
 180.287 366.55 176 340.651 176 305 c 4
 176 0 l 4
 91 0 l 4
EndSplineSet
Validated: 1
EndChar

StartChar: u
Encoding: 117 117 15
Width: 600
Flags: MW
TeX: 117 0
LayerCount: 2
Fore
SplineSet
83 529 m 4
 167 529 l 4
 167 234 l 4
 167 198 167 157 186 120 c 4
 207 78 245 55 287 55 c 4
 338 55 385 89 409 133 c 4
 427 166 430 197 430 238 c 4
 430 529 l 4
 514 529 l 4
 514 48 l 4
 514 32 515 16 520 0 c 4
 432 0 l 4
 430 14 430 27 430 41 c 4
 431 81 l 4
 397 23 334 -13 268 -13 c 4
 199 -13 134 25 103 95 c 4
 82 141 82 188 82 234 c 4
 83 529 l 4
EndSplineSet
Validated: 1
EndChar

StartChar: r
Encoding: 114 114 16
Width: 600
Flags: MW
TeX: 114 0
LayerCount: 2
Fore
SplineSet
125 529 m 0
 212 529 l 0
 209 427 l 0
 243.671 502.684 322.168 541.803 399.502 541.803 c 0
 458.959 541.803 507.697 518.114 541 484 c 0
 502 404 l 0
 493.106 412.505 489.308 421.668 482.352 430.554 c 0
 467.489 449.542 439.485 470.205 394.944 470.205 c 0
 357.514 470.205 294.325 457.033 246.222 380.981 c 0
 210.237 324.088 209 288.944 209 257 c 0
 209 -1 l 0
 125 -1 l 0
 125 529 l 0
EndSplineSet
Validated: 1
EndChar

StartChar: i
Encoding: 105 105 17
Width: 600
Flags: MW
TeX: 105 0
LayerCount: 2
Fore
SplineSet
133 530 m 4
 345 530 l 4
 345 67 l 4
 469 67 l 4
 469 0 l 4
 126 0 l 4
 126 67 l 4
 261 67 l 4
 261 462 l 4
 133 462 l 4
 133 530 l 4
305.003 760 m 4
 338.171 760 365.019 733.28 365.019 700.493 c 4
 365.019 667.727 338.182 640.992 304.99 640.992 c 4
 271.818 640.992 244.981 667.716 244.981 700.486 c 4
 244.981 733.264 271.822 760 305.003 760 c 4
EndSplineSet
Validated: 1
EndChar

StartChar: f
Encoding: 102 102 18
Width: 600
Flags: MW
TeX: 102 0
LayerCount: 2
Fore
SplineSet
408 777 m 0
 475 777 532 751 570 705 c 1
 532 628 l 1
 528 628 523 630 523 638 c 0
 522 643 523 646 519 651 c 0
 497 685 455 712 404 712 c 0
 360 712 319 692 297 653 c 0
 278.818 621.182 277.992 584.405 277.992 549.431 c 0
 277.992 545.934 278 542.455 278 539 c 2
 278 498 l 1
 451 498 l 1
 451 432 l 1
 278 432 l 1
 278 0 l 1
 198 0 l 1
 198 432 l 1
 83 432 l 1
 83 498 l 1
 198 498 l 1
 198 550 l 2
 198 597 200 641 227 685 c 0
 264 745 334 777 408 777 c 0
EndSplineSet
Validated: 1
EndChar

StartChar: v
Encoding: 118 118 19
Width: 600
Flags: MW
TeX: 118 0
LayerCount: 2
Fore
SplineSet
56 530 m 4
 156 530 l 4
 158 520.53 152.295 514.363 152.295 507.316 c 4
 152.295 504.529 153.032 502.45 154 500 c 4
 307 113 l 4
 392 310 l 4
 421.967 379.454 449.99 452.863 464 530 c 4
 539 530 l 4
 521.386 449.313 491.663 372.127 460 298 c 4
 331 -4 l 4
 266 -4 l 4
 56 530 l 4
EndSplineSet
Validated: 1
EndChar

StartChar: d
Encoding: 100 100 20
Width: 600
Flags: MW
TeX: 100 0
LayerCount: 2
Fore
SplineSet
440 452 m 0
 440 771 l 0
 529 771 l 0
 529.429 763.115 525.033 757.358 522.644 753.665 c 0
 518.515 747.282 517.991 744.04 518 738 c 0
 519 49 l 0
 519.023 32.976 519.825 16.2095 524 0 c 0
 441 0 l 0
 436.758 12.8474 436 26.4226 436 39 c 0
 436 85 l 0
 402.754 25.5822 340.198 -11.7426 272.502 -11.7426 c 0
 170.172 -11.7426 61.9989 73.6686 61.9989 269.088 c 0
 61.9989 471.408 183.85 543.089 284.756 543.089 c 0
 357.905 543.089 414.551 506.411 440 452 c 0
288.638 475.041 m 0
 227.729 475.041 142.873 433.439 142.873 282.731 c 0
 142.873 108.363 231.935 61.8091 291.87 61.8091 c 0
 347.081 61.8091 401.871 98.7178 422.26 162.214 c 0
 430.843 188.943 433.29 218.613 433.29 258.526 c 0
 433.29 317.62 430.953 347.168 424.391 371.787 c 0
 403.443 450.383 335.053 475.041 288.638 475.041 c 0
EndSplineSet
Validated: 1
EndChar

StartChar: p
Encoding: 112 112 21
Width: 600
Flags: MW
TeX: 112 0
LayerCount: 2
Fore
SplineSet
79 529 m 0
 164 529 l 0
 164 448 l 0
 200 506 263 541 331 541 c 0
 435 541 546 458 546 271 c 0
 546 77 432 -14 324 -14 c 0
 260 -14 200 18 165 70 c 0
 165 -193 l 0
 80 -193 l 0
 79 529 l 0
301 470 m 0
 247 470 198 441 178 393 c 0
 166 366 164 334 164 289 c 0
 164 212 164 169 179 133 c 0
 200 85 250 60 300 60 c 0
 350 60 459 87 459 253 c 0
 459 446 347 470 301 470 c 0
EndSplineSet
Validated: 1
EndChar

StartChar: q
Encoding: 113 113 22
Width: 600
Flags: MW
TeX: 113 0
LayerCount: 2
Fore
SplineSet
443 452 m 0
 443 529 l 0
 522 529 l 0
 522 -193 l 0
 439 -193 l 0
 439 85 l 0
 406 26 344 -12 277 -12 c 0
 160 -12 59 98 59 270 c 0
 59 450 173 543 289 543 c 0
 406 543 443 452 443 452 c 0
292 475 m 0
 221 475 143 420 143 282 c 0
 143 132 220 62 295 62 c 0
 350 62 405 99 425 162 c 0
 434 189 436 219 436 258 c 0
 436 322 434 356 423 385 c 0
 400 450 339 475 292 475 c 0
EndSplineSet
Validated: 1
EndChar

StartChar: y
Encoding: 121 121 23
Width: 600
Flags: MW
TeX: 121 0
LayerCount: 2
Fore
SplineSet
63 529 m 4
 167 529 l 4
 167.651 518.579 161.833 512.755 161.833 504.226 c 4
 161.833 500.853 162.694 498.287 164 495 c 4
 319 105 l 4
 420 389 l 4
 436.209 434.578 451.255 481.532 460 530 c 4
 547 530 l 4
 531.434 478.243 513.035 427.412 494 377 c 4
 329 -60 l 4
 317.685 -89.9672 306.505 -117.887 283.381 -143.905 c 4
 248.107 -183.593 198.508 -201.18 150.696 -201.18 c 4
 107.172 -201.18 66.5488 -186.251 36 -157 c 4
 79 -82 l 4
 85.8372 -87.3566 85.2476 -95.0835 88.2407 -100.819 c 4
 91.1874 -106.465 111.21 -132.772 150.447 -132.772 c 4
 175.241 -132.772 202.436 -121.95 224.474 -98.4823 c 4
 241.247 -80.621 251.822 -58.0558 261 -37 c 4
 278 2 l 4
 63 529 l 4
EndSplineSet
Validated: 1
EndChar

StartChar: period
Encoding: 46 46 24
Width: 600
Flags: MW
TeX: 112 0
LayerCount: 2
Fore
SplineSet
355.002 53.4929 m 0
 355.002 17.0088 324.552 -13.046 286.441 -13.046 c 0
 248.415 -13.046 217.952 16.9803 217.952 53.509 c 0
 217.952 89.9628 248.383 120.002 286.462 120.002 c 0
 324.556 120.002 355.002 89.961 355.002 53.4929 c 0
EndSplineSet
Validated: 1
EndChar

StartChar: comma
Encoding: 44 44 25
Width: 600
Flags: MW
TeX: 99 0
LayerCount: 2
Fore
SplineSet
364.152 22.8349 m 0
 364.152 -37.4943 321.706 -113.057 241 -195 c 0
 201 -160 l 0
 228.481 -134.726 247.951 -106.529 259.27 -87.9335 c 0
 264.928 -78.6381 276.427 -58.8335 276.427 -39.6582 c 0
 276.427 -15.8026 259.351 -5.13308 249.284 1.56253 c 0
 239.047 8.37111 216.973 21.6939 216.973 52.8528 c 0
 216.973 87.8494 245.536 118.93 283.672 118.93 c 0
 324.887 118.93 364.152 82.133 364.152 22.8349 c 0
EndSplineSet
Validated: 1
EndChar

StartChar: plus
Encoding: 43 43 28
Width: 600
Flags: MW
TeX: 112 0
LayerCount: 2
Fore
SplineSet
267 606 m 5
 340 606 l 5
 340 408 l 5
 538 408 l 5
 538 337 l 5
 340 337 l 5
 340 120 l 5
 267 120 l 5
 267 337 l 5
 62 337 l 5
 62 408 l 5
 267 408 l 5
 267 606 l 5
EndSplineSet
Validated: 1
EndChar

StartChar: minus
Encoding: 8722 8722 29
Width: 600
Flags: MW
TeX: 104 0
LayerCount: 2
Fore
SplineSet
62 398 m 29
 538 398 l 29
 538 327 l 29
 62 327 l 29
 62 398 l 29
EndSplineSet
Validated: 1
EndChar

StartChar: underscore
Encoding: 95 95 31
Width: 600
Flags: MW
TeX: 117 0
LayerCount: 2
Fore
SplineSet
50 -22 m 29
 550 -22 l 29
 550 -93 l 29
 50 -93 l 29
 50 -22 l 29
EndSplineSet
Validated: 1
EndChar

StartChar: less
Encoding: 60 60 32
Width: 600
Flags: MW
TeX: 108 0
LayerCount: 2
Fore
SplineSet
541 575 m 25
 139 370 l 25
 544 142 l 25
 544 55 l 25
 50 343 l 25
 50 399 l 25
 541 657 l 25
 541 575 l 25
EndSplineSet
Validated: 1
EndChar

StartChar: greater
Encoding: 62 62 33
Width: 600
Flags: MW
TeX: 103 0
LayerCount: 2
Fore
SplineSet
59 575 m 25
 59 657 l 25
 550 399 l 25
 550 343 l 25
 56 55 l 25
 56 142 l 25
 461 370 l 25
 59 575 l 25
EndSplineSet
Validated: 1
EndChar

StartChar: quotesingle
Encoding: 39 39 34
Width: 600
Flags: MW
TeX: 113 0
LayerCount: 2
Fore
SplineSet
372 706 m 2
 372 595.999 l 1
 374 491.999 l 1
 276 491.999 l 1
 272 541.999 276 541.999 274 591.999 c 1
 280.25 611.499 272 625.257 272 647.999 c 2
 272 705.999 l 2
 272 751.781 305.162 772.143 327.505 772.143 c 0
 350.267 772.143 372 758.433 372 706 c 2
EndSplineSet
Validated: 1
EndChar

StartChar: grave
Encoding: 96 96 35
Width: 600
Flags: MW
TeX: 103 0
LayerCount: 2
Fore
SplineSet
293.09 353.122 m 2
 229.977 463.064 l 1
 170.353 563.322 l 1
 168 744 l 1
 196.592 701.4 196.688 694.026 225.328 647.74 c 1
 236.667 616.728 244.362 618.187 257.411 595.457 c 2
 290.689 537.487 l 2
 316.957 491.729 329.436 410.24 329.972 369.047 c 0
 330.519 327.082 323.174 300.717 293.09 353.122 c 2
EndSplineSet
EndChar

StartChar: slash
Encoding: 47 47 36
Width: 600
Flags: MW
TeX: 115 0
LayerCount: 2
Fore
SplineSet
84 -15 m 25
 447 770 l 25
 516 735 l 25
 152 -49 l 25
 84 -15 l 25
EndSplineSet
Validated: 1
EndChar

StartChar: backslash
Encoding: 92 92 37
Width: 600
Flags: MW
TeX: 98 0
LayerCount: 2
Fore
SplineSet
516 -15 m 25
 448 -49 l 25
 84 735 l 25
 153 770 l 25
 516 -15 l 25
EndSplineSet
Validated: 1
EndChar

StartChar: micro
Encoding: 181 181 38
Width: 600
Flags: MW
TeX: 117 0
LayerCount: 2
Fore
SplineSet
38 -193 m 0
 39 -59 61 87 61 234 c 0
 61 529 l 0
 137 529 l 0
 137 215 l 0
 137 180 138 147 154 115 c 0
 175 73 212 50 249 50 c 0
 291 50 332 79 352 126 c 0
 365 156 367 186 367 222 c 0
 367 529 l 0
 441 529 l 0
 441 134 l 0
 441 116 441 95 451 78 c 0
 459 62 473 55 487 55 c 0
 527 55 551 111 551 111 c 0
 582 52 l 0
 560 18 523 -12 480 -12 c 0
 431 -12 391 28 385 78 c 0
 358 23 303 -13 243 -13 c 0
 187 -13 135 19 111 70 c 0
 111 -18 111 -106 110 -193 c 0
 38 -193 l 0
EndSplineSet
Validated: 1
EndChar

StartChar: braceleft
Encoding: 123 123 39
Width: 600
Flags: MW
TeX: 98 0
LayerCount: 2
Fore
SplineSet
71 329 m 0
 94 329 l 0
 115 329 146 329 172 355 c 0
 199 384 202 425 202 453 c 0
 202 481 199 508 199 536 c 0
 199 580 205 645 256 692 c 0
 303 735 366 738 422 738 c 0
 431 738 439 738 448 738 c 0
 483 738 l 0
 483 672 l 0
 443 672 l 0
 426 672 411 673 397 673 c 0
 369 673 347 670 326 657 c 0
 281 629 279 573 279 549 c 0
 279 522 283 496 283 468 c 0
 283 441 280 406 264 375 c 0
 247 340 218 312 182 297 c 0
 226 282 280 238 280 117 c 0
 280 81 276 50 276 20 c 0
 276 -20 282 -71 324 -100 c 0
 350 -118 380 -119 417 -119 c 0
 424 -119 431 -119 439 -119 c 0
 482 -119 l 0
 482 -184 l 0
 440 -184 l 0
 428 -184 416 -184 404 -184 c 0
 348 -184 300 -181 259 -149 c 0
 198 -102 194 -23 194 19 c 0
 194 64 199 99 199 135 c 0
 199 185 191 219 168 241 c 0
 144 264 115 264 95 264 c 0
 71 264 l 0
 71 329 l 0
EndSplineSet
Validated: 1
EndChar

StartChar: braceright
Encoding: 125 125 40
Width: 600
Flags: MW
TeX: 98 0
LayerCount: 2
Fore
SplineSet
529 329 m 0
 529 264 l 0
 505 264 l 0
 485 264 456 264 432 241 c 0
 409 219 401 185 401 135 c 0
 401 99 406 64 406 19 c 0
 406 -23 402 -102 341 -149 c 0
 300 -181 252 -184 196 -184 c 0
 184 -184 172 -184 160 -184 c 0
 118 -184 l 0
 118 -119 l 0
 161 -119 l 0
 169 -119 176 -119 183 -119 c 0
 220 -119 250 -118 276 -100 c 0
 318 -71 324 -20 324 20 c 0
 324 50 320 81 320 117 c 0
 320 238 374 282 418 297 c 0
 382 312 353 340 336 375 c 0
 320 406 317 441 317 468 c 0
 317 496 321 522 321 549 c 0
 321 573 319 629 274 657 c 0
 253 670 231 673 203 673 c 0
 189 673 174 672 157 672 c 0
 117 672 l 0
 117 738 l 0
 152 738 l 0
 161 738 169 738 178 738 c 0
 234 738 297 735 344 692 c 0
 395 645 401 580 401 536 c 0
 401 508 398 481 398 453 c 0
 398 425 401 384 428 355 c 0
 454 329 485 329 506 329 c 0
 529 329 l 0
EndSplineSet
Validated: 1
EndChar

StartChar: asterisk
Encoding: 42 42 41
Width: 600
Flags: MW
TeX: 97 0
LayerCount: 2
Fore
SplineSet
257 601 m 0
 351 601 l 0
 349.036 587.217 345.49 584.406 344 570 c 0
 326 396 l 0
 510 480 l 0
 541 409 l 0
 342 349 l 0
 488 174 l 0
 425 124 l 0
 300 316 l 0
 170 123 l 0
 107 174 l 0
 258 348 l 0
 58 409 l 0
 88 484 l 0
 275 396 l 0
 257 601 l 0
EndSplineSet
Validated: 1
EndChar

StartChar: O
Encoding: 79 79 42
Width: 600
Flags: MW
TeX: 79 0
LayerCount: 2
Fore
SplineSet
556.008 359.504 m 0
 556.008 296.095 551.428 206.273 513.069 128.645 c 0
 465.538 32.4568 382.426 -11.0151 304.485 -11.0151 c 0
 193.976 -11.0151 43.9996 78.3988 43.9996 362.113 c 0
 43.9996 645.884 196.081 730 303.761 730 c 0
 382.353 730 464.443 686.67 511.792 593.902 c 0
 551.172 516.748 556.008 427.05 556.008 359.504 c 0
300.361 654.01 m 0
 224.496 654.01 123.971 587.911 123.971 372.659 c 0
 123.971 143.053 223.619 67.987 304.834 67.987 c 0
 353.415 67.987 409.355 95.4454 442.765 165.717 c 0
 472.355 227.951 475.085 301.614 475.085 348.897 c 0
 475.085 410.01 471.386 479.154 446.984 539.849 c 0
 413.335 623.543 351.591 654.01 300.361 654.01 c 0
EndSplineSet
Validated: 1
EndChar

StartChar: zero
Encoding: 48 48 43
Width: 600
Flags: MW
TeX: 122 0
LayerCount: 2
Fore
SplineSet
301.249 727 m 0
 412.345 727 531.007 595.219 531.007 348.788 c 0
 531.007 100.694 407.312 -13.0219 302.525 -13.0219 c 0
 188.358 -13.0219 67.9924 121.658 67.9924 355.222 c 0
 67.9924 586.285 186.665 727 301.249 727 c 0
414.067 561.958 m 1
 383.092 625.695 339.657 656 300.157 656 c 0
 228.597 656 143.795 554.031 143.795 369.311 c 0
 143.795 318.267 149.725 272.506 159.907 232.842 c 1
 414.067 561.958 l 1
440.863 484.525 m 1
 186.653 159.413 l 1
 218.03 96.0835 262.445 60.8848 305.327 60.8848 c 0
 369.033 60.8848 456.099 137.611 456.099 339.376 c 0
 456.099 395.528 450.46 443.805 440.863 484.525 c 1
EndSplineSet
Validated: 1
EndChar

StartChar: one
Encoding: 49 49 44
Width: 600
Flags: MW
TeX: 111 0
LayerCount: 2
Fore
SplineSet
357 723 m 0
 357 -1 l 0
 276 -1 l 0
 276 622 l 0
 131 579 l 0
 112 624 l 0
 301 723 l 0
 357 723 l 0
EndSplineSet
Validated: 1
EndChar

StartChar: two
Encoding: 50 50 45
Width: 600
Flags: MW
TeX: 116 0
LayerCount: 2
Fore
SplineSet
100 610 m 0
 142.552 682.72 220.175 727.008 302.107 727.008 c 0
 419.975 727.008 511.536 636.692 511.536 524.194 c 0
 511.536 420.356 437.434 346.096 384.502 296.506 c 0
 332.446 247.737 248.223 175.987 188 71 c 0
 491 71 l 0
 496.284 71 498.692 71.7409 503.392 75.7939 c 0
 505.8 77.8706 511.479 83.4955 519 81 c 0
 519 0 l 0
 95 0 l 0
 95 51 l 0
 155.807 170.93 222.305 245.442 304.763 319.728 c 0
 357.118 366.894 431.226 430.278 431.226 518.244 c 0
 431.226 595.847 369.481 655.449 292.555 655.449 c 0
 229.497 655.449 186.147 616.16 169.108 589.668 c 0
 162.928 580.06 165.889 572.819 159 563 c 0
 100 610 l 0
EndSplineSet
Validated: 1
EndChar

StartChar: N
Encoding: 78 78 46
Width: 600
Flags: MW
TeX: 78 0
LayerCount: 2
Fore
SplineSet
68 0 m 0
 68 722 l 0
 147 722 l 0
 450 187 l 0
 450 723 l 0
 536 723 l 0
 536.929 716.255 533.916 710.683 532.621 708.22 c 0
 529.844 702.938 528 700.058 528 692 c 0
 528 -1 l 0
 464 -1 l 0
 146 568 l 0
 146 0 l 0
 68 0 l 0
EndSplineSet
Validated: 1
EndChar

StartChar: four
Encoding: 52 52 47
Width: 600
Flags: MW
TeX: 102 0
LayerCount: 2
Fore
SplineSet
373 723 m 0
 441 723 l 0
 441 271 l 0
 534 271 l 0
 534 199 l 0
 441 199 l 0
 441 0 l 0
 357 0 l 0
 357 200 l 0
 66 200 l 0
 66 260 l 0
 373 723 l 0
358 594 m 0
 146 271 l 0
 358 271 l 0
 358 594 l 0
EndSplineSet
Validated: 1
EndChar

StartChar: eight
Encoding: 56 56 48
Width: 600
Flags: MW
TeX: 101 0
LayerCount: 2
Fore
SplineSet
309.222 731.061 m 0
 415.174 731.061 497.201 655.222 497.201 560.081 c 0
 497.201 490.519 451.989 422.756 382 386 c 0
 463.398 348.449 521.364 271.387 521.364 186.38 c 0
 521.364 76.38 425.926 -12.0638 299.122 -12.0638 c 0
 174.777 -12.0638 79.845 73.9895 79.845 181.557 c 0
 79.845 264.873 138.311 343.716 224 384 c 0
 158.829 417.286 113.953 482.052 113.953 553.066 c 0
 113.953 650.336 198.716 731.061 309.222 731.061 c 0
285 351 m 0
 216.282 322.472 162.993 260.535 162.993 192.304 c 0
 162.993 119.655 224.278 60.9956 302.825 60.9956 c 0
 380.01 60.9956 439.255 117.609 439.255 187.223 c 0
 439.255 257.778 377.894 321.691 285 351 c 0
303.003 663.016 m 0
 239.989 663.016 191.919 616.894 191.919 559.982 c 0
 191.919 464.568 319 415 319 415 c 0
 375.248 445.252 418 499.154 418 554.724 c 0
 418 615.015 367.541 663.016 303.003 663.016 c 0
EndSplineSet
Validated: 1
EndChar

StartChar: five
Encoding: 53 53 49
Width: 600
Flags: MW
TeX: 102 0
LayerCount: 2
Fore
SplineSet
133 722 m 0
 499 722 l 0
 499 649 l 0
 201 649 l 0
 190 441 l 0
 227.409 459.661 267.74 469.014 307.613 469.014 c 0
 428.503 469.014 526.046 382.829 526.046 228.267 c 0
 526.046 71.7703 422.799 -13.0166 297.988 -13.0166 c 0
 212.187 -13.0166 131.88 27.3246 84 98 c 0
 156 152 l 0
 165.915 144.928 159.968 133.516 164.636 124.688 c 0
 168.652 117.094 219.025 57.9865 296.99 57.9865 c 0
 374.5 57.9865 443.032 118.764 443.032 229.807 c 0
 443.032 344.87 371.274 402.108 295.262 402.108 c 0
 245.957 402.108 194.845 377.882 160 334 c 0
 108 355 l 0
 133 722 l 0
EndSplineSet
Validated: 1
EndChar

StartChar: S
Encoding: 83 83 50
Width: 600
Flags: MW
TeX: 83 0
LayerCount: 2
Fore
SplineSet
514 636 m 0
 463 567 l 0
 460.467 567.77 457.129 570.059 456.897 576.479 c 0
 456.744 580.739 457.326 583.155 454.259 587.627 c 0
 426.295 628.402 374.583 659.139 307.322 659.139 c 0
 224.667 659.139 176.928 608.659 176.928 553.304 c 0
 176.928 523.788 190.278 480.959 250.701 445.621 c 0
 316.767 406.982 418.491 386.478 481.296 327.335 c 0
 526.491 284.776 537.39 234.352 537.39 196.567 c 0
 537.39 105.698 472.479 -12.0688 296.743 -12.0688 c 0
 207.646 -12.0688 126.78 19.1667 70 81 c 0
 118 164 l 0
 123.54 161.188 123.285 154.812 123.259 152.899 c 0
 123.193 148.118 122.894 145.188 126.519 140.598 c 0
 158.801 99.712 219.842 60.9499 299.1 60.9499 c 0
 403.921 60.9499 456.763 129.108 456.763 191.929 c 0
 456.763 224.218 443.541 261.931 396.186 291.612 c 0
 341.618 325.813 237.401 350.797 170.523 400.177 c 0
 110.323 444.627 93.8001 498.906 93.8001 541.004 c 0
 93.8001 639.749 183.363 726.008 313.761 726.008 c 0
 392.466 726.008 465.102 694.099 514 636 c 0
EndSplineSet
Validated: 1
EndChar

StartChar: M
Encoding: 77 77 51
Width: 600
Flags: MW
TeX: 77 0
LayerCount: 2
Fore
SplineSet
57 722 m 0
 121 722 l 0
 300 369 l 0
 482 723 l 0
 543 723 l 0
 543 -1 l 0
 466 -1 l 0
 466 545 l 0
 310 254 l 0
 279 254 l 0
 133 541 l 0
 133 -1 l 0
 57 -1 l 0
 57 722 l 0
EndSplineSet
Validated: 1
EndChar

StartChar: L
Encoding: 76 76 52
Width: 600
Flags: MW
TeX: 76 0
LayerCount: 2
Fore
SplineSet
87 722 m 0
 181 722 l 0
 182.252 713.763 178.671 707.037 176.957 703.776 c 0
 173.543 697.278 171 693.469 171 683 c 0
 171 69 l 0
 519 69 l 0
 519 -1 l 0
 87 -1 l 0
 87 722 l 0
EndSplineSet
Validated: 1
EndChar

StartChar: ampersand
Encoding: 38 38 53
Width: 600
Flags: MW
TeX: 78 0
LayerCount: 2
Fore
SplineSet
275.219 729.113 m 0
 362.09 729.113 430.049 664.093 430.049 574.842 c 0
 430.049 499.041 380.587 423.321 305 382 c 0
 435 201 l 0
 462.526 232.964 478.373 266.737 487.03 294.093 c 0
 487.898 296.839 488.581 299.921 488.581 303.138 c 0
 488.581 307.706 486.98 312.21 486.98 316.938 c 0
 486.98 322.596 489.256 326.511 492 329 c 0
 567 277 l 0
 540.906 230.061 511.512 184.947 479 142 c 0
 560 37 l 0
 492 -14 l 0
 428 88 l 0
 382.006 30.9903 310.65 -12.0313 232.619 -12.0313 c 0
 128.337 -12.0313 51.7317 66.2734 51.7317 169.432 c 0
 51.7317 258.731 108.958 348.313 198 397 c 0
 155.129 448.798 115.988 513.456 115.988 577.085 c 0
 115.988 663.563 187.113 729.113 275.219 729.113 c 0
195.898 575.613 m 0
 195.898 545.141 208.5 503.946 266 432 c 0
 319.757 461.715 354.165 516.513 354.165 569.305 c 0
 354.165 624.184 316.438 660.403 273.735 660.403 c 0
 232.647 660.403 195.898 626.428 195.898 575.613 c 0
238 343 m 0
 176.427 303.101 139.365 237.448 139.365 177.45 c 0
 139.365 110.152 186.019 62.8265 245.174 62.8265 c 0
 322.406 62.8265 386 143 386 143 c 0
 238 343 l 0
EndSplineSet
Validated: 1
EndChar

StartChar: F
Encoding: 70 70 54
Width: 600
Flags: MW
TeX: 78 0
LayerCount: 2
Fore
SplineSet
100 723 m 0
 516 723 l 0
 516 652 l 0
 182 652 l 0
 182 425 l 0
 452 425 l 0
 452 355 l 0
 182 355 l 0
 182 0 l 0
 100 0 l 0
 100 723 l 0
EndSplineSet
Validated: 1
EndChar

StartChar: w
Encoding: 119 119 55
Width: 600
Flags: MW
TeX: 119 0
LayerCount: 2
Fore
SplineSet
28 530 m 0
 113 530 l 0
 116 521 113 513 111 507 c 0
 108 498 108 494 110 486 c 0
 187 104 l 0
 278 480 l 0
 329 480 l 0
 441 105 l 0
 481.836 372.211 490.361 448.705 490.361 507.287 c 0
 490.361 514.694 490.225 521.816 490 529 c 0
 567 529 l 0
 544 351 515 175 479 -1 c 0
 401 -1 l 0
 303 342 l 0
 210 -1 l 0
 135 -1 l 0
 28 530 l 0
EndSplineSet
Validated: 1
EndChar

StartChar: quotedbl
Encoding: 34 34 58
Width: 600
Flags: MW
TeX: 113 0
LayerCount: 2
Fore
SplineSet
456 706 m 2
 456 596 l 1
 457.64 492 l 1
 377.28 492 l 1
 374 542 377.28 542 375.64 592 c 1
 380.765 611.5 374 625.258 374 648 c 2
 374 706 l 2
 374 751.782 401.192 772.143 419.514 772.143 c 0
 438.179 772.143 456 758.433 456 706 c 2
254 706 m 2
 254 596 l 1
 255.64 492 l 1
 175.28 492 l 1
 172 542 175.28 542 173.64 592 c 1
 178.765 611.5 172 625.258 172 648 c 2
 172 706 l 2
 172 751.782 199.192 772.143 217.514 772.143 c 0
 236.179 772.143 254 758.433 254 706 c 2
EndSplineSet
EndChar

StartChar: T
Encoding: 84 84 59
Width: 600
Flags: MW
TeX: 84 0
LayerCount: 2
Fore
SplineSet
46 723 m 0
 546 723 l 0
 546 650 l 0
 333 650 l 0
 333 -1 l 0
 251 -1 l 0
 251 650 l 0
 46 650 l 0
 46 723 l 0
EndSplineSet
Validated: 1
EndChar

StartChar: hyphen
Encoding: 45 45 60
Width: 600
Flags: MW
TeX: 104 0
LayerCount: 2
Fore
SplineSet
92 403 m 0
 509 403 l 0
 509 326 l 0
 92 326 l 0
 92 403 l 0
EndSplineSet
Validated: 1
EndChar

StartChar: exclam
Encoding: 33 33 61
Width: 600
Flags: MW
TeX: 101 0
LayerCount: 2
Fore
SplineSet
356.002 55.4912 m 0
 356.002 17.7 325.296 -13.0169 287.479 -13.0169 c 0
 249.672 -13.0169 218.954 17.6866 218.954 55.4935 c 0
 218.954 93.2861 249.66 124.002 287.478 124.002 c 0
 325.284 124.002 356.002 93.2972 356.002 55.4912 c 0
289.272 774.001 m 0
 311.02 774.001 335.403 759.407 344.346 724.32 c 0
 346.091 717.475 348.76 704.489 348.76 677.25 c 0
 348.76 632.978 340.895 589.116 338 545 c 0
 317 225 l 0
 259 225 l 0
 242 545 l 0
 237.955 621.137 230.565 649.274 230.565 686.67 c 0
 230.565 708.378 233.144 724.012 238.462 736.818 c 0
 248.803 761.721 269.202 774.001 289.272 774.001 c 0
EndSplineSet
Validated: 1
EndChar

StartChar: U
Encoding: 85 85 63
Width: 600
Flags: MW
TeX: 85 0
LayerCount: 2
Fore
SplineSet
68 722 m 0
 159 722 l 0
 159.791 720.163 160.2 718.172 160.2 716.15 c 0
 160.2 709.235 155.631 704.498 152.571 700.195 c 0
 148.296 694.182 148 690.266 148 685 c 0
 148 248 l 0
 148 212.142 148.701 177.155 165.336 141.578 c 0
 191.299 86.0528 245.805 55.9211 303.067 55.9211 c 0
 359.414 55.9211 413.783 85.3437 440.467 140.549 c 0
 458.225 177.288 459 213.693 459 251 c 0
 459 722 l 0
 536 722 l 0
 536 253 l 0
 536 200.192 534.408 150.173 507.085 99.8136 c 0
 466.018 24.1247 384.91 -13.0732 301.461 -13.0732 c 0
 216.265 -13.0732 136.155 24.9771 96.1412 99.2172 c 0
 69.4091 148.814 68 197.96 68 249 c 0
 68 722 l 0
EndSplineSet
Validated: 1
EndChar

StartChar: numbersign
Encoding: 35 35 64
Width: 600
Flags: MW
TeX: 110 0
LayerCount: 2
Fore
SplineSet
211 723 m 5
 281 726 l 5
 256.94 527.366 l 5
 384.587 528.891 l 5
 407 717 l 5
 479 720 l 5
 455.758 529.742 l 5
 561 531 l 5
 555 475 l 5
 448.941 473.939 l 5
 425.118 278.915 l 5
 540 281 l 5
 534 227 l 5
 418.548 225.134 l 5
 393 16 l 5
 323 12 l 5
 348.259 223.998 l 5
 219.943 221.924 l 5
 195 16 l 5
 127 13 l 5
 151.587 220.82 l 5
 39 219 l 5
 44 272 l 5
 157.887 274.066 l 5
 181.217 471.262 l 5
 55 470 l 5
 59 525 l 5
 187.757 526.539 l 5
 211 723 l 5
250.228 471.952 m 5
 226.409 275.31 l 5
 354.65 277.637 l 5
 377.955 473.23 l 5
 250.228 471.952 l 5
EndSplineSet
Validated: 1
EndChar

StartChar: j
Encoding: 106 106 65
Width: 600
Flags: MW
TeX: 106 0
LayerCount: 2
Fore
SplineSet
156 530 m 4
 437 530 l 4
 437 37 l 4
 437 -8.68478 435.772 -52.1052 413.163 -96.3812 c 4
 377.277 -166.657 303.238 -202.181 227.699 -202.181 c 4
 162.017 -202.181 103.902 -175.027 66 -128 c 4
 120 -56 l 4
 127.204 -61.9473 125.358 -69.4816 130.11 -77.2483 c 4
 134.378 -84.2222 169.009 -130.016 233.016 -130.016 c 4
 277.791 -130.016 319.506 -106.298 339.459 -63.2398 c 4
 352.497 -35.1019 353 -7.27543 353 21 c 4
 353 461 l 4
 156 461 l 4
 156 530 l 4
396.003 760 m 4
 429.171 760 456.019 733.28 456.019 700.493 c 4
 456.019 667.727 429.182 640.992 395.99 640.992 c 4
 362.818 640.992 335.981 667.716 335.981 700.486 c 4
 335.981 733.264 362.822 760 396.003 760 c 4
EndSplineSet
Validated: 1
EndChar

StartChar: x
Encoding: 120 120 66
Width: 600
Flags: MW
TeX: 120 0
LayerCount: 2
Fore
SplineSet
430 530 m 5
 515 530 l 5
 343.447 272.196 l 5
 538 0 l 5
 443 0 l 5
 297.06 205.835 l 5
 159 0 l 5
 65 0 l 5
 250.856 269.049 l 5
 68 530 l 5
 159 530 l 5
 297.737 333.918 l 5
 430 530 l 5
EndSplineSet
Validated: 1
EndChar

StartChar: G
Encoding: 71 71 67
Width: 600
Flags: MW
TeX: 71 0
LayerCount: 2
Fore
SplineSet
331.256 729.021 m 0
 420.211 729.021 499.721 682.82 541 608 c 0
 484 550 l 0
 474.934 555.815 472.124 564.988 468.568 572.778 c 0
 446.485 621.163 395.191 658.068 330.753 658.068 c 0
 269.931 658.068 205.563 624.733 168.312 554.634 c 0
 140.066 501.479 131.993 436.71 131.993 369.475 c 0
 131.993 293.213 140.467 191.911 200.744 123.216 c 0
 240.013 78.4622 291.335 59.9971 338.046 59.9971 c 0
 381.069 59.9971 427.485 75.1275 468 104 c 0
 468 276 l 0
 337 276 l 0
 337 346 l 0
 543 346 l 0
 543 64 l 0
 474.935 13.8821 397.763 -11.0487 330.884 -11.0487 c 0
 204.891 -11.0487 51.8871 79.1096 51.8871 352.371 c 0
 51.8871 669.165 235.235 729.021 331.256 729.021 c 0
EndSplineSet
Validated: 1
EndChar

StartChar: k
Encoding: 107 107 68
Width: 600
Flags: MW
TeX: 107 0
LayerCount: 2
Fore
SplineSet
87 770 m 0
 182 770 l 0
 183.286 762.176 178.153 756.852 175.466 753.359 c 0
 171.419 748.094 171 745.015 171 740 c 0
 171 286 l 0
 436 532 l 0
 456.53 526.949 477.704 526 498 526 c 0
 528 526 l 0
 305 316 l 0
 565 -1 l 0
 562.299 -0.982364 559.597 -0.973546 556.896 -0.973546 c 0
 501.401 -0.973546 457 -5 457 -5 c 0
 241 265 l 0
 171 200 l 0
 171 -1 l 0
 87 -1 l 0
 87 770 l 0
EndSplineSet
Validated: 1
EndChar

StartChar: z
Encoding: 122 122 69
Width: 600
Flags: MW
TeX: 122 0
LayerCount: 2
Fore
SplineSet
92 530 m 0
 504 530 l 0
 504 473 l 0
 181 71 l 0
 496 71 l 0
 510.4 71 515.89 78.29 527.05 78.29 c 0
 528.29 78.29 529.6 78.2 531 78 c 0
 531 -1 l 0
 68 -1 l 0
 68 56 l 0
 396 457 l 0
 92 457 l 0
 92 530 l 0
EndSplineSet
Validated: 1
EndChar

StartChar: dollar
Encoding: 36 36 70
Width: 600
Flags: MW
TeX: 100 0
LayerCount: 2
Fore
SplineSet
282 754 m 1
 357 754 l 1
 357.544 752.762 357.825 751.416 357.825 750.046 c 0
 357.825 741.462 350 741.128 350 730 c 2
 350 685.53 l 1
 418.468 678.631 479.448 647.798 522 597 c 1
 472 534 l 1
 469.529 534.647 466.405 536.859 465.998 542.031 c 0
 465.734 545.385 466.586 548.59 464.873 552.132 c 0
 464.366 553.181 463.571 554.432 459.966 558.804 c 0
 435.884 588.015 400.197 609.606 350 617.169 c 1
 350 394.007 l 1
 376.209 385.213 402.685 376.233 426.693 365.906 c 0
 451.098 355.408 542.789 316.114 542.789 210.306 c 0
 542.789 127.201 481.207 35.8962 350 18.7898 c 1
 350 -54 l 1
 282 -54 l 1
 282 16.6512 l 1
 202.131 21.6382 130.573 53.0648 79 109 c 1
 129 178 l 1
 134.731 175.387 134.178 168.719 134.1 167.269 c 0
 133.829 162.202 133.224 159.078 137.667 154.35 c 0
 170.199 119.732 221.081 90.2105 282 83.4419 c 1
 282 338.141 l 1
 260.848 345.221 239.279 353.278 218.422 363.137 c 0
 121.008 409.184 101.838 474.448 101.838 516.644 c 0
 101.838 600.059 175.207 670.816 282 684.586 c 1
 282 754 l 1
350 316.849 m 1
 350 85.8432 l 1
 424.317 100.222 467.128 152.561 467.128 204.903 c 0
 467.128 228.695 458.246 267.247 409.599 293.705 c 0
 393.686 302.36 373.118 309.563 350 316.849 c 1
282 418.096 m 1
 282 618.618 l 1
 209.129 610.103 178.407 566.678 178.407 526.615 c 0
 178.407 501.336 190.349 466.609 241.42 437.196 c 0
 253.404 430.294 267.16 424.024 282 418.096 c 1
EndSplineSet
Validated: 1
EndChar

StartChar: A
Encoding: 65 65 71
Width: 600
Flags: MW
TeX: 65 0
LayerCount: 2
Fore
SplineSet
27 -1 m 0
 282 735 l 0
 291 735 l 0
 570 0 l 0
 486 0 l 0
 406 211 l 0
 177 211 l 0
 107 -1 l 0
 27 -1 l 0
388 274 m 0
 286 549 l 0
 193 274 l 0
 388 274 l 0
EndSplineSet
Validated: 1
EndChar

StartChar: C
Encoding: 67 67 72
Width: 600
Flags: MW
TeX: 67 0
LayerCount: 2
Fore
SplineSet
331.618 728 m 0
 427.542 728 514.176 672.042 553 585 c 0
 476 547 l 0
 470.67 550.736 470.716 557.019 470.716 558.375 c 0
 470.716 561.257 471.207 564.142 471.207 567.016 c 0
 471.207 572.403 469.516 575.396 467.216 579.368 c 0
 438.075 629.699 385.397 663.168 328.882 663.168 c 0
 226.816 663.168 135.987 555.779 135.987 363.969 c 0
 135.987 168.839 229.418 57.9939 335.655 57.9939 c 0
 392.317 57.9939 449.702 90.8843 483 146 c 0
 543 107 l 0
 497.694 32.979 417.217 -12.0016 331.109 -12.0016 c 0
 212.178 -12.0016 56.9666 77.8506 56.9666 356.807 c 0
 56.9666 645.838 219.327 728 331.618 728 c 0
EndSplineSet
Validated: 1
EndChar

StartChar: B
Encoding: 66 66 73
Width: 600
Flags: MW
TeX: 66 0
LayerCount: 2
Fore
SplineSet
66 722 m 0
 271 722 l 0
 315.399 722 360.704 721.5 405.879 701.856 c 0
 473.724 672.354 511 610.49 511 545.61 c 0
 511 476.391 468.788 413.433 404 387 c 0
 484.894 359.735 539.123 283.98 539.123 199.903 c 0
 539.123 125.489 496.411 54.7898 418.712 21.7722 c 0
 368.818 0.569996 319.11 0 270 0 c 0
 66 0 l 0
 66 722 l 0
146 653 m 0
 146 423 l 0
 259 423 l 0
 291.145 423 325.727 423.132 358.963 437.515 c 0
 404.424 457.189 429.169 496.927 429.169 538.138 c 0
 429.169 579.684 403.799 620.586 355.923 639.925 c 0
 323.833 652.887 290.834 653 260 653 c 0
 146 653 l 0
146 355 m 0
 146 71 l 0
 284 71 l 0
 315.204 71 345.804 71.5467 376.985 85.5968 c 0
 426.877 108.078 454.347 156.379 454.347 208.01 c 0
 454.347 260.227 425.928 311.754 372.336 337.19 c 0
 336.297 354.296 300.473 355 264 355 c 0
 146 355 l 0
EndSplineSet
Validated: 1
EndChar

StartChar: bracketleft
Encoding: 91 91 74
Width: 600
Flags: MW
TeX: 98 0
LayerCount: 2
Fore
SplineSet
162 776 m 0
 493 776 l 0
 493 707 l 0
 236 707 l 0
 236 -37 l 0
 494 -37 l 0
 494 -103 l 0
 162 -103 l 0
 162 776 l 0
EndSplineSet
Validated: 1
EndChar

StartChar: bracketright
Encoding: 93 93 75
Width: 600
Flags: MW
TeX: 98 0
LayerCount: 2
Fore
SplineSet
438 776 m 0
 438 -103 l 0
 106 -103 l 0
 106 -37 l 0
 364 -37 l 0
 364 707 l 0
 107 707 l 0
 107 776 l 0
 438 776 l 0
EndSplineSet
Validated: 1
EndChar

StartChar: parenleft
Encoding: 40 40 76
Width: 600
Flags: MW
TeX: 112 0
LayerCount: 2
Fore
SplineSet
464 772 m 4
 499 701 l 4
 495.074 698.763 491.329 698.611 489.669 698.611 c 4
 485.073 698.611 481.395 699.932 477.323 699.932 c 4
 472.717 699.932 469.928 698.14 466.835 696.315 c 4
 331.453 616.467 251.273 468.859 251.273 303.345 c 4
 251.273 123.314 344.63 -46.9685 503 -139 c 4
 465 -200 l 4
 281.456 -103.658 170.68 88.9922 170.68 299.462 c 4
 170.68 511.567 284.678 693.118 464 772 c 4
EndSplineSet
Validated: 1
EndChar

StartChar: parenright
Encoding: 41 41 77
Width: 600
Flags: MW
TeX: 112 0
LayerCount: 2
Fore
SplineSet
100 699 m 0
 122 771 l 0
 310.266 684.352 432 496.633 432 290.289 c 0
 432 82.1043 308.169 -110.384 116 -202 c 0
 94 -132 l 0
 250.594 -49.1168 350.028 112.597 350.028 286.978 c 0
 350.028 458.955 253.152 617.58 100 699 c 0
EndSplineSet
Validated: 1
EndChar

StartChar: three
Encoding: 51 51 78
Width: 600
Flags: MW
TeX: 116 0
LayerCount: 2
Fore
SplineSet
486.039 541.353 m 0
 486.039 471.159 442.787 409.132 378 385 c 0
 452.906 357.628 502.026 284.533 502.026 198.625 c 0
 502.026 86.4453 418.041 -12.1905 279.723 -12.1905 c 0
 207.414 -12.1905 138.424 16.1652 90 70 c 0
 151 143 l 0
 161.292 132.464 156.135 121.234 165.975 110.147 c 0
 171.105 104.367 211.734 61.2614 278.997 61.2614 c 0
 363.525 61.2614 424.303 129.155 424.303 208.449 c 0
 424.303 294.507 352.456 345.579 254.688 345.579 c 0
 242.418 345.579 230.159 344.711 218 343 c 0
 218 408 l 0
 286.501 408.15 319.346 420.748 332.04 426.323 c 0
 382.02 448.274 409.043 495.946 409.043 539.93 c 0
 409.043 600.917 357.627 652.425 283.533 652.425 c 0
 238.887 652.425 192.677 633.092 159 597 c 0
 114 647 l 0
 159.315 696.504 222.364 724.29 287.492 724.29 c 0
 401.687 724.29 486.039 639.912 486.039 541.353 c 0
EndSplineSet
Validated: 1
EndChar

StartChar: D
Encoding: 68 68 79
Width: 600
Flags: MW
TeX: 68 0
LayerCount: 2
Fore
SplineSet
72 722 m 0
 241 722 l 0
 304.677 722 356.645 717.434 409.104 683.3 c 0
 501.966 622.876 543.181 501.213 543.181 362.199 c 0
 543.181 204.202 486.7 81.1929 383.192 27.9784 c 0
 332.292 1.81019 284.391 -1 227 -1 c 0
 72 -1 l 0
 72 722 l 0
149 653 m 0
 149 63 l 0
 223 63 l 0
 268.397 63 312.737 65.0195 358.002 95.5625 c 0
 415.69 134.488 461.352 213.696 461.352 351.331 c 0
 461.352 455.017 438.945 557.739 371.85 613.352 c 0
 327.165 650.39 281.491 653 236 653 c 0
 149 653 l 0
EndSplineSet
Validated: 1
EndChar

StartChar: E
Encoding: 69 69 80
Width: 600
Flags: MW
TeX: 69 0
LayerCount: 2
Fore
SplineSet
78 723 m 0
 521 723 l 0
 521 651 l 0
 155 651 l 0
 155 414 l 0
 457 414 l 0
 457 340 l 0
 155 340 l 0
 155 72 l 0
 518 72 l 0
 518 0 l 0
 78 0 l 0
 78 723 l 0
EndSplineSet
Validated: 1
EndChar

StartChar: V
Encoding: 86 86 81
Width: 600
Flags: MW
TeX: 86 0
LayerCount: 2
Fore
SplineSet
39 723 m 0
 124 723 l 0
 309 168 l 0
 484 722 l 0
 564 722 l 0
 322 -5 l 0
 285 -5 l 0
 39 723 l 0
EndSplineSet
Validated: 1
EndChar

StartChar: percent
Encoding: 37 37 82
Width: 600
Flags: MW
TeX: 112 0
LayerCount: 2
Fore
SplineSet
463 722 m 0
 541 722 l 0
 137 0 l 0
 63 0 l 0
 463 722 l 0
171.904 735.106 m 0
 242.474 735.106 302.16 670.55 302.16 582.187 c 0
 302.16 496.123 243.528 431.982 172.952 431.982 c 0
 101.84 431.982 42.8516 496.911 42.8516 583.448 c 0
 42.8516 672.526 103.042 735.106 171.904 735.106 c 0
170.33 674.005 m 0
 147.48 674.005 112.978 656.124 112.978 587.43 c 0
 112.978 508.953 151.261 493.911 172.149 493.911 c 0
 195.202 493.911 229.092 512.141 229.092 579.148 c 0
 229.092 661.667 189.098 674.005 170.33 674.005 c 0
569.018 138.593 m 0
 569.018 51.7449 509.983 -12.1238 439.695 -12.1238 c 0
 369.049 -12.1238 309.98 52.0529 309.98 138.262 c 0
 309.98 225.089 369.219 289.001 439.589 289.001 c 0
 510.127 289.001 569.018 224.871 569.018 138.593 c 0
439.32 229.005 m 0
 414.436 229.005 378.994 208.941 378.994 138.34 c 0
 378.994 69.8907 413.149 46.7696 440.303 46.7696 c 0
 465.114 46.7696 500.009 66.7942 500.009 135.903 c 0
 500.009 210.33 463.157 229.005 439.32 229.005 c 0
EndSplineSet
Validated: 1
EndChar

StartChar: J
Encoding: 74 74 83
Width: 600
Flags: MW
TeX: 74 0
LayerCount: 2
Fore
SplineSet
209 722 m 0
 539 722 l 0
 539 654 l 0
 428 654 l 0
 428 242 l 0
 428 190 428 135 400 83 c 0
 366 21 304 -13 235 -13 c 0
 172 -13 110 16 67 67 c 0
 121 133 l 0
 128 127 123 119 128 112 c 0
 131 109 176 59 237 59 c 0
 271 59 303 76 322 105 c 0
 347.138 142.241 348.005 189.018 348.005 231.61 c 0
 348 241 l 0
 348 654 l 0
 209 654 l 0
 209 722 l 0
EndSplineSet
Validated: 1
EndChar

StartChar: K
Encoding: 75 75 84
Width: 600
Flags: MW
TeX: 75 0
LayerCount: 2
Fore
SplineSet
59 723 m 0
 156 723 l 0
 157 715 152 710 149 706 c 0
 145 701 145 698 145 693 c 0
 145 389 l 0
 447 728 l 0
 467 723 487 722 507 722 c 0
 537 722 l 0
 264 410 l 0
 556 -1 l 0
 499 -1 453 -5 453 -5 c 0
 202 361 l 0
 145 299 l 0
 145 0 l 0
 59 0 l 0
 59 723 l 0
EndSplineSet
Validated: 1
EndChar

StartChar: P
Encoding: 80 80 85
Width: 600
Flags: MW
TeX: 80 0
LayerCount: 2
Fore
SplineSet
162 646 m 1
 161 390 l 1
 307 390 l 2
 335 390 363 391 391 405 c 0
 433 426 455 469 455 515 c 0
 455 562 432 608 387 630 c 0
 357 645 328 646 298 646 c 2
 162 646 l 1
78 722 m 1
 298 722 l 2
 345 722 389 721 435 697 c 0
 503 662 538 592 538 519 c 0
 538 446 503 376 436 342 c 0
 392 320 349 319 304 319 c 2
 162 319 l 1
 162 0 l 1
 78 0 l 1
 78 722 l 1
EndSplineSet
Validated: 1
EndChar

StartChar: question
Encoding: 63 63 86
Width: 600
Flags: MW
TeX: 113 0
LayerCount: 2
Fore
SplineSet
381.002 51.4929 m 0
 381.002 15.0088 350.552 -15.046 312.441 -15.046 c 0
 274.415 -15.046 243.952 14.9803 243.952 51.509 c 0
 243.952 87.9628 274.383 118.002 312.462 118.002 c 0
 350.556 118.002 381.002 87.961 381.002 51.4929 c 0
84 650 m 0
 134.425 727.691 220.637 771.06 307.402 771.06 c 0
 438.699 771.06 513.24 674.633 513.24 566.639 c 0
 513.24 457.756 436.646 413.666 398.404 379.676 c 0
 350.692 337.269 348 302.835 348 262 c 0
 348 214 l 0
 272 214 l 0
 272 262 l 0
 272 314.014 275.26 354.806 326.449 411.013 c 0
 361.471 449.468 421.576 496.796 421.576 572.709 c 0
 421.576 641.182 368.948 695.153 299.634 695.153 c 0
 241.046 695.153 179.542 656.112 143 595 c 0
 84 650 l 0
EndSplineSet
Validated: 1
EndChar

StartChar: at
Encoding: 64 64 87
Width: 600
Flags: MW
TeX: 97 0
LayerCount: 2
Fore
SplineSet
514 35 m 0
 465 4 409 -13 352 -13 c 0
 207 -13 46 95 46 364 c 0
 46 627 198 733 324 733 c 0
 408 733 486 687 523 605 c 0
 548 549 549 493 549 438 c 0
 549 203 l 0
 479 203 l 0
 479 247 l 0
 450 213 408 193 363 193 c 0
 280 193 213 260 213 344 c 0
 213 406 251 468 323 497 c 0
 369 515 415 515 459 515 c 0
 476 515 l 0
 476 601 408 671 321 671 c 0
 221 671 113 576 113 367 c 0
 113 141 246 53 358 53 c 0
 403 53 446 66 483 91 c 0
 514 35 l 0
479 457 m 0
 460 457 l 0
 419 457 370 457 331 430 c 0
 300 408 285 377 285 347 c 0
 285 297 326 257 377 257 c 0
 410 257 444 275 462 310 c 0
 478 342 479 380 479 421 c 0
 479 426 479 430 479 435 c 0
 479 457 l 0
EndSplineSet
Validated: 1
EndChar

StartChar: bar
Encoding: 124 124 88
Width: 600
Flags: MW
TeX: 98 0
LayerCount: 2
Fore
SplineSet
261 756 m 0
 339 756 l 0
 339 -175 l 0
 261 -175 l 0
 261 756 l 0
EndSplineSet
Validated: 1
EndChar

StartChar: asciitilde
Encoding: 126 126 89
Width: 600
Flags: MW
TeX: 97 0
LayerCount: 2
Fore
SplineSet
116 396 m 4
 58 434 l 4
 92.198 492.034 151.499 538.051 217.153 538.051 c 4
 312.781 538.051 343.146 450.999 409.264 450.999 c 4
 447.27 450.999 474.649 480.653 508 526 c 4
 561 482 l 4
 530.811 436.285 473.381 375.377 400.536 375.377 c 4
 306.617 375.377 282.907 467.595 212.175 467.595 c 4
 179.423 467.595 145.323 443.982 116 396 c 4
EndSplineSet
Validated: 1
EndChar

StartChar: asciicircum
Encoding: 94 94 90
Width: 600
Flags: MW
TeX: 97 0
LayerCount: 2
Fore
SplineSet
118 425 m 0
 295 722 l 0
 320 722 l 0
 477 426 l 0
 415 397 l 0
 303 600 l 0
 176 397 l 0
 118 425 l 0
EndSplineSet
Validated: 1
EndChar

StartChar: cent
Encoding: 162 162 91
Width: 600
Flags: MW
TeX: 99 0
LayerCount: 2
Fore
SplineSet
340 723 m 1
 418 715 l 1
 418.775 707.498 415.212 701.298 413.826 698.827 c 0
 410.853 693.526 409.047 690.934 408 683 c 2
 395.457 587.822 l 1
 458.442 575.242 504.754 541.294 533 498 c 1
 482 432 l 1
 476.607 435.758 476.706 442.016 476.706 443.549 c 0
 476.706 450.099 478.707 455.066 472.749 462.134 c 0
 457.796 479.871 428.657 504.643 386.192 517.517 c 1
 332.752 112 l 1
 333.469 111.999 l 2
 389.462 111.999 444.705 135.589 485 177 c 1
 527 121 l 1
 477.291 66.4244 406.711 37.9886 331.604 37.9886 c 0
 328.725 37.9886 325.862 38.0286 323.014 38.1081 c 1
 306 -91 l 1
 239 -83 l 1
 255.422 48.0539 l 1
 141.433 79.5748 66 182.291 66 315.836 c 0
 66 471.215 168.407 585.207 323.673 592.709 c 1
 340 723 l 1
265.044 124.836 m 1
 315.274 525.684 l 1
 219.938 519.993 147.95 447.755 147.95 326.544 c 0
 147.95 225.647 194.972 152.96 265.044 124.836 c 1
EndSplineSet
Validated: 1
EndChar

StartChar: euro
Encoding: 8364 8364 92
Width: 600
Flags: MW
TeX: 78 0
LayerCount: 2
Fore
SplineSet
548 665 m 5
 519 586 l 5
 510.733 592.758 515.379 602.068 509.042 609.779 c 4
 507.922 611.142 464.815 661.167 386.755 661.167 c 4
 317.566 661.167 233.594 620.979 199.483 502.334 c 4
 197.686 496.082 195.746 488.698 193.828 480 c 5
 480 480 l 5
 455 413 l 5
 184.084 413 l 5
 182.441 393.403 181.417 370.757 181.417 344.613 c 4
 181.417 336.225 181.561 328.021 181.852 320 c 5
 420 320 l 5
 394 253 l 5
 188.48 253 l 5
 196.603 205.904 211.936 166.8 235.532 134.868 c 4
 276.315 79.6765 335.261 56.791 388.936 56.791 c 4
 435.098 56.791 479.134 73.5085 513 104 c 5
 546 46 l 5
 501.68 7.4161 444.786 -13.1265 384.233 -13.1265 c 4
 290.458 -13.1265 145.304 38.4687 114.986 253 c 5
 48 253 l 5
 63 320 l 5
 109.56 320 l 5
 109.4 326.06 109.319 332.225 109.319 338.496 c 4
 109.319 363.479 110.295 388.448 112.538 413 c 5
 48 413 l 5
 63 480 l 5
 122.297 480 l 5
 130.798 521.099 144.028 559.766 163.557 593.831 c 4
 222.805 697.179 318.974 727.394 391.356 727.394 c 4
 452.52 727.394 507.764 705.737 548 665 c 5
EndSplineSet
Validated: 1
EndChar

StartChar: sterling
Encoding: 163 163 93
Width: 600
Flags: MW
TeX: 115 0
LayerCount: 2
Fore
SplineSet
494 663 m 1
 443 599 l 1
 433.543 605.934 434.27 615.246 427.512 622.673 c 0
 422.593 628.078 390.006 656.128 341.348 656.128 c 0
 279.173 656.128 217.781 609.4 217.781 512.955 c 0
 217.781 488.175 221.729 463.315 227.168 438 c 1
 342 438 l 1
 342 372 l 1
 242.811 372 l 1
 251.234 336.143 258.537 298.852 258.537 259.182 c 0
 258.537 201.957 243.517 148.5 216 104 c 1
 226.25 105.791 236.644 106.675 247.063 106.675 c 0
 324.103 106.675 372.006 58.9164 438.359 58.9164 c 0
 470.325 58.9164 500.468 70.8547 524 91 c 1
 555 31 l 1
 528.906 10.2532 484.714 -17.1633 434.141 -17.1633 c 0
 360.259 -17.1633 311.803 34.666 227.673 34.666 c 0
 203.994 34.666 159.283 30.2658 85 -9 c 1
 55 57 l 1
 108.912 81.9053 122.949 87.4528 141.287 115.98 c 0
 167.053 156.062 181.214 204.698 181.214 256.851 c 0
 181.214 296.572 172.952 334.482 163.82 372 c 1
 88 372 l 1
 88 438 l 1
 148.325 438 l 1
 143.399 462.328 139.93 486.842 139.93 511.928 c 0
 139.93 641.884 235.856 722.006 343.371 722.006 c 0
 398.585 722.006 452.418 701.138 494 663 c 1
EndSplineSet
Validated: 1
EndChar

StartChar: Y
Encoding: 89 89 94
Width: 600
Flags: MW
TeX: 89 0
LayerCount: 2
Fore
SplineSet
43 723 m 0
 135 723 l 0
 312 372 l 0
 472 722 l 0
 558 722 l 0
 353 285 l 0
 353 0 l 0
 265 0 l 0
 265 285 l 0
 43 723 l 0
EndSplineSet
Validated: 1
EndChar

StartChar: yen
Encoding: 165 165 95
Width: 600
Flags: MW
TeX: 121 0
LayerCount: 2
Fore
SplineSet
52 723 m 1
 142 723 l 1
 310 421 l 1
 464 722 l 1
 550 722 l 1
 348 342 l 1
 348 318 l 1
 504 318 l 1
 504 252 l 1
 348 252 l 1
 348 179 l 1
 504 179 l 1
 504 114 l 1
 348 114 l 1
 348 0 l 1
 269 0 l 1
 269 114 l 1
 107 114 l 1
 107 179 l 1
 269 179 l 1
 269 252 l 1
 107 252 l 1
 107 318 l 1
 269 318 l 1
 269 342 l 1
 52 723 l 1
EndSplineSet
Validated: 1
EndChar

StartChar: Z
Encoding: 90 90 96
Width: 600
Flags: MW
TeX: 90 0
LayerCount: 2
Fore
SplineSet
82 722 m 0
 528 722 l 0
 527 665 l 0
 170 71 l 0
 511 71 l 0
 525 71 531 78 542 78 c 0
 543 78 545 78 546 78 c 0
 546 -1 l 0
 68 -1 l 0
 68 56 l 0
 432 649 l 0
 82 649 l 0
 82 722 l 0
EndSplineSet
Validated: 1
EndChar

StartChar: Q
Encoding: 81 81 97
Width: 600
Flags: MW
TeX: 81 0
LayerCount: 2
Fore
SplineSet
300 656 m 0
 222 656 123 586 123 374 c 0
 123 145 221 64 305 64 c 0
 366 64 478 108 478 348 c 0
 478 409 474 479 449 541 c 0
 414 626 351 656 300 656 c 0
556 358 m 0
 556 294 551 205 513 128 c 0
 473 48 409 4 343 -8 c 1
 344 -48 355 -95 428 -95 c 0
 454 -95 485 -91 522 -89 c 1
 520 -168 l 1
 512 -168 505 -168 497 -168 c 0
 482 -168 468 -168 454 -168 c 0
 407 -168 373 -166 341 -150 c 0
 290 -125 272 -77 272 -13 c 0
 272 -11 272 -10 272 -8 c 1
 167 8 44 105 44 362 c 0
 44 646 196 730 304 730 c 0
 383 730 466 686 513 592 c 0
 551 515 556 426 556 358 c 0
EndSplineSet
Validated: 1
EndChar

StartChar: thorn
Encoding: 254 254 98
Width: 600
Flags: MW
TeX: 116 0
LayerCount: 2
Fore
SplineSet
80 770 m 0
 172 770 l 0
 172 768 l 0
 172 754 164 750 164 732 c 0
 164 448 l 0
 200 506 263 541 331 541 c 0
 435 541 546 458 546 271 c 0
 546 77 432 -14 324 -14 c 0
 260 -14 200 18 165 70 c 0
 165 -193 l 0
 80 -193 l 0
 80 770 l 0
301 470 m 0
 247 470 198 441 178 393 c 0
 166 366 164 334 164 289 c 0
 164 212 164 169 179 133 c 0
 200 85 250 60 300 60 c 0
 350 60 459 87 459 253 c 0
 459 446 347 470 301 470 c 0
EndSplineSet
Validated: 1
EndChar

StartChar: plusminus
Encoding: 177 177 100
Width: 600
Flags: MW
TeX: 112 0
LayerCount: 2
Fore
SplineSet
63 93 m 4
 540 93 l 4
 540 20 l 4
 63 20 l 4
 63 93 l 4
EndSplineSet
Refer: 28 43 N 1 0 0 1 0 60 2
Validated: 1
EndChar

StartChar: R
Encoding: 82 82 101
Width: 600
Flags: MW
TeX: 82 0
LayerCount: 2
Fore
SplineSet
75 722 m 0
 288 722 l 0
 334.667 722 380.248 720.95 425.988 697.719 c 0
 492.448 663.965 528.143 596.481 528.143 523.978 c 0
 528.143 428.394 468.499 345.903 381 322 c 0
 548 0 l 0
 457 0 l 0
 297 319 l 0
 157 319 l 0
 157 0 l 0
 75 0 l 0
 75 722 l 0
157 646 m 0
 157 390 l 0
 297 390 l 0
 325.466 390 352.993 390.678 380.831 404.763 c 0
 422.659 425.926 445.003 468.944 445.003 514.986 c 0
 445.003 561.985 421.629 607.921 376.619 630.5 c 0
 347.19 645.263 318.165 646 288 646 c 0
 157 646 l 0
EndSplineSet
Validated: 1
EndChar

StartChar: X
Encoding: 88 88 102
Width: 600
Flags: MW
TeX: 88 0
LayerCount: 2
Fore
SplineSet
449 723 m 1
 530 723 l 1
 347.292 370.084 l 1
 552 0 l 1
 461 0 l 1
 300.474 286.156 l 1
 146 0 l 1
 57 0 l 1
 254.441 368.201 l 1
 61 723 l 1
 148 723 l 1
 300.153 448.564 l 1
 449 723 l 1
EndSplineSet
Validated: 1
EndChar

StartChar: six
Encoding: 54 54 103
Width: 600
Flags: MW
TeX: 115 0
LayerCount: 2
Fore
SplineSet
343 730 m 0
 401 730 459 706 501 664 c 0
 445 602 l 0
 434 610 435 621 428 628 c 0
 423 633 391 658 343 658 c 0
 291 658 172 626 168 379 c 0
 200 433 258 466 321 466 c 0
 423 466 519 380 519 230 c 0
 519 81 423 -12 313 -12 c 0
 249 -12 184 20 142 84 c 0
 96 154 88 244 88 329 c 0
 88 398 94 482 119 551 c 0
 163 677 257 730 343 730 c 0
313 395 m 0
 260 395 205 357 172 298 c 0
 171 289 171 280 171 271 c 0
 171 150 234 60 316 60 c 0
 378 60 440 113 440 225 c 0
 440 350 371 395 313 395 c 0
EndSplineSet
Validated: 1
EndChar

StartChar: nine
Encoding: 57 57 104
Width: 600
Flags: MW
TeX: 110 0
LayerCount: 2
Fore
SplineSet
262 -12 m 0
 202 -12 145 12 102 54 c 0
 158 116 l 0
 170 108 167 96 177 88 c 0
 177 88 212 62 264 62 c 0
 316 62 376 88 407 161 c 0
 414 179 433 228 436 340 c 0
 402 291 347 262 287 262 c 0
 182 262 89 351 89 490 c 0
 89 630 183 729 296 729 c 0
 371 729 454 683 492 572 c 0
 509 523 517 461 517 370 c 0
 517 252 498 189 486 156 c 0
 442 41 350 -12 262 -12 c 0
295 333 m 0
 347 333 400 367 432 421 c 0
 433 433 434 445 434 456 c 0
 434 581 369 657 294 657 c 0
 228 657 168 598 168 493 c 0
 168 386 231 333 295 333 c 0
EndSplineSet
Validated: 1
EndChar

StartChar: seven
Encoding: 55 55 105
Width: 600
Flags: MW
TeX: 115 0
LayerCount: 2
Fore
SplineSet
101 722 m 0
 510 722 l 0
 510 677 l 0
 461.138 565.327 415.446 452.266 373 338 c 0
 331.553 226.425 293.2 113.7 258 0 c 0
 167 0 l 0
 209.792 129.784 255.811 258.503 305 386 c 0
 338.534 472.918 373.54 559.268 410 645 c 0
 101 645 l 0
 101 722 l 0
EndSplineSet
Validated: 1
EndChar

StartChar: W
Encoding: 87 87 106
Width: 600
Flags: MW
TeX: 87 0
LayerCount: 2
Fore
SplineSet
30 722 m 0
 105 722 l 0
 183 234 l 0
 299 669 l 0
 324 669 l 0
 441 232 l 0
 507 722 l 0
 575 722 l 0
 461 -5 l 0
 429 -5 l 0
 305 472 l 0
 179 -5 l 0
 146 -5 l 0
 30 722 l 0
EndSplineSet
Validated: 1
EndChar

StartChar: acute
Encoding: 180 180 107
Width: 600
Flags: MW
TeX: 78 0
LayerCount: 2
Fore
SplineSet
348 810 m 4
 421 761 l 4
 304 605 l 4
 246 640 l 4
 348 810 l 4
EndSplineSet
Validated: 1
EndChar

StartChar: oslash
Encoding: 248 248 123
Width: 600
Flags: MW
TeX: 111 0
LayerCount: 2
Fore
SplineSet
301.758 470.103 m 0
 220.795 470.103 144.985 397.575 144.985 267.806 c 0
 144.985 210.232 159.811 162.64 183.62 127.42 c 1
 362.111 455.844 l 1
 342.74 465.435 322.083 470.103 301.758 470.103 c 0
543.113 262.304 m 0
 543.113 86.8043 430.326 -14 304.969 -14 c 0
 267.109 -14 230.757 -4.85803 198.107 11.9174 c 1
 151 -74 l 1
 91 -43 l 1
 142.317 51.4236 l 1
 90.4093 100.283 56.8677 173.482 56.8677 260.578 c 0
 56.8677 424.14 172.53 541.005 307.44 541.005 c 0
 338.595 541.005 369.418 534.573 397.992 521.866 c 1
 441 601 l 1
 503 568 l 1
 456.732 483.613 l 1
 508.189 437.145 543.113 362.872 543.113 262.304 c 0
416.343 409.949 m 1
 234.443 78.1878 l 1
 256.267 64.9671 280.584 57.9927 305.614 57.9927 c 0
 382.884 57.9927 459.167 125.6 459.167 258.844 c 0
 459.167 325.471 442.141 375.404 416.343 409.949 c 1
EndSplineSet
Validated: 1
EndChar

StartChar: uni02CB
Encoding: 715 715 130
Width: 600
Flags: MW
TeX: 78 0
LayerCount: 2
Fore
SplineSet
292 810 m 0
 394 640 l 0
 336 605 l 0
 219 761 l 0
 292 810 l 0
EndSplineSet
Validated: 1
EndChar

StartChar: dotlessi
Encoding: 305 305 136
Width: 600
Flags: MW
TeX: 78 0
LayerCount: 2
Fore
SplineSet
133 530 m 0
 345 530 l 0
 345 67 l 0
 469 67 l 0
 469 0 l 0
 126 0 l 0
 126 67 l 0
 261 67 l 0
 261 462 l 0
 133 462 l 0
 133 530 l 0
EndSplineSet
Validated: 1
EndChar

StartChar: circumflex
Encoding: 710 710 137
Width: 600
Flags: MW
TeX: 78 0
LayerCount: 2
Fore
SplineSet
165 631 m 0
 294 794 l 0
 319 794 l 0
 447 630 l 0
 393 590 l 0
 303 709 l 0
 209 591 l 0
 165 631 l 0
EndSplineSet
Validated: 1
EndChar

StartChar: tilde
Encoding: 732 732 138
Width: 600
Flags: MW
TeX: 78 0
LayerCount: 2
Fore
SplineSet
167 646 m 0
 115 683 l 0
 157.86 750.837 200.854 783.268 246.029 783.268 c 0
 292.862 783.268 323.97 749.067 338.861 733.55 c 0
 357.642 713.979 375.041 696.93 396.658 696.93 c 0
 425.237 696.93 438.799 723.991 464 758 c 0
 507 712 l 0
 466.944 662.14 435.39 629.754 392.65 629.754 c 0
 325.264 629.754 293.884 717.432 242.844 717.432 c 0
 212.153 717.432 194.763 690.786 167 646 c 0
EndSplineSet
Validated: 1
EndChar

StartChar: dieresis
Encoding: 168 168 139
Width: 600
Flags: MW
TeX: 78 0
LayerCount: 2
Fore
SplineSet
257.019 711.498 m 0
 257.019 679.211 230.789 652.981 198.502 652.981 c 0
 166.212 652.981 139.981 679.209 139.981 711.499 c 0
 139.981 743.789 166.21 770.019 198.5 770.019 c 0
 230.79 770.019 257.019 743.789 257.019 711.498 c 0
463.002 711.512 m 0
 463.002 679.168 436.956 652.991 405.005 652.991 c 0
 373.061 652.991 346.998 679.155 346.998 711.514 c 0
 346.998 743.862 373.052 770.035 405.008 770.035 c 0
 436.936 770.035 463.002 743.877 463.002 711.512 c 0
EndSplineSet
Validated: 1
EndChar

StartChar: germandbls
Encoding: 223 223 144
Width: 600
Flags: MW
TeX: 103 0
LayerCount: 2
Fore
SplineSet
74 0 m 4
 74 490 l 4
 74 542.807 74.667 596.235 98.2086 649.711 c 4
 133.73 730.4 208.298 775.004 287.299 775.004 c 4
 402.905 775.004 497.21 681.294 497.21 571.108 c 4
 497.21 504.487 461.9 445.294 405 416 c 4
 491.891 389.079 548.006 305.6 548.006 209.32 c 4
 548.006 83.4294 454.191 -12.0295 335.412 -12.0295 c 4
 292.776 -12.0295 250.921 0.470711 215 24 c 4
 256 89 l 4
 278.149 71.5086 305.639 61.9655 334.044 61.9655 c 4
 407.901 61.9655 471.132 125.491 471.132 209.399 c 4
 471.132 270.281 438.461 323.526 394.789 350.882 c 4
 362.072 371.375 330.752 374 293 374 c 4
 258 374 l 4
 258 440 l 4
 291 440 l 4
 308.302 440 324.828 440.514 344.201 449.183 c 4
 387.876 468.726 418.115 518.564 418.115 573.125 c 4
 418.115 649.497 360.647 708.194 291.766 708.194 c 4
 253.833 708.194 213.869 689.799 186.719 650.367 c 4
 153.729 602.454 153 543.204 153 492 c 4
 153 0 l 4
 74 0 l 4
EndSplineSet
Validated: 1
EndChar

StartChar: paragraph
Encoding: 182 182 145
Width: 600
Flags: MW
TeX: 112 0
LayerCount: 2
Fore
SplineSet
515 771 m 0
 515 -79 l 0
 448 -79 l 0
 448 705 l 0
 360 705 l 0
 360 -79 l 0
 291 -79 l 0
 291 373 l 0
 173.556 380.691 83.9422 470.146 83.9422 574.545 c 0
 83.9422 645.65 125.968 713.383 202.879 746.684 c 0
 258.505 770.77 316.231 771 370 771 c 0
 515 771 l 0
EndSplineSet
Validated: 1
EndChar

StartChar: section
Encoding: 167 167 146
Width: 600
Flags: MW
TeX: 115 0
LayerCount: 2
Fore
SplineSet
488 676 m 1
 423 618 l 1
 414.502 624.421 416.792 633.708 413.888 641.763 c 0
 404.459 667.917 369.872 709.915 308.352 709.915 c 0
 247.31 709.915 202.994 669.159 202.994 620.922 c 0
 202.994 597.432 213.725 561.524 264.348 534.753 c 0
 297.607 517.164 341.067 507.397 387.737 485.112 c 0
 468.614 446.493 494.176 395.665 494.176 353.922 c 0
 494.176 305.481 458.969 262.529 408.539 241.879 c 1
 459.313 207.384 483.175 156.542 483.175 107.276 c 0
 483.175 16.9904 402.922 -63.0207 285.774 -63.0207 c 0
 208.624 -63.0207 133.499 -27.5045 85 36 c 1
 146 107 l 1
 154.994 103.32 153.114 93.2219 155.624 86.7075 c 0
 159.14 77.5825 198.684 13.7598 286.023 13.7598 c 0
 356.942 13.7598 400.23 57.0391 400.23 105.026 c 0
 400.23 132.111 386.388 163.982 346.982 187.299 c 0
 298.949 215.721 233.162 219.874 175.365 254.027 c 0
 123.913 284.431 101.679 326.186 101.679 366.086 c 0
 101.679 418.429 140.913 463.115 196.205 482.822 c 1
 140.944 517.145 118.9 567.71 118.9 613.632 c 0
 118.9 701.981 199.381 778.269 307.936 778.269 c 0
 384.595 778.269 452.277 738.832 488 676 c 1
238.744 461.796 m 1
 207.924 451.724 185.96 423.141 185.96 389.457 c 0
 185.96 363.602 199.372 327.898 248.47 303.876 c 0
 283.42 286.776 323.54 281.479 365.239 264.586 c 1
 390.576 277.358 407.453 303.587 407.453 333.72 c 0
 407.453 360.138 394.181 398.165 340.303 424.753 c 0
 310.54 439.44 274.629 447.456 238.744 461.796 c 1
EndSplineSet
Validated: 1
EndChar

StartChar: copyright
Encoding: 169 169 147
Width: 600
Flags: MW
TeX: 99 0
LayerCount: 2
Fore
SplineSet
313.62 491.091 m 0
 386.544 491.091 443.024 445.507 458 384 c 0
 398 361 l 0
 391.517 368.856 395.372 377.023 393.506 384.631 c 0
 391.425 393.116 373.381 433.152 316.115 433.152 c 0
 261.422 433.152 207.997 399.047 207.997 326.991 c 0
 207.997 256.911 256.399 201.947 317.234 201.947 c 0
 353.531 201.947 386.837 222.046 404 254 c 0
 455 220 l 0
 422.956 171.427 369.074 140.974 312.13 140.974 c 0
 217.884 140.974 142.846 222.734 142.846 319.43 c 0
 142.846 418.338 220.235 491.091 313.62 491.091 c 0
306.307 21.8879 m 0
 152.945 21.8879 25.7487 152.286 25.7487 317.375 c 0
 25.7487 483.34 153.371 614.02 306.766 614.02 c 0
 459.736 614.02 587.017 483.767 587.017 318.262 c 0
 587.017 152.432 459.471 21.8879 306.307 21.8879 c 0
78.726 317.799 m 0
 78.726 179.711 182.936 71.9098 307.826 71.9098 c 0
 432.331 71.9098 537.005 179.647 537.005 318.685 c 0
 537.005 457.352 432.659 565 308.142 565 c 0
 183.437 565 78.726 457.059 78.726 317.799 c 0
EndSplineSet
Validated: 1
EndChar

StartChar: registered
Encoding: 174 174 148
Width: 600
Flags: MW
TeX: 114 0
LayerCount: 2
Fore
SplineSet
306 22 m 0
 153 22 26 152 26 317 c 0
 26 483 153 614 307 614 c 0
 460 614 587 484 587 318 c 0
 587 152 459 22 306 22 c 0
79 318 m 0
 79 180 183 72 308 72 c 0
 432 72 537 180 537 319 c 0
 537 457 433 565 308 565 c 0
 183 565 79 457 79 318 c 0
190 154 m 0
 190 492 l 0
 299 492 l 0
 325 492 352 492 379 481 c 0
 418 464 439 429 439 394 c 0
 439 353 411 316 371 305 c 0
 446 160 l 0
 391 152 l 0
 319 297 l 0
 243 297 l 0
 243 154 l 0
 190 154 l 0
243 445 m 0
 243 343 l 0
 303 343 l 0
 322 343 345 343 363 355 c 0
 379 364 386 379 386 394 c 0
 386 409 378 425 360 435 c 0
 342 445 319 445 300 445 c 0
 243 445 l 0
EndSplineSet
Validated: 1
EndChar

StartChar: uni00B9
Encoding: 185 185 149
Width: 600
Flags: MW
TeX: 117 0
LayerCount: 2
Fore
SplineSet
356 733 m 0
 356 293 l 0
 282 293 l 0
 282 641 l 0
 170 612 l 0
 151 648 l 0
 306 733 l 0
 356 733 l 0
EndSplineSet
Validated: 1
EndChar

StartChar: guilsinglleft
Encoding: 8249 8249 150
Width: 600
Flags: MW
TeX: 78 0
LayerCount: 2
Fore
SplineSet
178 293 m 0
 354 464 l 0
 399 416 l 0
 259 279 l 0
 407 117 l 0
 361 71 l 0
 178 266 l 0
 178 293 l 0
EndSplineSet
Validated: 1
EndChar

StartChar: guilsinglright
Encoding: 8250 8250 152
Width: 600
Flags: MW
TeX: 78 0
LayerCount: 2
Fore
SplineSet
407 293 m 0
 407 266 l 0
 224 71 l 0
 178 117 l 0
 326 279 l 0
 186 416 l 0
 231 464 l 0
 407 293 l 0
EndSplineSet
Validated: 1
EndChar

StartChar: guillemotright
Encoding: 187 187 153
Width: 600
Flags: MW
TeX: 103 0
LayerCount: 2
Fore
SplineSet
317 293 m 0
 317 266 l 0
 134 71 l 0
 88 117 l 0
 236 279 l 0
 96 416 l 0
 141 464 l 0
 317 293 l 0
527 293 m 0
 527 266 l 0
 344 71 l 0
 298 117 l 0
 446 279 l 0
 306 416 l 0
 351 464 l 0
 527 293 l 0
EndSplineSet
Validated: 1
EndChar

StartChar: logicalnot
Encoding: 172 172 154
Width: 600
Flags: MW
TeX: 108 0
LayerCount: 2
Fore
SplineSet
116 402 m 0
 490 402 l 0
 490 182 l 0
 416 182 l 0
 416 329 l 0
 116 329 l 0
 116 402 l 0
EndSplineSet
Validated: 1
EndChar

StartChar: degree
Encoding: 176 176 156
Width: 600
Flags: MW
TeX: 100 0
LayerCount: 2
Fore
SplineSet
463.001 584.452 m 0
 463.001 498.746 392.958 428.902 306.439 428.902 c 0
 219.963 428.902 149.901 498.735 149.901 584.477 c 0
 149.901 670.167 219.932 740.008 306.436 740.008 c 0
 392.955 740.008 463.001 670.157 463.001 584.452 c 0
307.636 679.001 m 0
 260.52 679.001 220.977 638.292 220.977 585.822 c 0
 220.977 533.609 260.369 492.878 307.592 492.878 c 0
 354.564 492.878 394.083 533.556 394.083 586.131 c 0
 394.083 638.327 354.712 679.001 307.636 679.001 c 0
EndSplineSet
Validated: 1
EndChar

StartChar: uni00B2
Encoding: 178 178 157
Width: 600
Flags: MW
TeX: 117 0
LayerCount: 2
Fore
SplineSet
139 642 m 0
 173.775 702.486 238.827 738.288 309.097 738.288 c 0
 401.336 738.288 464.001 678.771 464.001 608.561 c 0
 464.001 553.7 426.301 516.004 409.841 500.834 c 0
 363.816 458.417 299.741 428.352 235 356 c 0
 446 356 l 0
 451.284 356 453.692 356.741 458.392 360.794 c 0
 460.8 362.871 466.479 368.496 474 366 c 0
 474 293 l 0
 150 293 l 0
 150 344 l 0
 214.555 433.275 299.669 489.778 334.371 517.996 c 0
 367.994 545.338 394.114 573.311 394.114 608.166 c 0
 394.114 644.932 362.276 678.917 306.876 678.917 c 0
 262.373 678.917 224.551 655.762 204.174 629.982 c 0
 197.924 622.076 198.745 616.904 193 606 c 0
 139 642 l 0
EndSplineSet
Validated: 1
EndChar

StartChar: eth
Encoding: 240 240 158
Width: 600
Flags: MW
TeX: 101 0
LayerCount: 2
Fore
SplineSet
305.228 470.011 m 0
 226.957 470.011 144.996 405.543 144.996 269.224 c 0
 144.996 134.476 222.952 57.9969 306.097 57.9969 c 0
 371.358 57.9969 459.002 107.826 459.002 268.758 c 0
 459.002 429.627 365.393 470.011 305.228 470.011 c 0
411.85 660.892 m 1
 482.806 580.388 543.317 462.269 543.317 293.321 c 0
 543.317 230.904 536.102 156.905 498.489 94.5252 c 0
 455.932 23.9469 383.677 -14.0061 306.684 -14.0061 c 0
 172.735 -14.0061 56.7783 98.7597 56.7783 258.02 c 0
 56.7783 417.046 169.434 541.31 298.018 541.31 c 0
 351.944 541.31 401.981 518.882 437 481 c 1
 413.678 540.162 379.782 593.873 337.517 639.819 c 1
 190 598 l 1
 169 653 l 1
 289.257 685.865 l 1
 253.708 715.612 213.989 740.637 171 760 c 1
 265 779 l 1
 294.809 762.216 330.445 738.683 366.105 706.867 c 1
 491 741 l 1
 511 689 l 1
 411.85 660.892 l 1
EndSplineSet
Validated: 1
EndChar

StartChar: Eth
Encoding: 208 208 159
Width: 600
Flags: MW
TeX: 69 0
LayerCount: 2
Fore
SplineSet
101 722 m 1
 263 722 l 2
 326 722 376 716 426 679 c 0
 513 615 550 488 550 365 c 0
 550 211 491 73 380 21 c 0
 339 2 300 -1 249 -1 c 2
 101 -1 l 1
 101 349 l 1
 45 349 l 1
 45 416 l 1
 101 416 l 1
 101 722 l 1
176 349 m 1
 176 66 l 1
 245 66 l 2
 286 66 325 68 366 96 c 0
 435 143 472 241 472 355 c 0
 472 436 455 525 411 585 c 0
 362 652 303 654 258 654 c 2
 176 654 l 1
 176 416 l 1
 297 416 l 1
 297 349 l 1
 176 349 l 1
EndSplineSet
Validated: 1
EndChar

StartChar: Thorn
Encoding: 222 222 160
Width: 600
Flags: MW
TeX: 84 0
LayerCount: 2
Fore
SplineSet
78 722 m 0
 169 722 l 0
 169.521 720.466 169.785 718.85 169.785 717.216 c 0
 169.785 710.792 165.82 706.356 163.318 702.38 c 0
 160.184 697.398 160 694.17 160 690 c 0
 160 586 l 0
 298 586 l 0
 344.584 586 389.359 584.805 434.624 561.494 c 0
 502.828 526.371 538.016 455.718 538.016 382.699 c 0
 538.016 309.503 502.883 240.352 436.114 206.409 c 0
 392.262 184.116 348.977 183 304 183 c 0
 160 183 l 0
 160 0 l 0
 78 0 l 0
 78 722 l 0
160 510 m 0
 160 254 l 0
 307 254 l 0
 335.466 254 362.993 254.678 390.831 268.763 c 0
 432.659 289.926 455.003 332.944 455.003 378.986 c 0
 455.003 425.985 431.629 471.921 386.619 494.5 c 0
 357.19 509.263 328.165 510 298 510 c 0
 160 510 l 0
EndSplineSet
Validated: 1
EndChar

StartChar: ring
Encoding: 730 730 161
Width: 600
Flags: MW
TeX: 78 0
LayerCount: 2
Fore
SplineSet
413.005 700.997 m 0
 413.005 645.145 366.039 598.958 306.924 598.958 c 0
 247.95 598.958 200.921 645.101 200.921 701.065 c 0
 200.921 756.856 247.86 803.005 306.911 803.005 c 0
 366.013 803.005 413.005 756.837 413.005 700.997 c 0
259.914 701.774 m 0
 259.914 672.11 281.627 648.896 307.995 648.896 c 0
 334.032 648.896 356.035 671.837 356.035 702.068 c 0
 356.035 731.828 334.332 755.012 308.022 755.012 c 0
 282 755.012 259.914 732.072 259.914 701.774 c 0
EndSplineSet
Validated: 1
EndChar

StartChar: circumflex.cap
Encoding: 65536 -1 190
Width: 600
Flags: MW
TeX: 78 0
LayerCount: 2
Fore
SplineSet
142 659 m 0
 294 774 l 0
 319 774 l 0
 462 661 l 0
 424 617 l 0
 304 699 l 0
 175 620 l 0
 142 659 l 0
EndSplineSet
Validated: 1
EndChar

StartChar: ae
Encoding: 230 230 192
Width: 600
Flags: MW
TeX: 97 0
LayerCount: 2
Fore
SplineSet
46 477 m 0
 79 518 129 541 180 541 c 0
 236 541 284 513 309 469 c 0
 335 514 382 541 431 541 c 0
 473 541 519 521 547 473 c 0
 578 423 578 363 578 311 c 0
 578 267 l 0
 337 257 l 0
 337 203 l 0
 337 175 338 152 349 127 c 0
 369 82 412 55 457 55 c 0
 491 55 522 70 542 97 c 0
 583 49 l 0
 550 10 502 -13 451 -13 c 0
 392 -13 337 17 305 67 c 0
 280 18 230 -13 174 -13 c 0
 91 -13 22 56 22 143 c 0
 22 203 55 267 128 300 c 0
 171 319 212 321 240 322 c 0
 266 323 l 0
 266 353 l 0
 266 374 265 394 258 413 c 0
 244 452 211 476 174 476 c 0
 142 476 108 457 87 426 c 0
 46 477 l 0
266 254 m 0
 241 253 l 0
 211 252 181 251 151 236 c 0
 114 217 96 181 96 148 c 0
 96 98 135 58 182 58 c 0
 214 58 246 76 259 112 c 0
 265 129 266 147 266 169 c 0
 266 181 266 195 266 210 c 0
 266 254 l 0
337 323 m 0
 511 330 l 0
 511 353 l 0
 511 377 511 401 500 425 c 0
 486 457 459 476 430 476 c 0
 401 476 376 458 359 433 c 0
 338 402 337 371 337 343 c 0
 337 323 l 0
EndSplineSet
Validated: 1
EndChar

StartChar: oe
Encoding: 339 339 193
Width: 600
Flags: MW
TeX: 111 0
LayerCount: 2
Fore
SplineSet
197 540 m 0
 240 540 280 521 305 487 c 0
 334 521 377 540 422 540 c 0
 476 540 536 512 562 440 c 0
 576 401 578 356 578 311 c 0
 578 297 578 283 578 269 c 0
 578 256 l 0
 314 256 l 0
 315 183 318 148 331 120 c 0
 351 73 394 54 437 54 c 0
 471 54 512 65 542 99 c 0
 583 49 l 0
 544 9 491 -14 435 -14 c 0
 387 -14 340 3 303 34 c 0
 272 5 230 -13 188 -13 c 0
 142 -13 84 10 49 81 c 0
 21 139 17 213 17 274 c 0
 17 327 21 390 50 444 c 0
 84 509 142 540 197 540 c 0
315 322 m 0
 509 322 l 0
 509 332 l 0
 509 335 509 339 509 342 c 0
 509 373 508 406 491 433 c 0
 474 463 443 477 413 477 c 0
 383 477 345 462 327 414 c 0
 325 407 315 380 315 329 c 0
 315 327 315 324 315 322 c 0
87 285 m 0
 87 246 89 189 104 143 c 0
 123 80 164 58 198 58 c 0
 227 58 257 74 257 103 c 0
 257 118 242 173 242 274 c 0
 242 360 252 403 252 420 c 0
 252 450 227 470 196 470 c 0
 163 470 128 447 108 403 c 0
 89 363 87 318 87 285 c 0
EndSplineSet
Validated: 1
EndChar

StartChar: acute.cap
Encoding: 65538 -1 194
Width: 600
Flags: MW
TeX: 78 0
LayerCount: 2
Fore
SplineSet
387 779 m 0
 433 698 l 0
 237 627 l 0
 210 675 l 0
 387 779 l 0
EndSplineSet
Validated: 1
EndChar

StartChar: grave.cap
Encoding: 65539 -1 195
Width: 600
Flags: MW
TeX: 78 0
LayerCount: 2
Fore
SplineSet
250 779 m 0
 427 675 l 0
 400 627 l 0
 204 698 l 0
 250 779 l 0
EndSplineSet
Validated: 1
EndChar

StartChar: ordfeminine
Encoding: 170 170 196
Width: 600
Flags: MW
TeX: 111 0
LayerCount: 2
Fore
SplineSet
152 656 m 0
 194 704 253 721 308 721 c 0
 371 721 424 696 448 645 c 0
 460 619 461 592 461 562 c 0
 461 309 l 0
 388 309 l 0
 388 348 l 0
 354 316 309 298 264 298 c 0
 184 298 128 355 128 419 c 0
 128 457 149 500 197 526 c 0
 239.824 549.059 290.785 551.093 339.274 551.093 c 0
 349.664 551.093 359.941 551 370 551 c 0
 387 551 l 0
 387 565 l 0
 387 585 387 605 374 625 c 0
 361 645 337 659 301 659 c 0
 260 659 218 644 192 608 c 0
 152 656 l 0
390 491 m 0
 371 491 l 0
 357.667 491 342.556 491.395 327.247 491.395 c 0
 308.111 491.395 288.667 490.778 272 488 c 0
 221 479 203 447 203 422 c 0
 203 390 231 361 276 361 c 0
 311 361 344 378 364 397 c 0
 389 420 390 444 390 471 c 0
 390 491 l 0
98 239 m 0
 503 239 l 0
 503 176 l 0
 98 176 l 0
 98 239 l 0
EndSplineSet
Validated: 1
EndChar

StartChar: ordmasculine
Encoding: 186 186 197
Width: 600
Flags: MW
TeX: 111 0
LayerCount: 2
Fore
SplineSet
301.826 721.011 m 0
 385.223 721.011 470.107 653.808 470.107 514.756 c 0
 470.107 364.793 379.364 296.94 294.598 296.94 c 0
 202.824 296.94 120.827 374.446 120.827 500.869 c 0
 120.827 633.779 205.502 721.011 301.826 721.011 c 0
190.986 506.214 m 0
 190.986 409.196 244.9 363.925 296.394 363.925 c 0
 345.93 363.925 401 406.473 401 506.207 c 0
 401 605.509 349.544 656 296.205 656 c 0
 243.333 656 190.986 606.057 190.986 506.214 c 0
98 239 m 0
 503 239 l 0
 503 176 l 0
 98 176 l 0
 98 239 l 0
EndSplineSet
Validated: 1
EndChar

StartChar: uni02C9
Encoding: 713 713 198
Width: 600
Flags: MW
TeX: 78 0
LayerCount: 2
Fore
SplineSet
153 720 m 0
 447 720 l 0
 447 655 l 0
 153 655 l 0
 153 720 l 0
EndSplineSet
Validated: 1
EndChar

StartChar: cedilla
Encoding: 184 184 201
Width: 600
Flags: MW
TeX: 78 0
LayerCount: 2
Fore
SplineSet
313 0 m 0
 363 0 l 0
 357 -55 l 0
 376 -56 l 0
 391 -57 406 -58 421 -65 c 0
 443 -76 455 -96 455 -119 c 0
 455 -160 414 -205 329 -205 c 0
 285 -205 235 -192 192 -162 c 0
 221 -114 l 0
 257 -143 301 -155 336 -155 c 0
 381 -155 389 -137 389 -127 c 0
 389 -120 385 -112 376 -107 c 0
 364 -99 347 -99 334 -99 c 0
 300 -99 l 0
 313 0 l 0
EndSplineSet
Validated: 1
EndChar

StartChar: uni00B3
Encoding: 179 179 204
Width: 600
Flags: MW
TeX: 117 0
LayerCount: 2
Fore
SplineSet
308.545 739.11 m 4
 394.884 739.11 460.209 681.247 460.209 614.55 c 4
 460.209 572.151 433.428 536.235 395 524 c 4
 444.061 515.328 480.001 473.423 480.001 424.669 c 4
 480.001 348.943 397.312 290.99 304.904 290.99 c 4
 241.699 290.99 181.599 318.471 140 366 c 4
 194 426 l 4
 204.212 415.153 199.361 404.247 210.154 393.714 c 4
 216.257 387.757 251.225 355.987 306.079 355.987 c 4
 362.89 355.987 408.454 389.769 408.454 431.009 c 4
 408.454 452.324 395.326 495.101 306.637 495.101 c 4
 294.627 495.101 283.183 494.368 272 493 c 4
 272 551 l 4
 279.636 550.27 287.301 549.894 294.972 549.894 c 4
 370.889 549.894 391.54 582.897 391.54 609.502 c 4
 391.54 644.172 357.159 678.038 305.041 678.038 c 4
 265.85 678.038 224.827 658.777 197 624 c 4
 155 667 l 4
 193.931 713.015 250.216 739.11 308.545 739.11 c 4
EndSplineSet
Validated: 1
EndChar

StartChar: divide
Encoding: 247 247 205
Width: 600
Flags: MW
TeX: 100 0
LayerCount: 2
Fore
SplineSet
92 403 m 0
 509 403 l 0
 509 326 l 0
 92 326 l 0
 92 403 l 0
358 540.992 m 0
 358 512.297 334.695 488.972 305.98 488.972 c 0
 277.279 488.972 253.962 512.289 253.962 540.99 c 0
 253.962 569.692 277.277 593.01 305.98 593.01 c 0
 334.693 593.01 358 569.686 358 540.992 c 0
358.01 183.993 m 0
 358.01 155.275 334.682 131.943 305.964 131.943 c 0
 277.243 131.943 253.913 155.271 253.913 183.992 c 0
 253.913 212.712 277.242 236.04 305.963 236.04 c 0
 334.68 236.04 358.01 212.71 358.01 183.993 c 0
EndSplineSet
Validated: 1
EndChar

StartChar: Oslash
Encoding: 216 216 206
Width: 600
Flags: MW
TeX: 79 0
LayerCount: 2
Fore
SplineSet
300.361 654.01 m 0
 224.496 654.01 123.971 587.911 123.971 372.659 c 0
 123.971 281.791 139.578 215.128 163.473 167.742 c 1
 399.758 612.324 l 1
 368.854 641.994 332.534 654.01 300.361 654.01 c 0
556.008 359.504 m 0
 556.008 296.095 551.428 206.273 513.069 128.645 c 0
 465.538 32.4568 382.426 -11.0151 304.485 -11.0151 c 0
 261.834 -11.0151 213.304 2.30387 169.786 34.9718 c 1
 112 -73 l 1
 52 -42 l 1
 119.616 85.2228 l 1
 75.1957 143.737 43.9996 232.717 43.9996 362.113 c 0
 43.9996 645.884 196.081 730 303.761 730 c 0
 349.84 730 397.121 715.105 437.897 684.085 c 1
 491 784 l 1
 553 751 l 1
 488.971 631.363 l 1
 497.238 619.916 504.885 607.435 511.792 593.902 c 0
 551.172 516.748 556.008 427.05 556.008 359.504 c 0
443.911 547.169 m 1
 208.342 107.012 l 1
 238.634 79.4207 273.138 67.987 304.834 67.987 c 0
 353.415 67.987 409.354 95.4457 442.765 165.717 c 0
 472.354 227.951 475.085 301.614 475.085 348.897 c 0
 475.085 410.01 471.386 479.154 446.984 539.849 c 2
 443.911 547.169 l 1
EndSplineSet
Validated: 1
EndChar

StartChar: multiply
Encoding: 215 215 207
Width: 600
Flags: MW
TeX: 109 0
LayerCount: 2
Fore
SplineSet
453 583 m 1
 508 532 l 1
 357.683 376.932 l 1
 505 221 l 1
 451 168 l 1
 304.762 322.338 l 1
 160 173 l 1
 108 224 l 1
 253.994 375.919 l 1
 108 530 l 1
 163 583 l 1
 306.764 430.829 l 1
 453 583 l 1
EndSplineSet
Validated: 1
EndChar

StartChar: AE
Encoding: 198 198 208
Width: 600
Flags: MW
TeX: 65 0
LayerCount: 2
Fore
SplineSet
242 723 m 0
 571 723 l 0
 571 651 l 0
 370 651 l 0
 372 414 l 0
 541 414 l 0
 541 340 l 0
 373 340 l 0
 375 72 l 0
 568 72 l 0
 568 0 l 0
 302 0 l 0
 302 196 l 0
 151 196 l 0
 89 0 l 0
 15 0 l 0
 242 723 l 0
302 651 m 0
 289 651 l 0
 168 263 l 0
 302 263 l 0
 302 651 l 0
EndSplineSet
Validated: 1
EndChar

StartChar: OE
Encoding: 338 338 209
Width: 600
Flags: MW
TeX: 79 0
LayerCount: 2
Fore
SplineSet
303 690 m 0
 303 723 l 0
 571 723 l 0
 571 651 l 0
 375 651 l 0
 375 414 l 0
 541 414 l 0
 541 340 l 0
 375 340 l 0
 375 72 l 0
 568 72 l 0
 568 0 l 0
 302 0 l 0
 302 36 l 0
 279 8 244 -8 207 -8 c 0
 150 -8 80 31 47 139 c 0
 43 153 21 226 21 362 c 0
 21 459 29 543 60 616 c 0
 98 705 161 732 208 732 c 0
 244 732 278 717 303 690 c 0
95 376 m 0
 95 343 95 222 127 143 c 0
 153 79 191 63 217 63 c 0
 258 63 291 99 302 150 c 0
 302 562 l 0
 290 601 260 665 208 665 c 0
 174 665 139 636 118 573 c 0
 110 552 95 498 95 376 c 0
EndSplineSet
Validated: 1
EndChar

StartChar: currency
Encoding: 164 164 210
Width: 600
Flags: MW
TeX: 78 0
LayerCount: 2
Fore
SplineSet
301 516 m 0
 237 516 184 464 184 400 c 0
 184 336 237 284 301 284 c 0
 365 284 417 336 417 400 c 0
 417 464 365 516 301 516 c 0
89 570 m 1
 130 611 l 1
 195 546 l 1
 225 567 262 580 301 580 c 0
 339 580 375 568 405 547 c 1
 469 611 l 1
 510 570 l 1
 446 506 l 1
 468 476 481 439 481 400 c 0
 481 361 468 324 447 295 c 1
 510 231 l 1
 469 190 l 1
 405 254 l 1
 376 232 340 220 301 220 c 0
 261 220 225 233 195 255 c 1
 130 190 l 1
 89 231 l 1
 154 296 l 1
 133 325 121 361 121 400 c 0
 121 439 133 475 154 504 c 1
 89 570 l 1
EndSplineSet
Validated: 1
EndChar

StartChar: brokenbar
Encoding: 166 166 211
Width: 600
Flags: MW
TeX: 78 0
LayerCount: 2
Fore
SplineSet
261 756 m 0
 339 756 l 0
 339 342 l 0
 261 342 l 0
 261 756 l 0
339 -175 m 0
 261 -175 l 0
 261 227 l 0
 339 227 l 0
 339 -175 l 0
EndSplineSet
Validated: 1
EndChar

StartChar: ogonek
Encoding: 731 731 214
Width: 600
Flags: MW
TeX: 78 0
LayerCount: 2
Fore
SplineSet
422 0 m 0
 499 0 l 0
 460.042 -34.9926 431.396 -66.5962 421.556 -77.7406 c 0
 413.412 -86.9647 402.048 -100.705 402.048 -117.842 c 0
 402.048 -135.64 414.849 -150.797 435.947 -150.797 c 0
 443.138 -150.797 451.677 -149.114 463.857 -144.679 c 0
 481.957 -138.087 493.634 -130.111 501 -124 c 0
 501 -177 l 0
 478.28 -196.689 449.7 -204.002 420.9 -204.002 c 0
 360.858 -204.002 330.051 -171.745 330.051 -133.094 c 0
 330.051 -95.7614 361.962 -49.529 422 0 c 0
EndSplineSet
Validated: 1
EndChar

StartChar: dotaccent
Encoding: 729 729 222
Width: 600
Flags: MW
TeX: 78 0
LayerCount: 2
Fore
SplineSet
305.003 760 m 0
 338.171 760 365.019 733.28 365.019 700.493 c 0
 365.019 667.727 338.182 640.992 304.99 640.992 c 0
 271.818 640.992 244.981 667.716 244.981 700.486 c 0
 244.981 733.264 271.822 760 305.003 760 c 0
EndSplineSet
Validated: 1
EndChar

StartChar: breve
Encoding: 728 728 241
Width: 600
Flags: MW
LayerCount: 2
Fore
SplineSet
169 749 m 0
 195.428 707.212 242.085 666.993 299.32 666.993 c 0
 347.638 666.993 397.467 696.856 437 748 c 0
 470 700 l 0
 430.784 646.838 369.515 606.983 299.498 606.983 c 0
 236.205 606.983 172.965 640.673 127 696 c 0
 169 749 l 0
EndSplineSet
Validated: 1
EndChar

StartChar: eng
Encoding: 331 331 242
Width: 600
Flags: MW
LayerCount: 2
Fore
SplineSet
89 0 m 0
 89 529 l 0
 174 529 l 0
 174 436 l 0
 212.871 495.002 278.12 542.003 349.957 542.003 c 0
 410.281 542.003 464.544 508.129 490.899 448.568 c 0
 509.729 406.014 510 362.334 510 321 c 0
 510 65 l 0
 510 16.919 509.539 -32.1813 489.487 -81.4966 c 0
 457.36 -160.511 387.101 -203.685 314.113 -203.685 c 0
 273.194 -203.685 233.402 -190.084 201 -165 c 0
 241 -87 l 0
 248.911 -88.73 247.814 -97.6079 250.927 -102.004 c 0
 253.743 -105.982 279.85 -126.182 316.013 -126.182 c 0
 347.932 -126.182 381.001 -110.476 402.714 -76.7224 c 0
 427.982 -37.4432 428 10.8898 428 52 c 0
 428 319 l 0
 428 356.393 427.762 401.823 399.11 436.061 c 0
 380.097 458.781 353.908 469.58 327.341 469.58 c 0
 271.362 469.58 220.49 422.787 200.308 395.893 c 0
 178.287 366.55 174 340.651 174 305 c 0
 174 0 l 0
 89 0 l 0
EndSplineSet
Validated: 1
EndChar

StartChar: dcaron
Encoding: 271 271 245
Width: 600
Flags: MW
LayerCount: 2
Fore
SplineSet
368 452 m 0
 368 771 l 0
 447 771 l 0
 447 49 l 0
 447 32.9912 447.786 16.2109 452 0 c 0
 369 0 l 0
 364.758 12.8477 364 26.4229 364 39 c 0
 364 85 l 0
 331.672 29.4834 274.151 -12.0137 209.492 -12.0137 c 0
 97.8574 -12.0137 9.99902 105.708 9.99902 268.875 c 0
 9.99902 443.625 112.897 543.229 220.226 543.229 c 0
 283.503 543.229 340.554 507.905 368 452 c 0
224.355 475.159 m 0
 149.202 475.159 90.9316 392.789 90.9316 278.779 c 0
 90.9316 171.018 142.046 61.8809 227.748 61.8809 c 0
 273.537 61.8809 313.653 94.3154 335.296 129.689 c 0
 358.192 167.108 361.312 207.25 361.312 255.021 c 0
 361.312 325.707 359.835 363.117 343.567 397.269 c 0
 320.504 445.688 266.849 475.159 224.355 475.159 c 0
EndSplineSet
Refer: 56 8217 N 0.8 0 0 0.8 306.515 186.393 2
Validated: 1
EndChar

StartChar: eogonek
Encoding: 281 281 246
Width: 600
Flags: MW
LayerCount: 2
Fore
SplineSet
309.849 542.279 m 0
 396.962 542.279 495.692 495.772 519.469 353.277 c 0
 522.825 333.167 524.637 311.922 524.637 289.765 c 0
 524.637 277.766 524.105 265.499 523 253 c 1
 147.298 253 l 1
 153.598 94.4857 256.131 55.4411 326.953 55.4411 c 0
 379.589 55.4411 429.496 76.3575 464 115 c 1
 510 70 l 1
 469 19 l 2
 429.072 -30.6685 396.601 -67.9568 396.601 -101.807 c 0
 396.601 -127.998 415.588 -147.006 441.833 -147.006 c 0
 447.913 -147.006 467.621 -146.296 501 -125 c 1
 500 -182 l 1
 478.223 -193.942 451.111 -202.754 423.732 -202.754 c 0
 365.924 -202.754 327.823 -164.029 327.823 -116.525 c 0
 327.823 -82.2885 349.347 -41.4463 392 -1 c 1
 366.185 -8.27677 339.549 -12.0058 312.827 -12.0058 c 0
 173.799 -12.0058 66.4395 87.3647 66.4395 261.323 c 0
 66.4395 451.743 183.571 542.279 309.849 542.279 c 0
150.008 317 m 1
 441 317 l 1
 441.711 323.136 442.058 329.219 442.058 335.225 c 0
 442.058 413.224 383.547 478.169 303.883 478.169 c 0
 247.072 478.169 166.495 441.85 150.008 317 c 1
EndSplineSet
Validated: 1
EndChar

StartChar: dotlessj
Encoding: 567 567 259
Width: 600
Flags: MW
LayerCount: 2
Fore
SplineSet
156 530 m 0
 437 530 l 0
 437 37 l 0
 437 -8.68478 435.772 -52.1052 413.163 -96.3812 c 0
 377.277 -166.657 303.238 -202.181 227.699 -202.181 c 0
 162.017 -202.181 103.902 -175.027 66 -128 c 0
 120 -56 l 0
 127.204 -61.9473 125.358 -69.4816 130.11 -77.2483 c 0
 134.378 -84.2222 169.009 -130.016 233.016 -130.016 c 0
 277.791 -130.016 319.506 -106.298 339.459 -63.2398 c 0
 352.497 -35.1019 353 -7.27543 353 21 c 0
 353 461 l 0
 156 461 l 0
 156 530 l 0
EndSplineSet
Validated: 1
EndChar

StartChar: kgreenlandic
Encoding: 312 312 260
Width: 600
Flags: MW
LayerCount: 2
Fore
SplineSet
87 529 m 4
 182 529 l 4
 182.131 528.206 182.196 527.403 182.196 526.598 c 4
 182.196 519.678 177.642 515.346 174.831 511.514 c 4
 171.215 506.587 171 503.254 171 499 c 4
 171 286 l 4
 436 532 l 4
 456.53 526.949 477.704 526 498 526 c 4
 528 526 l 4
 305 316 l 4
 565 -1 l 4
 562.299 -0.982364 559.597 -0.973546 556.896 -0.973546 c 4
 501.401 -0.973546 457 -5 457 -5 c 4
 241 265 l 4
 171 200 l 4
 171 -1 l 4
 87 -1 l 4
 87 529 l 4
EndSplineSet
Validated: 1
EndChar

StartChar: uparrow
Encoding: 8593 8593 266
Width: 600
Flags: MW
LayerCount: 2
Fore
SplineSet
78 468 m 1
 295 742 l 1
 320 742 l 1
 521 466 l 1
 463 427 l 1
 340 593.819 l 1
 340 -39 l 1
 263 -39 l 1
 263 594.4 l 1
 128 427 l 1
 78 468 l 1
EndSplineSet
Validated: 1
EndChar

StartChar: visiblespace
Encoding: 9251 9251 268
Width: 600
Flags: MW
LayerCount: 2
Fore
SplineSet
66 81 m 0
 120 81 l 0
 120 -24 l 0
 478 -24 l 0
 478 81 l 0
 534 81 l 0
 534 -76 l 0
 66 -76 l 0
 66 81 l 0
EndSplineSet
Validated: 1
EndChar

StartChar: r.serif
Encoding: 65540 -1 269
Width: 600
Flags: MW
LayerCount: 2
Fore
SplineSet
85 529 m 4
 244 529 l 4
 241 427 l 4
 273.808 493.49 340.052 541.496 416.28 541.496 c 4
 465.614 541.496 515.474 521.475 553 484 c 4
 514 404 l 4
 505.563 412.004 501.879 420.625 495.327 429.3 c 4
 481.446 447.681 452.813 469.759 411.236 469.759 c 4
 371.703 469.759 324.688 449.297 282.848 390.04 c 4
 241.434 331.385 241 295.589 241 267 c 4
 241 62 l 4
 352 62 l 4
 352 -1 l 4
 83 -1 l 4
 83 62 l 4
 158 62 l 4
 158 462 l 4
 85 462 l 4
 85 529 l 4
EndSplineSet
Validated: 1
EndChar

StartChar: hungarumlaut.cap
Encoding: 65541 -1 270
Width: 600
Flags: MW
LayerCount: 2
Fore
SplineSet
486 939 m 0
 540 864 l 0
 371 747 l 0
 334 795 l 0
 486 939 l 0
280 939 m 0
 334 864 l 0
 165 747 l 0
 128 795 l 0
 280 939 l 0
EndSplineSet
Validated: 1
EndChar

StartChar: uni2074
Encoding: 8308 8308 271
Width: 600
Flags: MW
LayerCount: 2
Fore
SplineSet
360 743 m 0
 405 743 l 0
 405 459 l 0
 478 459 l 0
 478 404 l 0
 405 404 l 0
 405 292 l 0
 339 292 l 0
 339 405 l 0
 128 405 l 0
 128 446 l 0
 360 743 l 0
340 630 m 0
 204 459 l 0
 340 459 l 0
 340 630 l 0
EndSplineSet
Validated: 1
EndChar

StartChar: fraction
Encoding: 8260 8260 274
Width: 600
Flags: MW
LayerCount: 2
Fore
SplineSet
98 -19 m 29
 461 770 l 29
 516 739 l 29
 152 -49 l 29
 98 -19 l 29
EndSplineSet
Validated: 1
EndChar

StartChar: lslash
Encoding: 322 322 275
Width: 600
Flags: MW
LayerCount: 2
Fore
SplineSet
108 770 m 1
 342 770 l 1
 342 428.9 l 1
 417 455 l 2
 429 459 437 464 448 472 c 1
 448 387 l 1
 342 351.164 l 1
 342 67 l 1
 498 67 l 1
 498 0 l 1
 101 0 l 1
 101 67 l 1
 258 67 l 1
 258 322.765 l 1
 167 292 l 1
 167 368 l 1
 258 399.668 l 1
 258 703 l 1
 108 703 l 1
 108 770 l 1
EndSplineSet
Validated: 1
EndChar

StartChar: Lslash
Encoding: 321 321 276
Width: 600
Flags: MW
LayerCount: 2
Fore
SplineSet
95 722 m 1
 189 722 l 1
 189.172 720.866 189.256 719.721 189.256 718.572 c 0
 189.256 703.818 179 701.431 179 683 c 2
 179 380.515 l 1
 371 443 l 2
 381.223 446.327 390.329 449.186 401 454 c 1
 401 380 l 1
 179 308.815 l 1
 179 69 l 1
 527 69 l 1
 527 -1 l 1
 95 -1 l 1
 95 281.88 l 1
 33 262 l 1
 33 333 l 1
 95 353.178 l 1
 95 722 l 1
EndSplineSet
Validated: 1
EndChar

StartChar: Eng
Encoding: 330 330 277
Width: 600
Flags: MW
LayerCount: 2
Fore
SplineSet
69 0 m 0
 69 722 l 0
 154 722 l 0
 154 628 l 0
 195 692 266 735 342 735 c 0
 413 735 477 697 508 629 c 0
 529 583 530 537 530 491 c 0
 530 203 l 0
 530 163 529 123 510 83 c 0
 482 22 422 -12 355 -12 c 0
 319 -12 284 -3 253 16 c 0
 294 88 l 0
 301 84 302 78 306 75 c 0
 309 73 330 60 357 60 c 0
 390 60 420 78 435 111 c 0
 448 138 448 170 448 197 c 0
 448 489 l 0
 448 523 448 562 430 597 c 0
 410 639 371 662 327 662 c 0
 265 662 206 613 180 577 c 0
 158 545 154 516 154 478 c 0
 154 0 l 0
 69 0 l 0
EndSplineSet
Validated: 5
EndChar

StartChar: dcroat
Encoding: 273 273 278
Width: 600
Flags: MW
LayerCount: 2
Fore
SplineSet
280.638 475.041 m 0
 219.729 475.041 134.873 433.439 134.873 282.731 c 0
 134.873 108.363 223.935 61.8091 283.87 61.8091 c 0
 339.081 61.8091 393.871 98.7178 414.26 162.214 c 0
 422.843 188.943 425.29 218.613 425.29 258.526 c 0
 425.29 317.62 422.953 347.168 416.391 371.787 c 0
 395.442 450.383 327.053 475.041 280.638 475.041 c 0
510.157 630 m 1
 511 49 l 2
 511.023 32.976 511.825 16.2095 516 0 c 1
 433 0 l 1
 428.758 12.8474 428 26.4226 428 39 c 2
 428 85 l 1
 394.754 25.5822 332.198 -11.7426 264.502 -11.7426 c 0
 162.172 -11.7426 53.9989 73.6686 53.9989 269.088 c 0
 53.9989 471.408 175.85 543.089 276.756 543.089 c 0
 349.905 543.089 406.551 506.411 432 452 c 1
 432 630 l 1
 344 630 l 1
 344 692 l 1
 432 692 l 1
 432 771 l 1
 521 771 l 1
 521.429 763.115 517.033 757.358 514.644 753.665 c 0
 510.515 747.282 509.991 744.04 510 738 c 2
 510.067 692 l 1
 561 692 l 1
 561 630 l 1
 510.157 630 l 1
EndSplineSet
Validated: 1
EndChar

StartChar: bullet
Encoding: 8226 8226 287
Width: 600
Flags: MW
LayerCount: 2
Fore
SplineSet
405.001 343.496 m 0
 405.001 290.47 361.103 246.968 306.461 246.968 c 0
 251.887 246.968 207.967 290.437 207.967 343.507 c 0
 207.967 396.512 251.854 440.001 306.474 440.001 c 0
 361.085 440.001 405.001 396.528 405.001 343.496 c 0
EndSplineSet
Validated: 1
EndChar

StartChar: florin
Encoding: 402 402 288
Width: 600
Flags: MW
LayerCount: 2
Fore
SplineSet
566 719 m 1
 528 642 l 1
 524.387 642.014 519.832 644.287 518.495 650.917 c 0
 517.585 655.43 518.381 658.903 515.477 665.038 c 0
 504.735 687.73 476.304 714.31 438.015 714.31 c 0
 408.828 714.31 375.637 697.84 356.674 655.963 c 0
 340.302 619.806 338.928 575.492 336 539 c 2
 328.378 444 l 1
 471 444 l 1
 471 378 l 1
 323.082 378 l 1
 295 28 l 2
 290.863 -23.5551 284.654 -73.9088 257.475 -120.242 c 0
 224.265 -176.855 172.982 -203.002 125.302 -203.002 c 0
 89.2414 -203.002 55.0861 -188.068 31 -162 c 1
 78 -88 l 1
 84.9954 -91.4507 87.1891 -97.9286 90.1488 -102.751 c 0
 96.5551 -113.189 111.389 -124.965 131.92 -124.965 c 0
 150.936 -124.965 174.229 -114.524 191.263 -83.2958 c 0
 210.753 -47.5643 214.363 -4.0862 217 31 c 2
 243.075 378 l 1
 103 378 l 1
 103 444 l 1
 248.035 444 l 1
 256 550 l 2
 259.285 593.711 263.037 638.828 284.817 682.438 c 0
 316.683 746.244 375.812 780 436.757 780 c 0
 486.409 780 533.918 757.602 566 719 c 1
EndSplineSet
Validated: 1
EndChar

StartChar: dagger
Encoding: 8224 8224 289
Width: 600
Flags: MW
LayerCount: 2
Fore
SplineSet
261 756 m 1
 339 756 l 1
 339 529 l 1
 531 529 l 1
 531 460 l 1
 339 460 l 1
 339 -175 l 1
 261 -175 l 1
 261 460 l 1
 67 460 l 1
 67 529 l 1
 261 529 l 1
 261 756 l 1
EndSplineSet
Validated: 1
EndChar

StartChar: daggerdbl
Encoding: 8225 8225 290
Width: 600
Flags: MW
LayerCount: 2
Fore
SplineSet
261 756 m 1
 339 756 l 1
 339 529 l 1
 531 529 l 1
 531 460 l 1
 339 460 l 1
 339 140 l 1
 531 140 l 1
 531 71 l 1
 339 71 l 1
 339 -175 l 1
 261 -175 l 1
 261 71 l 1
 67 71 l 1
 67 140 l 1
 261 140 l 1
 261 460 l 1
 67 460 l 1
 67 529 l 1
 261 529 l 1
 261 756 l 1
EndSplineSet
Validated: 1
EndChar

StartChar: trademark
Encoding: 8482 8482 291
Width: 600
VWidth: 1157
Flags: MW
LayerCount: 2
Fore
SplineSet
286.552 735.33 m 5
 286.552 689.01 l 5
 182.332 689.01 l 5
 182.332 370.56 l 5
 130.222 370.56 l 5
 130.222 689.01 l 5
 30.6338 689.01 l 5
 30.6338 735.33 l 5
 286.552 735.33 l 5
360.664 735.33 m 5
 444.04 567.42 l 5
 466.042 609.108 466.042 609.108 487.465 651.375 c 4
 508.888 693.642 508.888 693.642 530.89 735.33 c 5
 569.104 735.33 l 5
 569.104 370.56 l 5
 520.468 370.56 l 5
 520.468 619.53 l 5
 503.098 588.264 503.098 588.264 485.149 556.419 c 4
 467.2 524.574 467.2 524.574 450.988 494.466 c 5
 432.46 495.624 l 5
 368.77 619.53 l 5
 368.77 370.56 l 5
 320.134 370.56 l 5
 320.134 735.33 l 5
 360.664 735.33 l 5
EndSplineSet
Validated: 1
EndChar

StartChar: zero.noslash
Encoding: 65542 -1 292
Width: 600
Flags: MW
LayerCount: 2
Fore
SplineSet
517.025 357.799 m 4
 517.025 137.688 423.592 -13.0208 297.523 -13.0208 c 4
 183.255 -13.0208 82.8194 113.451 82.8194 341.437 c 4
 82.8194 574.873 173.246 727.004 299.955 727.004 c 4
 420.815 727.004 517.025 585.161 517.025 357.799 c 4
299.205 656.004 m 4
 273.981 656.004 230.75 644.394 201.424 580.18 c 4
 177.708 528.251 159.966 454.416 159.966 351.701 c 4
 159.966 277.625 175.139 200.382 194.564 153.681 c 4
 226.53 76.8272 272.306 60.9815 302.777 60.9815 c 4
 329.251 60.9815 369.189 73.0652 399.83 130.196 c 4
 432.501 191.111 442.125 283.781 442.125 342.506 c 4
 442.125 419.575 425.889 514.517 403.194 568.433 c 4
 372.393 641.605 328.293 656.004 299.205 656.004 c 4
EndSplineSet
Validated: 1
EndChar

StartChar: alpha
Encoding: 945 945 294
Width: 600
Flags: MW
LayerCount: 2
Fore
SplineSet
267 473 m 0
 189 473 120 428 120 269 c 0
 120 123 195 70 266 70 c 0
 271 70 278 70 284 70 c 0
 333 70 403 81 403 272 c 0
 403 400 363 473 267 473 c 0
559 9 m 9
 466 9 l 17
 466 9 439 58 439 80 c 0
 439 81 l 1
 417 21 324 -5 267 -5 c 0
 207 -5 42 28 41 266 c 1
 41 270 41 273 41 277 c 0
 41 534 225 546 267 547 c 1
 395 547 431 457 431 457 c 25
 445 533 l 25
 517 516 l 17
 487 385 l 1
 477.5 348.5 472.25 306.75 472.25 264.875 c 0
 472.25 223 477.5 181 489 144 c 0
 512 70 559 9 559 9 c 9
EndSplineSet
Validated: 1
EndChar

StartChar: beta
Encoding: 946 946 295
Width: 600
Flags: MW
LayerCount: 2
Fore
SplineSet
526 202 m 12
 526 92 423 3 322 1 c 4
 321 1 320 1 319 1 c 4
 214 1 152 88 152 88 c 5
 152 -156 l 5
 75 -156 l 5
 75 462 l 6
 75 510 76 560 98 609 c 4
 132 684 203 725 278 725 c 4
 388 725 477 638 477 536 c 4
 477 475 444 420 390 393 c 5
 472 368 526 291 526 202 c 12
322 72 m 5
 392 72 447 125 447 202 c 4
 447 258 416 304 374 329 c 4
 343 348 319 351 283 351 c 6
 206 351 l 5
 206 419 l 5
 281 419 l 6
 378 419 395 496 395 538 c 4
 395 609 347 652 282 652 c 4
 246 652 210 643 184 607 c 4
 153 563 153 511 153 463 c 6
 151 142 l 5
 174 136 247 72 315 72 c 4
 317 72 320 72 322 72 c 5
EndSplineSet
Validated: 1
EndChar

StartChar: gamma
Encoding: 947 947 296
Width: 600
Flags: MW
LayerCount: 2
Fore
SplineSet
273 2 m 0
 58 529 l 0
 162 529 l 0
 163 519 157 513 157 504 c 0
 157 501 158 498 159 495 c 0
 314 105 l 0
 415 389 l 0
 431 435 446 482 455 530 c 0
 542 530 l 0
 526 478 508 427 489 377 c 0
 351 0 l 0
 346 -12 345 -31 345 -54 c 0
 345 -87.9144 347 -130.253 347 -169 c 9
 270 -169 l 25
 271.17 -102.31 273 2 273 2 c 0
EndSplineSet
Validated: 1
EndChar

StartChar: delta
Encoding: 948 948 297
Width: 600
Flags: MW
LayerCount: 2
Fore
SplineSet
302 443 m 0
 224 443 152 377 152 257 c 0
 152 136 225 63 306 63 c 0
 380 63 452 126 452 249 c 0
 452 383 375 443 302 443 c 0
453 685 m 1
 390 685 l 1
 180 683 l 1
 414 484 l 1
 500 423 532 317 532 252 c 0
 532 91 425 -3 305 -3 c 0
 178 -3 68 103 68 251 c 0
 68 398 151 508 273 508 c 0
 275 508 276 508 278 508 c 0
 278 510 151 618 69 683 c 5
 68 749 l 5
 499 749 l 1
 499 654 l 1
 453 685 l 1
EndSplineSet
Validated: 1
EndChar

StartChar: epsilon
Encoding: 949 949 298
Width: 600
Flags: MW
LayerCount: 2
Fore
SplineSet
474.193 143.06 m 4
 510.5 89.2803 l 4
 455.55 32.6191 398.637 -0.0322266 315.23 -0.0322266 c 4
 193.556 -0.0322266 84.6367 63.3506 84.6367 153.623 c 4
 84.6367 211.244 112.112 267.903 176.875 278.467 c 4
 125.85 292.873 87.5811 327.445 87.5811 378.344 c 4
 87.5811 457.092 173.931 532.959 287.756 532.959 c 4
 364.293 532.959 444.756 507.029 496.762 452.289 c 4
 457.512 399.471 l 4
 412.375 444.607 349.574 456.132 286.774 456.132 c 4
 219.068 456.132 171.969 423.479 171.969 378.344 c 4
 171.969 343.771 192.574 313.04 314.25 313.04 c 4
 326.024 313.04 338.781 313.04 351.537 314 c 4
 351.537 233.331 l 4
 332.894 235.253 333.875 236.212 314.25 236.212 c 4
 171.969 236.212 168.043 178.592 168.043 151.702 c 4
 168.043 108.487 245.562 75.835 314.25 74.874 c 4
 402.562 74.874 437.887 114.249 474.193 143.06 c 4
EndSplineSet
EndChar

StartChar: zeta
Encoding: 950 950 299
Width: 600
Flags: MW
LayerCount: 2
Fore
SplineSet
389 -101 m 5
 408 -56 431 7 431 7 c 4
 431 7 87 27 87 245 c 4
 87 246 87 246 87 247 c 4
 89 521 331 639 395 673 c 5
 392 672 369 672 338 672 c 4
 275 672 177 673 123 673 c 5
 100 672 97 659 94 659 c 4
 95 751 l 4
 507 751 l 4
 507 671 l 4
 507 671 182 571 179 249 c 4
 179 248 179 248 179 247 c 4
 179 59 497 93 503 85 c 4
 511 74 514 61 514 48 c 4
 514 -6 463 -75 457 -131 c 4
 457 -132 409 -134 381 -134 c 4
 369 -134 361 -134 361 -133 c 4
 362 -129 371 -129 379 -120 c 5
 388 -108 386 -108 389 -101 c 5
EndSplineSet
Validated: 1
EndChar

StartChar: eta
Encoding: 951 951 300
Width: 600
Flags: MW
LayerCount: 2
Fore
SplineSet
97 488 m 1
 82 529 l 25
 182 529 l 25
 182 436 l 0
 221 495 286 542 358 542 c 0
 418 542 473 509 499 449 c 0
 518 406 518 362 518 321 c 1
 518 -156 l 25
 436 -156 l 25
 436 319 l 2
 436 356 436 402 407 436 c 0
 388 459 362 470 335 470 c 0
 279 470 228 423 208 396 c 0
 186 367 182 341 182 305 c 2
 182 0 l 25
 97 0 l 25
 97 488 l 1
EndSplineSet
Validated: 1
EndChar

StartChar: theta
Encoding: 952 952 301
Width: 600
Flags: MW
LayerCount: 2
Fore
SplineSet
275 746 m 0
 420 746 496 586 496 382 c 0
 496 218 475 2 278 1 c 0
 277.552 0.997509 277.104 0.996265 276.658 0.996265 c 0
 97.8756 0.996265 73 200.443 73 378 c 0
 73 596 137 746 275 746 c 0
414 418 m 1
 414 581 348 672 276 672 c 0
 211 672 156 590 155 417 c 1
 206 417 353 418 414 418 c 1
414 344 m 1
 154 344 l 17
 156 213 174 81 278 81 c 0
 392.325 81 414.035 207.033 414.035 335.015 c 0
 414.035 338.009 414.023 341.005 414 344 c 1
EndSplineSet
Validated: 1
EndChar

StartChar: iota
Encoding: 953 953 302
Width: 600
Flags: MW
LayerCount: 2
Fore
SplineSet
115 532 m 4
 349 532 l 4
 347 140 l 6
 347 83 369 80 411 80 c 5
 412 0 l 5
 398 0 384 -1 371 -1 c 4
 311 -1 265 11 265 141 c 5
 264 150 264 165 264 180 c 4
 264 211 265 246 265 246 c 5
 265 464 l 5
 135 464 l 4
 122 464 116 453 116 453 c 4
 115 532 l 4
EndSplineSet
Validated: 1
EndChar

StartChar: kappa
Encoding: 954 954 303
Width: 600
Flags: MW
LayerCount: 2
Fore
SplineSet
87 529 m 0
 182 529 l 0
 182 528 182 528 182 527 c 0
 182 520 178 516 175 512 c 0
 171 507 171 503 171 499 c 0
 171 286 l 0
 436 532 l 0
 457 527 485 526 505 526 c 0
 535 526 l 0
 310 316 l 0
 565 -1 l 0
 562 -1 560 -1 557 -1 c 0
 502 -1 465 -1 465 -1 c 0
 249 265 l 0
 171 200 l 0
 171 -1 l 0
 87 -1 l 0
 87 529 l 0
EndSplineSet
Validated: 1
EndChar

StartChar: lambda
Encoding: 955 955 304
Width: 600
Flags: MW
LayerCount: 2
Fore
SplineSet
277 489 m 1
 273 523 278 582 258 616 c 0
 232 661 193 672 161 672 c 0
 131 672 106 662 104 662 c 0
 102 744 l 1
 121 744 137 745 152 745 c 0
 252 745 291 727 338 642 c 0
 342 634 344 652 443 243 c 1
 490 94 504 83 536 83 c 0
 538 83 541 83 543 83 c 0
 547 83 547 19 547 -3 c 1
 394 -3 406 81 323 389 c 1
 115 0 l 1
 24 0 l 1
 277 489 l 1
EndSplineSet
Validated: 1
EndChar

StartChar: mu
Encoding: 956 956 305
Width: 600
Flags: MW
LayerCount: 2
Fore
SplineSet
494 96 m 1
 494 71 509 68 518 68 c 0
 521 68 523 68 524 68 c 0
 526 68 l 1
 527 54 527 0 527 0 c 1
 453 0 l 1
 438 0 414 16 414 60 c 1
 414 139 l 1
 414 126 360 0 252 0 c 0
 221 0 175 15 154 64 c 1
 154 32 l 0
 154 -168 l 1
 72 -168 l 1
 72 223 l 1
 72 528 l 1
 151 528 l 1
 151 252 l 1
 151 250 l 2
 151 118 196 84 251 84 c 0
 319 84 414 180 414 281 c 2
 414 528 l 1
 494 528 l 1
 494 96 l 1
EndSplineSet
Validated: 1
EndChar

StartChar: nu
Encoding: 957 957 306
Width: 600
Flags: MW
LayerCount: 2
Fore
SplineSet
56 540 m 0
 156 540 l 0
 158 531 152 524 152 517 c 0
 152 513 152 506 307 113 c 1
 440 290 472 397 472 460 c 0
 472 511 451 533 447 540 c 1
 544 540 l 1
 544 540 554 508 554 468 c 0
 554 441 554 405 539 363 c 1
 475 178 331 -4 331 -4 c 0
 266 -4 l 0
 56 540 l 0
EndSplineSet
Validated: 1
EndChar

StartChar: xi
Encoding: 958 958 307
Width: 600
Flags: MW
LayerCount: 2
Fore
SplineSet
409 -31 m 0
 382 37 104 -23 104 197 c 0
 104 307 185 388 261 391 c 1
 194 429 170 470 170 508 c 0
 170 571 235 627 280 648 c 1
 276 647 256 647 229 647 c 0
 201 647 164 647 124 647 c 1
 100 646 97 633 94 633 c 0
 95 725 l 0
 507 725 l 0
 507 645 l 0
 507 645 430 645 425 645 c 1
 348 636 261 569 261 511 c 0
 261 476 293 445 376 432 c 1
 473 432 l 25
 473 343 l 25
 380 342 l 1
 373 342 367 342 360 342 c 0
 267 342 187 309 187 206 c 0
 187 204 187 201 187 199 c 1
 190 65 395 117 478 30 c 4
 489 19 498 4 498 -9 c 0
 498 -49 461 -90 450 -140 c 9
 360 -141 l 17
 377 -102 410 -60 410 -37 c 0
 410 -35 410 -33 409 -31 c 0
EndSplineSet
Validated: 1
EndChar

StartChar: omicron
Encoding: 959 959 308
Width: 600
Flags: MW
LayerCount: 2
Fore
SplineSet
543 262 m 4
 543 87 430 -14 305 -14 c 4
 172 -14 57 100 57 261 c 4
 57 425 172 541 307 541 c 4
 427 541 543 445 543 262 c 4
302 470 m 4
 221 470 145 398 145 268 c 4
 145 137 222 58 306 58 c 4
 383 58 459 126 459 259 c 4
 459 404 378 470 302 470 c 4
EndSplineSet
Validated: 1
EndChar

StartChar: pi
Encoding: 960 960 309
Width: 600
Flags: MW
LayerCount: 2
Fore
SplineSet
39 541 m 1
 560 541 l 1
 560 462 l 1
 495 462 l 1
 495 77 l 1
 524 77 l 5
 529 82 l 5
 529 82 528 32 528 -0 c 5
 456 -0 l 2
 420 0 413 23 413 40 c 2
 413 462 l 1
 189 462 l 1
 189 -0 l 1
 103 -0 l 1
 103 462 l 1
 39 462 l 1
 39 541 l 1
EndSplineSet
Validated: 1
EndChar

StartChar: rho
Encoding: 961 961 310
Width: 600
Flags: MW
LayerCount: 2
Fore
SplineSet
74 337 m 2
 74 456 138 541 289 541 c 0
 427 541 526 443 526 256 c 0
 526 62 396 -8 288 -8 c 0
 206 -8 160 43 152 51 c 0
 152 -193 l 0
 76 -193 l 0
 74 337 l 2
288 470 m 0
 234 470 185 441 165 393 c 0
 153 366 151 334 151 289 c 0
 151 212 151 179 166 143 c 0
 187 95 230 66 287 66 c 4
 337 66 446 87 446 253 c 0
 446 446 334 470 288 470 c 0
EndSplineSet
Validated: 1
EndChar

StartChar: sigma
Encoding: 963 963 311
Width: 600
Flags: MW
LayerCount: 2
Fore
SplineSet
525 262 m 4
 525 87 412 -14 287 -14 c 4
 154 -14 39 100 39 261 c 4
 39 422 151 538 283 541 c 6
 284 541 l 4
 286 541 287 541 289 541 c 6
 562 541 l 5
 562 468 l 5
 454 468 l 5
 497 421 525 352 525 262 c 4
283 470 m 5
 202 470 127 398 127 268 c 4
 127 137 204 58 288 58 c 4
 365 58 441 126 441 259 c 4
 441 379 388 461 283 470 c 5
EndSplineSet
Validated: 1
EndChar

StartChar: tau
Encoding: 964 964 312
Width: 600
Flags: MW
LayerCount: 2
Fore
SplineSet
99 532 m 5
 543 532 l 4
 543 463 l 4
 334 463 l 4
 332 140 l 4
 332 87 395 76 441 76 c 4
 467 76 488 80 488 80 c 4
 489 7 l 4
 489 7 463 2 429 2 c 4
 358 2 250 22 250 141 c 5
 249 150 249 164 249 180 c 4
 249 211 250 246 250 246 c 5
 250 464 l 5
 209 464 168 465 135 465 c 4
 99 465 71 464 59 457 c 5
 99 532 l 5
EndSplineSet
Validated: 1
EndChar

StartChar: upsilon
Encoding: 965 965 313
Width: 600
Flags: MW
LayerCount: 2
Fore
SplineSet
83 529 m 4
 83 529 134 529 167 529 c 29
 167 234 l 6
 167 229 l 4
 167 172 169 63 292 63 c 4
 367 63 430 138 430 236 c 6
 430 529 l 5
 514 529 l 29
 514 238 l 4
 514 170 492 107 463 70 c 4
 407 -1 349 -14 287 -14 c 4
 218 -14 135 24 103 95 c 4
 82 140 82 188 82 234 c 4
 83 466 l 4
 83 466 52 470 32 472 c 29
 46 529 l 29
 83 529 l 4
EndSplineSet
Validated: 1
EndChar

StartChar: Xi
Encoding: 926 926 322
Width: 600
Flags: MW
LayerCount: 2
Fore
SplineSet
338 74 m 20
 487 74 l 4
 487 -1 l 4
 112 -1 l 4
 112 75 l 4
 257 75 l 4
 257 75 306 74 338 74 c 20
338 647 m 12
 257 647 l 4
 112 647 l 4
 112 722 l 4
 487 722 l 4
 487 647 l 4
 338 647 l 12
147 415 m 5
 454 415 l 5
 454 340 l 5
 147 340 l 5
 147 415 l 5
EndSplineSet
Validated: 1
EndChar

StartChar: tonos
Encoding: 900 900 328
Width: 600
VWidth: 0
Flags: M
LayerCount: 2
Fore
SplineSet
382 750 m 21
 272 632 l 13
 197 632 l 29
 265 750 l 29
 382 750 l 21
EndSplineSet
Validated: 1
EndChar

StartChar: sigma1
Encoding: 962 962 346
Width: 600
Flags: MW
LayerCount: 2
Fore
SplineSet
87 286 m 1
 88 388 158 498 251 524 c 0
 305 539 384 541 430 541 c 0
 451 541 465 541 467 541 c 0
 468 541 468 538 468 534 c 0
 468 519 468 484 467 458 c 9
 422.54 457.22 376 456 353 456 c 0
 242 456 176 404 176 281 c 0
 176 220 229 152 273 133 c 0
 359 97 485 108 485 9 c 0
 484 -47 436 -106 429 -133 c 9
 340 -134 l 17
 357 -87 402 -44 402 -16 c 0
 402 47 291 17 191 82 c 0
 149 110 87 200 87 286 c 1
EndSplineSet
Validated: 1
EndChar

StartChar: chi
Encoding: 967 967 347
Width: 600
Flags: MW
LayerCount: 2
Fore
SplineSet
431.753 530.28 m 5
 511.553 530.28 l 5
 348.96 179.8 l 5
 487.612 -97.8799 l 4
 498.585 -119.72 520.53 -122.84 531.502 -122.84 c 4
 539.482 -122.84 l 4
 539.482 -191.48 l 5
 539.482 -191.48 535.492 -191.48 529.508 -191.48 c 4
 505.567 -191.48 444.72 -187.32 416.79 -141.56 c 5
 305.07 89.3203 l 5
 174.397 -191.48 l 5
 85.6201 -191.48 l 5
 261.18 174.6 l 5
 138.487 397.16 l 4
 101.58 455.4 90.6074 461.64 74.6475 461.64 c 4
 70.6572 461.64 65.6699 461.64 59.6846 461.64 c 13
 59.6846 539.64 l 5
 67.665 539.64 77.6396 539.64 86.6172 539.64 c 4
 114.548 539.64 146.468 534.44 174.397 492.84 c 5
 184.372 478.28 231.255 415.88 306.067 263 c 5
 431.753 530.28 l 5
EndSplineSet
Validated: 1
EndChar

StartChar: psi
Encoding: 968 968 348
Width: 600
Flags: MW
LayerCount: 2
Fore
SplineSet
88 529 m 2
 167 529 l 1
 167 234 l 1
 167 229 l 2
 167 178 169 84 259 66 c 1
 259 617 l 1
 338 646 l 1
 338 73 l 1
 391 96 430 159 430 236 c 2
 430 529 l 1
 509 529 l 1
 509 238 l 2
 509 170 484 111 455 74 c 0
 415 23 380 0 338 -9 c 1
 338 -189 l 5
 259 -189 l 5
 259 -12 l 1
 197 -3 136 34 108 95 c 0
 87 140 87 188 87 234 c 0
 88 470 88 529 88 529 c 2
EndSplineSet
Validated: 1
EndChar

StartChar: phi
Encoding: 966 966 349
Width: 600
Flags: MW
LayerCount: 2
Fore
SplineSet
266 592 m 1
 341 604 l 1
 341 537 l 1
 445 518 543 424 543 262 c 0
 543 107 448 10 341 -10 c 1
 341 -192 l 5
 266 -192 l 5
 266 -11 l 1
 150 9 57 116 57 261 c 0
 57 407 150 515 266 537 c 1
 266 592 l 1
266 60 m 1
 266 469 l 1
 200 450 140 378 140 268 c 0
 140 159 199 81 266 60 c 1
341 466 m 1
 341 61 l 1
 402 81 463 150 463 259 c 0
 463 375 401 444 341 466 c 1
EndSplineSet
Validated: 1
EndChar

StartChar: omega
Encoding: 969 969 350
Width: 600
Flags: MW
LayerCount: 2
Fore
SplineSet
189 74 m 0
 247 74 261 158 262 245 c 2
 262 363 l 1
 339 363 l 5
 340 245 l 6
 340 157 352 74 411 74 c 0
 440 74 454 100 468 144 c 0
 470 150 477 191 477 266 c 0
 477 331 471 423 451 540 c 1
 531 540 l 1
 537 506 561 395 561 276 c 0
 561 204 552 129 525 67 c 0
 505 22 453 -2 412 -2 c 0
 411 -2 411 -2 410 -2 c 0
 383 -2 334 16 300 51 c 1
 267 16 217 -2 190 -2 c 0
 189 -2 189 -2 188 -2 c 0
 147 -2 95 22 75 67 c 0
 48 129 39 204 39 276 c 0
 39 395 63 506 69 540 c 1
 150 540 l 1
 129 421 123 329 123 264 c 0
 123 190 130 150 132 144 c 0
 146 100 161 74 189 74 c 0
EndSplineSet
Validated: 1
EndChar

StartChar: Lambda
Encoding: 923 923 352
Width: 600
Flags: MW
LayerCount: 2
Fore
SplineSet
406 211 m 0
 286 549 l 0
 177 211 l 0
 107 -1 l 0
 27 -1 l 0
 282 735 l 0
 291 735 l 0
 570 0 l 0
 486 0 l 0
 406 211 l 0
EndSplineSet
Validated: 1
EndChar

StartChar: Delta
Encoding: 916 916 353
Width: 600
Flags: MW
LayerCount: 2
Fore
SplineSet
27 0 m 21
 282 735 l 5
 291 735 l 5
 570 0 l 5
 27 0 l 21
133 79 m 5
 456 79 l 5
 286 549 l 5
 133 79 l 5
EndSplineSet
Validated: 1
EndChar

StartChar: Gamma
Encoding: 915 915 355
Width: 600
Flags: MW
LayerCount: 2
Fore
SplineSet
155 414 m 12
 155 340 l 4
 155 72 l 12
 156 0 l 29
 78 0 l 29
 78 723 l 29
 521 723 l 29
 521 651 l 29
 155 651 l 4
 155 414 l 12
EndSplineSet
Validated: 1
EndChar

StartChar: Theta
Encoding: 920 920 356
Width: 600
Flags: MW
LayerCount: 2
Fore
SplineSet
301 656 m 0
 143 656 127 513 127 372 c 0
 127 185 193 74 307 74 c 3
 412 74 476 166 476 373 c 0
 476 510 452 656 301 656 c 0
303 0 m 0
 88 0 44 216 44 372 c 4
 44 571 109 732 302 732 c 0
 474 732 556 594 556 373 c 0
 556 215 527 0 303 0 c 0
434 412 m 1
172 411 m 1
434 332 m 1
 172 332 l 9
 172 411 l 25
 172 411 370 412 434 412 c 9
 434 332 l 1
EndSplineSet
Validated: 1
EndChar

StartChar: Pi
Encoding: 928 928 357
Width: 600
Flags: MW
LayerCount: 2
Fore
SplineSet
155 414 m 1
 155 340 l 1
 155 72 l 1
 156 0 l 1
 78 0 l 1
 78 723 l 1
 444 723 l 1
 521 723 l 1
 521 651 l 1
 521 0 l 1
 444 0 l 1
 444 651 l 1
 155 651 l 1
 155 414 l 1
EndSplineSet
Validated: 1
EndChar

StartChar: Phi
Encoding: 934 934 358
Width: 600
Flags: MW
LayerCount: 2
Fore
SplineSet
302 720 m 0
 442 720 590 585 590 391 c 0
 590 197 443 105 339 81 c 1
 339 0 l 1
 264 0 l 1
 264 80 l 1
 152 104 10 207 10 388 c 0
 10 586 150 720 302 720 c 0
260 157 m 1
 260 649 l 1
 190 626 88 531 88 390 c 0
 88 249 189 182 260 157 c 1
343 648 m 1
 343 157 l 1
 408 182 514 252 514 392 c 0
 514 541 407 621 343 648 c 1
EndSplineSet
Validated: 1
EndChar

StartChar: Chi
Encoding: 935 935 359
Width: 600
Flags: MW
LayerCount: 2
Fore
SplineSet
427 722 m 1
 508 722 l 1
 339 371 l 1
 531 1 l 1
 440 1 l 1
 296 281 l 1
 159 1 l 1
 72 1 l 1
 254 367 l 1
 73 722 l 1
 159 722 l 1
 296 455 l 1
 427 722 l 1
EndSplineSet
Validated: 1
EndChar

StartChar: Sigma
Encoding: 931 931 362
Width: 600
Flags: MW
LayerCount: 2
Fore
SplineSet
255 354 m 1
 87 665 l 0
 86 722 l 0
 532 722 l 0
 532 649 l 0
 182 649 l 0
 337 353 l 1
 170 51 l 0
 511 51 l 0
 525 51 531 58 542 58 c 0
 543 58 545 58 546 58 c 0
 546 -21 l 0
 68 -21 l 0
 68 27 l 0
 255 354 l 1
338 354 m 1
EndSplineSet
Validated: 1
EndChar

StartChar: Psi
Encoding: 936 936 363
Width: 600
Flags: MW
LayerCount: 2
Fore
SplineSet
263 688 m 1
 343 688 l 1
 343 283 l 1
 432 302 447 402 447 456 c 2
 447 723 l 1
 529 723 l 1
 529 458 l 2
 529 404 525 360 494 310 c 0
 457 250 399 225 343 215 c 1
 343 0 l 1
 263 0 l 1
 263 213 l 1
 201 222 148 246 106 310 c 0
 76 356 72 403 72 454 c 2
 73 723 l 1
 73 723 121 723 154 723 c 1
 154 456 l 2
 154 405 174 299 263 281 c 1
 263 688 l 1
EndSplineSet
Validated: 1
EndChar

StartChar: Omega
Encoding: 937 937 364
Width: 600
Flags: MW
LayerCount: 2
Fore
SplineSet
176 75 m 1
 119 131 65 254 65 329 c 1
 65 681 181 723 301 723 c 1
 415 723 534 677 534 331 c 0
 534 242 492 135 436 75 c 9
 535 75 l 25
 535 0 l 25
 353 0 l 25
 353 74 l 17
 383 102 455 241 455 331 c 0
 455 550 420 654 301 654 c 0
 181 654 144 551 144 332 c 0
 144 242 222 102 253 75 c 9
 253 0 l 25
 65 0 l 25
 65 75 l 25
 176 75 l 1
EndSplineSet
Validated: 1
EndChar

StartChar: anoteleia
Encoding: 903 903 366
Width: 600
Flags: MW
LayerCount: 2
Fore
SplineSet
355 474 m 4
 355 438 324 408 286 408 c 4
 248 408 218 438 218 475 c 4
 218 511 248 541 286 541 c 4
 324 541 355 510 355 474 c 4
EndSplineSet
Validated: 1
EndChar

StartChar: afii10018
Encoding: 1041 1041 368
Width: 600
Flags: MW
LayerCount: 2
Fore
SplineSet
66 0 m 1
 66 722.998 l 1
 509 723 l 1
 509 651 l 1
 146 651 l 1
 146 423 l 1
 259 423 l 2
 339 423 388.438 423 447 383 c 0
 505.687 342.914 539.123 283.98 539.123 199.903 c 0
 539.123 125.489 496.411 54.79 418.712 21.7725 c 0
 368.818 0.570312 319.11 0 270 0 c 2
 144 0 l 1
 66 0 l 1
146 71 m 1
 284 71 l 2
 315.204 71 345.804 71.5469 376.985 85.5967 c 0
 426.877 108.078 454.347 156.379 454.347 208.01 c 0
 454.347 260.227 425.928 311.754 372.336 337.19 c 0
 336.297 354.296 300.473 355 264 355 c 2
 146 355 l 1
 146 71 l 1
EndSplineSet
EndChar

StartChar: afii10021
Encoding: 1044 1044 371
Width: 600
Flags: MW
LayerCount: 2
Fore
SplineSet
55.916 68 m 1
 105.684 68 l 1
 107.537 70.8337 109.262 74.48 111 79 c 0
 118.054 97.3396 127.52 124.944 132 146 c 0
 165.954 305.565 178.22 535.488 182.456 651 c 0
 183.702 684.977 174.5 723 174.5 723 c 1
 521 723 l 1
 521 68 l 1
 580.084 68 l 1
 580.084 -168 l 1
 498.084 -168 l 1
 498.084 -1 l 1
 139.916 -1 l 1
 139.916 -167 l 1
 55.916 -167 l 1
 55.916 68 l 1
194.079 68 m 1
 444 68 l 1
 444 651 l 1
 262.396 651 l 1
 253.999 525.263 240.404 255.615 206.5 112 c 0
 203.125 97.7047 199.095 82.6257 194.079 68 c 1
EndSplineSet
EndChar

StartChar: afii10024
Encoding: 1046 1046 373
Width: 600
Flags: MW
LayerCount: 2
Fore
SplineSet
16.999 0 m 1
 221.227 419.251 l 1
 45.0088 723 l 1
 75.0088 723 l 2
 95.3047 723 116.479 723.949 137.007 728.997 c 1
 261 509.405 l 1
 261 722 l 1
 347.002 722 l 1
 347.824 720.356 348.254 718.529 348.254 716.663 c 0
 348.254 707.549 341 706.38 341 694 c 2
 341 515.306 l 1
 457.008 728.997 l 1
 477.531 723.949 498.705 723 519 723 c 2
 549 723 l 1
 381.422 424.647 l 1
 582 0 l 1
 525 0 479 -4 479 -4 c 1
 341 349.871 l 1
 341 0 l 1
 261 0 l 1
 261 336.847 l 1
 119.999 -4 l 1
 119.999 -4 73.999 0 16.999 0 c 1
EndSplineSet
EndChar

StartChar: afii10025
Encoding: 1047 1047 374
Width: 600
Flags: MW
LayerCount: 2
Fore
SplineSet
37.3447 122.711 m 0
 114.139 176.887 l 0
 124.897 162.902 115.021 154.021 125.033 139.676 c 0
 130.253 132.196 183.812 61.2617 276.314 61.2617 c 0
 392.562 61.2617 460.012 129.155 460.012 208.449 c 0
 460.012 294.507 377.338 345.579 242.884 345.579 c 0
 226.011 345.579 209.15 344.711 192.429 343 c 0
 192.429 408 l 0
 286.635 408.15 331.805 420.748 349.262 426.323 c 0
 417.996 448.274 439.025 495.946 439.025 539.93 c 0
 439.025 600.917 384.45 652.425 282.553 652.425 c 0
 221.154 652.425 156 610.161 123.013 572.161 c 0
 71.043 620.161 l 0
 123.013 692.161 206.238 724.29 287.492 724.29 c 0
 429.962 724.29 519.067 639.912 519.067 541.354 c 0
 519.067 471.159 481.239 409.132 400.41 385 c 0
 493.863 357.628 539.013 284.533 539.013 198.625 c 0
 539.013 86.4453 450.365 -12.1904 277.8 -12.1904 c 0
 187.586 -12.1904 80.8623 54.4893 37.3447 122.711 c 0
EndSplineSet
EndChar

StartChar: afii10026
Encoding: 1048 1048 375
Width: 600
Flags: MW
LayerCount: 2
Fore
SplineSet
68 0 m 0
 68 722 l 0
 158 722 l 0
 158.822 720.356 159.252 718.529 159.252 716.663 c 0
 159.252 707.549 152 706.38 152 694 c 0
 152 198.5 l 1
 448 722 l 0
 527.999 722 l 1
 527.999 -1 l 0
 449 -1 l 0
 450 569 l 1
 132.5 0 l 0
 68 0 l 0
EndSplineSet
EndChar

StartChar: afii10029
Encoding: 1051 1051 378
Width: 600
Flags: MW
LayerCount: 2
Fore
SplineSet
18.5508 36 m 1
 46.501 111 l 1
 50.9443 105.644 50.5615 97.916 52.5068 92.1807 c 0
 54.4229 86.5352 73.7881 60.2275 92.9414 60.2275 c 0
 101.119 60.2275 106 66 111 79 c 0
 118.054 97.3396 127.52 124.944 132 146 c 0
 165.954 305.565 178.22 535.488 182.456 651 c 0
 183.702 684.977 174.5 723 174.5 723 c 1
 521 723 l 1
 521 0 l 1
 444 0 l 1
 444 651 l 1
 262.396 651 l 1
 253.999 525.263 240.404 255.615 206.5 112 c 0
 199.411 81.9694 189.426 48.4805 173.5 23 c 0
 158.5 -1 116.178 -8.17969 93.1035 -8.17969 c 0
 64.8154 -8.17969 38.4072 6.74902 18.5508 36 c 1
EndSplineSet
EndChar

StartChar: afii10037
Encoding: 1059 1059 386
Width: 600
Flags: MW
LayerCount: 2
Fore
SplineSet
40 723 m 0
 152.167 723 l 0
 152.818 712.579 147 706.755 147 698.226 c 0
 147 694.853 147.861 692.287 149.167 689 c 0
 328.5 324.702 l 0
 420 582 l 0
 436.209 627.578 451.255 674.532 460 723 c 0
 547 723 l 0
 531.434 671.243 513.035 620.412 494 570 c 0
 329 133 l 0
 317.685 103.033 306.505 75.1133 283.381 49.0947 c 0
 248.107 9.40723 206 -8.17969 170.5 -8.17969 c 0
 126.98 -8.17969 86.3525 6.74902 55.8037 36 c 0
 98.8037 111 l 0
 105.641 105.644 105.051 97.916 108.044 92.1807 c 0
 110.991 86.5352 131.017 60.2275 170.251 60.2275 c 0
 187.001 60.2275 202.436 71.0498 224.474 94.5176 c 0
 241.247 112.379 251.822 134.944 261 156 c 0
 287.5 221.702 l 0
 40 723 l 0
EndSplineSet
EndChar

StartChar: afii10040
Encoding: 1062 1062 389
Width: 600
Flags: MW
LayerCount: 2
Fore
SplineSet
53 0 m 0
 53 722 l 0
 143 722 l 0
 143.822 720.356 144.252 718.529 144.252 716.663 c 0
 144.252 707.549 137 706.38 137 694 c 0
 137 69 l 0
 420 69 l 0
 420 722 l 0
 508 722 l 0
 508.872 720.545 509.336 718.865 509.336 717.137 c 0
 509.336 708.364 501 708.006 501 696 c 0
 501 69.0078 l 0
 582 69 l 1
 582 -168 l 0
 501 -168 l 0
 501 0 l 1
 53 0 l 0
EndSplineSet
EndChar

StartChar: afii10041
Encoding: 1063 1063 390
Width: 600
Flags: MW
LayerCount: 2
Fore
SplineSet
68 501.079 m 2
 68 722 l 1
 159 722 l 1
 159.791 720.163 160.2 718.172 160.2 716.15 c 0
 160.2 709.235 155.631 704.498 152.571 700.195 c 0
 148.296 694.182 148 690.266 148 685 c 2
 148 500.079 l 2
 148 464.221 148.701 429.233 165.336 393.656 c 0
 191.299 338.132 245.805 308 303.067 308 c 0
 359.414 308 413.783 337.423 440.467 392.628 c 0
 458.202 429.319 458.998 465.678 459 502.936 c 2
 459 722 l 1
 536 722 l 1
 536 0 l 1
 536 0 l 1
 459 0 l 1
 459 293.002 l 1
 415.969 256.861 359.277 239.006 301.461 239.006 c 0
 216.265 239.006 136.155 277.056 96.1416 351.296 c 0
 69.4092 400.893 68 450.039 68 501.079 c 2
EndSplineSet
EndChar

StartChar: afii10042
Encoding: 1064 1064 391
Width: 600
Flags: MW
LayerCount: 2
Fore
SplineSet
43.168 0 m 1
 43.168 722 l 1
 133.168 722 l 1
 133.99 720.356 134.42 718.529 134.42 716.663 c 0
 134.42 707.549 127.168 706.38 127.168 694 c 2
 127.168 69 l 1
 265 69 l 1
 265 722 l 1
 353 722 l 1
 353.872 720.545 354.336 718.865 354.336 717.137 c 0
 354.336 708.364 346 708.006 346 696 c 2
 346 69 l 1
 479.168 69 l 1
 479.168 722 l 1
 567.168 722 l 1
 568.04 720.545 568.504 718.864 568.504 717.137 c 0
 568.504 708.363 560.168 708.006 560.168 696 c 2
 560.168 0 l 1
 43.168 0 l 1
EndSplineSet
EndChar

StartChar: afii10043
Encoding: 1065 1065 392
Width: 600
Flags: MW
LayerCount: 2
Fore
SplineSet
18 0 m 1
 18 722 l 1
 108 722 l 1
 108.822 720.356 109.252 718.529 109.252 716.663 c 0
 109.252 707.549 102 706.38 102 694 c 2
 102 69 l 1
 239.998 69 l 1
 239.998 722 l 1
 327.998 722 l 1
 328.87 720.545 329.334 718.865 329.334 717.137 c 0
 329.334 708.364 320.998 708.006 320.998 696 c 2
 320.998 69 l 1
 454 69 l 1
 454 722 l 1
 542 722 l 1
 542.872 720.545 543.336 718.865 543.336 717.137 c 0
 543.336 708.364 535 708.006 535 696 c 2
 535 69 l 1
 582 69 l 1
 582 -168 l 1
 501 -168 l 1
 501 0 l 1
 18 0 l 1
EndSplineSet
EndChar

StartChar: afii10044
Encoding: 1066 1066 393
Width: 600
Flags: MW
LayerCount: 2
Fore
SplineSet
46 649.005 m 1
 46 722 l 1
 236.009 722 l 1
 236 423 l 1
 259 423 l 2
 339 423 402.878 423 461.438 383 c 0
 520.125 342.914 553.562 283.98 553.562 199.903 c 0
 553.562 125.489 510.85 54.79 433.15 21.7725 c 0
 383.257 0.570312 333.549 0 284.438 0 c 2
 156 0 l 1
 156 649.005 l 1
 46 649.005 l 1
236 71 m 1
 298.438 71 l 2
 329.643 71 360.242 71.5469 391.424 85.5967 c 0
 441.315 108.078 468.785 156.379 468.785 208.01 c 0
 468.785 260.227 440.366 311.754 386.774 337.19 c 0
 350.735 354.296 314.911 355 278.438 355 c 2
 236 355 l 1
 236 71 l 1
EndSplineSet
EndChar

StartChar: afii10045
Encoding: 1067 1067 394
Width: 600
Flags: MW
LayerCount: 2
Fore
SplineSet
56 0 m 0
 56 722 l 0
 142.003 722 l 0
 142.824 720.356 143.255 718.529 143.255 716.663 c 0
 143.255 707.549 136 706.38 136 694 c 0
 136 423 l 0
 150.521 423 l 0
 220.922 423 264.429 423 315.962 383 c 0
 367.604 342.914 397.03 283.98 397.03 199.903 c 0
 397.03 125.489 359.443 54.79 291.068 21.7725 c 0
 247.162 0.570312 203.419 0 160.201 0 c 0
 56 0 l 0
136 71 m 0
 172.521 71 l 0
 199.981 71 221.429 71.5469 247.222 85.5967 c 0
 288.491 108.078 311.215 156.379 311.215 208.01 c 0
 311.215 260.227 287.707 311.754 243.375 337.19 c 0
 213.564 354.296 187.018 355 154.922 355 c 0
 136 355 l 0
 136 71 l 0
459.562 0 m 0
 459.562 722 l 0
 545.564 722 l 0
 546.386 720.356 546.816 718.529 546.816 716.663 c 0
 546.816 707.549 539.562 706.38 539.562 694 c 0
 539.562 0 l 1
 459.562 0 l 0
EndSplineSet
EndChar

StartChar: afii10046
Encoding: 1068 1068 395
Width: 600
Flags: MW
LayerCount: 2
Fore
SplineSet
66 0 m 0
 66 722 l 0
 152.003 722 l 0
 152.824 720.356 153.255 718.529 153.255 716.663 c 0
 153.255 707.549 146.003 706.38 146.003 694 c 0
 146 423 l 0
 259 423 l 0
 339 423 388.439 423 447 383 c 0
 505.686 342.914 539.123 283.98 539.123 199.903 c 0
 539.123 125.489 496.411 54.79 418.712 21.7725 c 0
 368.818 0.570312 319.11 0 270 0 c 0
 66 0 l 0
146 71 m 0
 284 71 l 0
 315.204 71 345.804 71.5469 376.985 85.5967 c 0
 426.877 108.078 454.347 156.379 454.347 208.01 c 0
 454.347 260.227 425.928 311.754 372.336 337.19 c 0
 336.297 354.296 300.473 355 264 355 c 0
 146 355 l 0
 146 71 l 0
EndSplineSet
EndChar

StartChar: afii10047
Encoding: 1069 1069 396
Width: 600
Flags: MW
LayerCount: 2
Fore
SplineSet
56.9668 130.998 m 1
 133.967 168.998 l 1
 139.389 165.197 139.251 158.979 139.251 157.623 c 0
 139.251 154.741 138.76 151.856 138.76 148.982 c 0
 138.76 143.595 140.451 140.602 142.751 136.63 c 0
 171.892 86.2988 224.569 52.8301 281.085 52.8301 c 0
 380.997 52.8301 470.141 155.735 473.859 340 c 1
 189.983 340 l 1
 189.983 414 l 1
 470.62 414 l 1
 453.028 570.455 368.727 658.004 274.312 658.004 c 0
 217.649 658.004 160.265 625.113 126.967 569.998 c 1
 66.9668 608.998 l 1
 112.272 683.02 192.75 728 278.857 728 c 0
 397.789 728 553 638.147 553 359.191 c 0
 553 70.1602 390.64 -12.002 278.349 -12.002 c 0
 182.425 -12.002 95.791 43.9561 56.9668 130.998 c 1
EndSplineSet
EndChar

StartChar: afii10048
Encoding: 1070 1070 397
Width: 600
Flags: MW
LayerCount: 2
Fore
SplineSet
29.502 0 m 1
 29.502 722 l 1
 115.504 722 l 1
 116.326 720.356 116.756 718.529 116.756 716.663 c 0
 116.756 707.549 109.502 706.38 109.502 694 c 2
 109.502 414 l 1
 191.364 414 l 1
 204.492 656.271 309.835 730 385.838 730 c 0
 445.089 730 506.978 686.67 542.674 593.902 c 0
 572.362 516.748 576.008 427.05 576.008 359.504 c 0
 576.008 296.095 572.555 206.273 543.637 128.645 c 0
 507.803 32.457 445.144 -11.0146 386.385 -11.0146 c 0
 305.276 -11.0146 195.966 73.7297 190.239 340 c 1
 109.502 340 l 1
 109.502 0 l 1
 29.502 0 l 1
270 372.659 m 0
 270 143.053 333.992 67.9873 386.147 67.9873 c 0
 417.346 67.9873 453.27 95.4453 474.725 165.717 c 0
 493.728 227.951 495.479 301.614 495.479 348.897 c 0
 495.479 410.01 493.104 479.154 477.434 539.849 c 0
 455.825 623.543 416.174 654.01 383.275 654.01 c 0
 334.556 654.01 270 587.911 270 372.659 c 0
EndSplineSet
EndChar

StartChar: afii10049
Encoding: 1071 1071 398
Width: 600
Flags: MW
LayerCount: 2
Fore
SplineSet
52 0 m 0
 219 322 l 0
 131.501 345.903 71.8574 428.394 71.8574 523.979 c 0
 71.8574 596.481 107.552 663.965 174.012 697.719 c 0
 219.752 720.95 265.333 722 312 722 c 0
 525 722 l 0
 525 0 l 0
 443 0 l 0
 443 319 l 0
 303 319 l 0
 143 0 l 0
 52 0 l 0
154.997 514.986 m 0
 154.997 468.944 177.341 425.926 219.169 404.763 c 0
 247.007 390.678 274.534 390 303 390 c 0
 443 390 l 0
 443 646 l 0
 312 646 l 0
 281.835 646 252.81 645.263 223.381 630.5 c 0
 178.371 607.921 154.997 561.985 154.997 514.986 c 0
EndSplineSet
EndChar

StartChar: afii10066
Encoding: 1073 1073 400
Width: 600
Flags: MW
LayerCount: 2
Fore
SplineSet
144.997 271 m 0
 144.997 150 206 57.9941 305.602 57.9941 c 0
 382.884 57.9941 459.167 125.6 459.167 258.844 c 0
 459.167 404.202 378.128 470.103 301.758 470.103 c 0
 220.795 470.103 144.997 400.769 144.997 271 c 0
58 329 m 0
 58 398 64 482 89 551 c 0
 133 677 227 730 313 730 c 0
 352.237 730 404.812 752.715 407.76 758.36 c 0
 410.752 764.096 410.163 771.823 417 777.18 c 1
 460 702.18 l 1
 429.451 672.929 356.524 658 313 658 c 0
 269.463 658 184.568 636.971 155.74 485.162 c 1
 198.306 520.696 251.2 541.005 307.44 541.005 c 0
 427.751 541.005 543.113 445.084 543.113 262.304 c 0
 543.113 86.8043 430.326 -14 304.969 -14 c 0
 221 -14 154 20 112 84 c 0
 66 154 58 244 58 329 c 0
EndSplineSet
EndChar

StartChar: afii10067
Encoding: 1074 1074 401
Width: 600
Flags: MW
LayerCount: 2
Fore
SplineSet
89.5 0 m 0
 89.5 530 l 0
 278.5 530 l 0
 322.899 530 360.081 529.633 405.256 515.213 c 0
 473.101 493.556 496.877 448.144 496.877 400.518 c 0
 496.877 349.705 464.309 303.489 406 284.086 c 1
 498 264.071 525 208.462 525 146.743 c 0
 525 92.1182 495.788 40.2197 418.089 15.9824 c 0
 368.195 0.418945 326.61 0 277.5 0 c 0
 89.5 0 l 0
169.5 70.9004 m 0
 291.5 70.9004 l 0
 322.704 70.9004 345.181 71.2266 376.362 79.6143 c 0
 426.254 93.0352 440.224 121.87 440.224 152.694 c 0
 440.224 183.867 425.305 234.101 371.713 245.029 c 0
 335.674 252.378 307.973 252.68 271.5 252.68 c 0
 169.5 252.68 l 0
 169.5 70.9004 l 0
169.5 321.273 m 0
 266.5 321.273 l 0
 298.645 321.273 325.104 321.337 358.34 328.191 c 0
 403.801 337.568 415.046 371.362 415.046 395.032 c 0
 415.046 418.894 403.176 442.386 355.3 453.493 c 0
 323.21 460.938 298.334 461.003 267.5 461.003 c 0
 169.5 461.003 l 0
 169.5 321.273 l 0
EndSplineSet
EndChar

StartChar: afii10068
Encoding: 1075 1075 402
Width: 600
Flags: MW
LayerCount: 2
Fore
SplineSet
100.5 0 m 0
 100.5 531 l 0
 496.5 530 l 0
 496.5 457 l 0
 182.5 458 l 0
 182.5 0 l 0
 100.5 0 l 0
EndSplineSet
EndChar

StartChar: afii10069
Encoding: 1076 1076 403
Width: 600
Flags: MW
LayerCount: 2
Fore
SplineSet
55.916 68 m 1
 105.516 68 l 1
 109.299 69.3066 112.337 72.2822 114.916 79 c 0
 121.958 97.3447 131.436 124.944 135.916 146 c 0
 155.679 238.876 168.038 355.594 175.866 459.7 c 0
 179.015 501.582 170.274 528.7 170.274 528.7 c 1
 520.084 528.7 l 1
 520.084 68 l 1
 580.084 68 l 1
 580.084 -168 l 1
 498.084 -168 l 1
 498.084 -1 l 1
 139.916 -1 l 1
 139.916 -167 l 1
 55.916 -167 l 1
 55.916 68 l 1
197.995 68 m 1
 438.084 68 l 1
 438.084 459.7 l 1
 254.645 459.7 l 1
 245.491 338.395 231.319 200.542 210.416 112 c 0
 207.041 97.7051 203.011 82.626 197.995 68 c 1
EndSplineSet
EndChar

StartChar: afii10072
Encoding: 1078 1078 405
Width: 600
Flags: MW
LayerCount: 2
Fore
SplineSet
21 0 m 1
 203.373 320.868 l 1
 46 530 l 1
 76 530 l 2
 96.2959 530 117.47 530.949 138 536 c 1
 257 366.146 l 1
 257 530 l 1
 343.002 530 l 1
 343.823 528.356 344.254 526.529 344.254 524.663 c 0
 344.254 515.549 337 514.38 337 502 c 2
 337 366.03 l 1
 452 536 l 1
 472.53 530.949 493.704 530 514 530 c 2
 544 530 l 1
 392.39 319.156 l 1
 577.5 0 l 1
 520.5 0 474.5 -4 474.5 -4 c 1
 344.128 252.038 l 1
 341.752 248.734 339.376 245.43 337 242.126 c 1
 337 0 l 1
 257 0 l 1
 257 249.604 l 1
 250.142 258.717 l 1
 124 -4 l 1
 124 -4 78 0 21 0 c 1
EndSplineSet
EndChar

StartChar: afii10073
Encoding: 1079 1079 406
Width: 600
Flags: MW
LayerCount: 2
Fore
SplineSet
90.6367 89.2803 m 0
 126.943 143.06 l 0
 163.25 114.249 198.574 74.874 286.887 74.874 c 0
 355.575 75.835 433.094 108.487 433.094 151.702 c 0
 433.094 178.592 429.168 236.212 286.887 236.212 c 0
 267.262 236.212 268.243 235.253 249.6 233.331 c 0
 249.6 314 l 0
 262.355 313.04 275.112 313.04 286.887 313.04 c 0
 408.562 313.04 429.168 343.771 429.168 378.344 c 0
 429.168 423.479 382.068 456.132 314.362 456.132 c 0
 251.562 456.132 188.762 444.607 143.625 399.471 c 0
 104.375 452.289 l 0
 156.381 507.029 236.844 532.959 313.381 532.959 c 0
 427.206 532.959 513.556 457.092 513.556 378.344 c 0
 513.556 327.445 475.287 292.873 424.262 278.467 c 0
 489.024 267.903 516.5 211.244 516.5 153.623 c 0
 516.5 63.3506 407.581 -0.0322266 285.906 -0.0322266 c 0
 202.5 -0.0322266 145.587 32.6191 90.6367 89.2803 c 0
EndSplineSet
EndChar

StartChar: afii10074
Encoding: 1080 1080 407
Width: 600
Flags: MW
LayerCount: 2
Fore
SplineSet
82.999 0 m 0
 82.999 529 l 0
 166.999 529 l 1
 166.999 146.394 l 1
 433.999 529 l 0
 513.998 529 l 1
 513.998 0 l 0
 434.999 0 l 0
 435.999 416.162 l 1
 147.499 0 l 0
 82.999 0 l 0
EndSplineSet
EndChar

StartChar: afii10077
Encoding: 1083 1083 410
Width: 600
Flags: MW
LayerCount: 2
Fore
SplineSet
18.5508 36 m 1
 46.501 111 l 1
 50.9443 105.644 50.5615 97.916 52.5068 92.1807 c 0
 54.4229 86.5352 73.7881 60.2275 92.9414 60.2275 c 0
 101.119 60.2275 106 66 111 79 c 0
 118.054 97.3396 127.52 124.944 132 146 c 0
 151.763 238.876 164.122 355.594 171.95 459.7 c 0
 175.099 501.582 166.359 528.7 166.359 528.7 c 0
 516.168 528.7 l 1
 516.168 -1 l 0
 434.168 -1 l 0
 434.168 459.7 l 0
 250.729 459.7 l 0
 241.575 338.395 227.403 200.542 206.5 112 c 0
 199.411 81.9694 189.426 48.4805 173.5 23 c 0
 158.5 -1 116.178 -8.17969 93.1035 -8.17969 c 0
 64.8154 -8.17969 38.4072 6.74902 18.5508 36 c 1
EndSplineSet
EndChar

StartChar: afii10078
Encoding: 1084 1084 411
Width: 600
Flags: MW
LayerCount: 2
Fore
SplineSet
57 -1 m 0
 57 529.6 l 0
 121 529.6 l 0
 300 280.8 l 0
 482 530.6 l 0
 543 530.6 l 0
 543 -1 l 0
 466 -1 l 0
 466 394 l 0
 310 169.93 l 0
 279 169.93 l 0
 133 390.92 l 0
 133 -1 l 0
 57 -1 l 0
EndSplineSet
EndChar

StartChar: afii10079
Encoding: 1085 1085 412
Width: 600
Flags: MW
LayerCount: 2
Fore
SplineSet
82.168 0 m 0
 82.168 528.7 l 0
 166.168 528.7 l 1
 166.168 308 l 0
 435.168 308 l 0
 435.168 528.7 l 0
 516.168 528.7 l 1
 516.168 -1 l 0
 434.168 -1 l 0
 434.168 239 l 0
 166.168 239 l 0
 166.168 0 l 0
 82.168 0 l 0
EndSplineSet
EndChar

StartChar: afii10081
Encoding: 1087 1087 414
Width: 600
Flags: MW
LayerCount: 2
Fore
SplineSet
82.168 0 m 0
 82.168 528.7 l 0
 516.168 528.7 l 0
 516.168 -1 l 0
 434.168 -1 l 0
 434.168 459.7 l 0
 166.168 459.7 l 0
 166.168 0 l 0
 82.168 0 l 0
EndSplineSet
EndChar

StartChar: afii10084
Encoding: 1090 1090 417
Width: 600
Flags: MW
LayerCount: 2
Fore
SplineSet
68 457 m 0
 68 530 l 0
 515 530 l 0
 515 457 l 0
 333 457 l 0
 333 -1 l 0
 251 -1 l 0
 251 457 l 0
 68 457 l 0
EndSplineSet
EndChar

StartChar: afii10088
Encoding: 1094 1094 421
Width: 600
Flags: MW
LayerCount: 2
Fore
SplineSet
80.5 0 m 0
 80.5 530 l 0
 164.5 530 l 1
 164.5 69 l 0
 430.5 69 l 0
 430.5 530 l 0
 511.5 530 l 1
 511.5 69 l 0
 577 69 l 1
 577 -168 l 0
 496 -168 l 0
 496 0 l 1
 80.5 0 l 0
EndSplineSet
EndChar

StartChar: afii10089
Encoding: 1095 1095 422
Width: 600
Flags: MW
LayerCount: 2
Fore
SplineSet
82 409.711 m 0
 83 529 l 0
 167 529 l 0
 167 409.711 l 0
 167 373.711 167 332.711 186 295.711 c 0
 207 253.711 245 230.711 287 230.711 c 0
 338 230.711 385 264.711 409 308.711 c 0
 427 341.711 430 372.711 430 413.711 c 0
 430 529 l 0
 514 529 l 0
 514 529 514 206.31 514 0 c 25
 430 0 l 25
 430.39 100.117 431 256.711 431 256.711 c 0
 397 198.711 334 162.711 268 162.711 c 0
 199 162.711 134 200.711 103 270.711 c 0
 82 316.711 82 363.711 82 409.711 c 0
EndSplineSet
EndChar

StartChar: afii10090
Encoding: 1096 1096 423
Width: 600
Flags: MW
LayerCount: 2
Fore
SplineSet
43.168 0 m 1
 43.168 530 l 1
 127.168 530 l 1
 127.168 69 l 1
 265 69 l 1
 265 530 l 1
 346 530 l 1
 346 69 l 1
 479.168 69 l 1
 479.168 530 l 1
 560.168 530 l 1
 560.168 0 l 1
 43.168 0 l 1
EndSplineSet
EndChar

StartChar: afii10091
Encoding: 1097 1097 424
Width: 600
Flags: MW
LayerCount: 2
Fore
SplineSet
18 0 m 1
 18 530 l 1
 102 530 l 1
 102 69 l 1
 239.998 69 l 1
 239.998 530 l 1
 320.998 530 l 1
 320.998 69 l 1
 454 69 l 1
 454 530 l 1
 535 530 l 1
 535 69 l 1
 582 69 l 1
 582 -168 l 5
 501 -168 l 5
 501 0 l 1
 18 0 l 1
EndSplineSet
EndChar

StartChar: afii10092
Encoding: 1098 1098 425
Width: 600
Flags: MW
LayerCount: 2
Fore
SplineSet
46 457.005 m 1
 46 530 l 1
 236.009 530 l 1
 236 321.273 l 1
 250 321.273 l 0
 361.5 321.273 416.832 313.207 451.025 288 c 0
 499.857 252 530 208.462 530 146.743 c 0
 530 92.1182 476.105 35.0146 417.598 15.9824 c 0
 390.172 7.06152 304.5 0 261 0 c 0
 156 0 l 1
 156 457.005 l 1
 46 457.005 l 1
236 70.9004 m 0
 275 70.9004 l 0
 306.203 70.9004 344.312 71.2266 373 79.6143 c 0
 418.9 93.0352 441.787 121.87 441.787 152.694 c 0
 441.787 183.867 418.027 234.101 368.723 245.029 c 0
 335.566 252.378 291.473 252.68 255 252.68 c 0
 236 252.68 l 0
 236 70.9004 l 0
EndSplineSet
EndChar

StartChar: afii10093
Encoding: 1099 1099 426
Width: 600
Flags: MW
LayerCount: 2
Fore
SplineSet
57 0 m 0
 57 530 l 0
 143.003 530 l 0
 143.824 528.356 144.255 526.529 144.255 524.663 c 0
 144.255 515.549 137.003 514.38 137.003 502 c 0
 137 321.273 l 0
 151 321.273 l 0
 262.5 321.273 294.786 313.207 328.979 288 c 0
 377.812 252 397.919 208.462 397.919 146.743 c 0
 397.919 92.1182 354.059 35.0146 295.552 15.9824 c 0
 268.126 7.06152 205.5 -0 162 -0 c 0
 57 0 l 0
137 70.9004 m 0
 176 70.9004 l 0
 207.204 70.9004 222.267 71.2266 250.953 79.6143 c 0
 296.854 93.0352 309.706 121.87 309.706 152.694 c 0
 309.706 183.867 295.98 234.101 246.676 245.029 c 0
 213.52 252.378 192.473 252.68 156 252.68 c 0
 137 252.68 l 0
 137 70.9004 l 0
459.562 0 m 0
 459.562 530 l 0
 545.564 530 l 0
 546.386 528.356 546.816 526.529 546.816 524.663 c 0
 546.816 515.549 539.562 514.38 539.562 502 c 0
 539.562 0 l 1
 459.562 0 l 0
EndSplineSet
EndChar

StartChar: afii10094
Encoding: 1100 1100 427
Width: 600
Flags: MW
LayerCount: 2
Fore
SplineSet
105 0 m 0
 105 530 l 0
 191.003 530 l 0
 191.824 528.356 192.255 526.529 192.255 524.663 c 0
 192.255 515.549 185.003 514.38 185.003 502 c 0
 185 321.273 l 0
 244.5 321.273 l 0
 356 321.273 395.29 313.207 431 288 c 0
 482 252 503 208.462 503 146.743 c 0
 503 92.1182 457.194 35.0144 396.089 15.9824 c 0
 367.446 7.06118 299 0 255.5 0 c 0
 105 0 l 0
185 70.9004 m 0
 269.5 70.9004 l 0
 300.704 70.9004 323.181 71.2266 354.362 79.6143 c 0
 404.254 93.0352 418.224 121.87 418.224 152.694 c 0
 418.224 183.867 403.305 234.101 349.713 245.029 c 0
 313.674 252.378 285.973 252.68 249.5 252.68 c 0
 185 252.68 l 0
 185 70.9004 l 0
EndSplineSet
EndChar

StartChar: afii10095
Encoding: 1101 1101 428
Width: 600
Flags: MW
LayerCount: 2
Fore
SplineSet
75 85.0273 m 1
 134 154.027 l 1
 143.175 147.104 136.874 136.219 141.297 127.274 c 0
 144.366 121.067 187.835 57.9531 278.219 57.9531 c 0
 375.253 57.9531 452.645 132.885 453.03 253 c 1
 192 253 l 1
 192 317 l 1
 445.653 317 l 1
 423.824 406.015 355.767 464.049 271.244 464.049 c 0
 218.189 464.049 166.791 440.584 131 400.027 c 1
 83 456.027 l 1
 133.484 510.446 204.312 540.028 278.219 540.028 c 0
 427.952 540.028 539 422.136 539 262.519 c 0
 539 103.647 428.524 -13.001 272.949 -13.001 c 0
 187.82 -13.001 116.685 23.9248 75 85.0273 c 1
EndSplineSet
EndChar

StartChar: afii10096
Encoding: 1102 1102 429
Width: 600
Flags: MW
LayerCount: 2
Fore
SplineSet
60.9902 0 m 1
 60.9902 530 l 1
 146.992 530 l 1
 147.814 528.356 148.244 526.529 148.244 524.663 c 0
 148.244 515.549 140.99 514.38 140.99 502 c 2
 140.99 317 l 1
 224.153 317 l 1
 239.453 450.359 308.276 541.005 386.987 541.005 c 0
 466.689 541.005 543.113 445.084 543.113 262.304 c 0
 543.113 86.8047 468.396 -14 385.35 -14 c 0
 298.356 -14 223.388 95.9821 221.047 253 c 1
 140.99 253 l 1
 140.99 0 l 1
 60.9902 0 l 1
383.224 470.103 m 0
 344.368 470.103 307.985 397.575 307.985 267.806 c 0
 307.985 137.225 344.586 57.9932 385.073 57.9932 c 0
 422.157 57.9932 458.767 125.6 458.767 258.844 c 0
 458.767 404.202 419.874 470.103 383.224 470.103 c 0
EndSplineSet
EndChar

StartChar: afii10097
Encoding: 1103 1103 430
Width: 600
Flags: MW
LayerCount: 2
Fore
SplineSet
84 0 m 1
 232.84 214.691 l 1
 207.632 219.73 191.082 228.353 172.86 242 c 0
 124.793 278 105 321.538 105 383.257 c 0
 105 437.882 148.172 494.985 205.764 514.018 c 0
 232.76 522.938 279.116 530 313.191 530 c 2
 503 530 l 1
 503 0 l 1
 423 0 l 1
 423 208.727 l 1
 321.809 208.727 l 1
 319.232 208.729 l 1
 175 0 l 1
 84 0 l 1
189.776 377.306 m 0
 189.776 346.133 198.963 295.899 249.473 284.971 c 0
 283.439 277.622 289.32 277.32 317.891 277.32 c 2
 423 277.32 l 1
 423 459.1 l 1
 302.225 459.1 l 2
 277.781 459.1 274.479 458.773 245.091 450.386 c 0
 198.068 436.965 189.776 408.13 189.776 377.306 c 0
EndSplineSet
EndChar

StartChar: afii10051
Encoding: 1026 1026 433
Width: 600
Flags: W
LayerCount: 2
Fore
SplineSet
14.5 650 m 1
 14.5 723 l 1
 380 723 l 1
 380 650 l 1
 206.5 650 l 1
 206.5 402.591 l 1
 241.657 459.09 315.584 491.421 374.568 491.421 c 0
 433.553 491.421 517.044 470.556 543.399 412.283 c 0
 562.229 370.649 562.5 315.106 562.5 276.124 c 2
 562.5 53 l 2
 562.5 1 560.501 -54 532.501 -106 c 0
 498.501 -168 423.501 -202 354.501 -202 c 0
 291.501 -202 229.501 -173 186.501 -122 c 0
 240.501 -56 l 0
 247.501 -62 242.501 -70 247.501 -77 c 0
 250.501 -80 295.501 -130 356.501 -130 c 0
 390.501 -130 435.501 -113 454.501 -84 c 0
 479.64 -46.7588 480.507 0.0175781 480.507 42.6104 c 2
 480.5 274.238 l 2
 480.499 309.499 480.285 352.34 454.499 384.626 c 0
 437.387 406.052 382.817 416.235 345.672 416.235 c 0
 308.526 416.235 246.741 390.782 228.577 365.421 c 0
 215.132 346.648 209.032 310.699 206.5 291.031 c 1
 206.5 -1 l 1
 124.5 -1 l 1
 124.5 650 l 1
 14.5 650 l 1
EndSplineSet
EndChar

StartChar: afii10053
Encoding: 1028 1028 435
Width: 600
Flags: W
LayerCount: 2
Fore
SplineSet
56.9668 356.807 m 0
 56.9668 645.838 219.327 728 331.618 728 c 0
 427.542 728 514.176 672.042 553 585 c 1
 476 547 l 1
 470.578 550.801 470.716 557.019 470.716 558.375 c 0
 470.716 561.257 471.207 564.142 471.207 567.016 c 0
 471.207 572.403 469.516 575.396 467.216 579.368 c 0
 438.075 629.699 385.397 663.168 328.882 663.168 c 0
 236.062 663.168 152.535 574.353 138.164 413.998 c 1
 419.983 413.998 l 1
 419.983 339.998 l 1
 136.469 339.998 l 1
 143.802 159.787 233.848 57.9942 335.655 57.9941 c 0
 392.317 57.9941 449.702 90.8848 483 146 c 1
 543 107 l 1
 497.694 32.9785 417.217 -12.002 331.109 -12.002 c 0
 212.178 -12.002 56.9668 77.8506 56.9668 356.807 c 0
EndSplineSet
EndChar

StartChar: afii10058
Encoding: 1033 1033 440
Width: 600
Flags: W
LayerCount: 2
Fore
SplineSet
18.5508 36 m 1
 46.501 111 l 1
 50.9443 105.644 50.5615 97.916 52.5068 92.1807 c 0
 54.4229 86.5352 64 60.2275 78 60.2275 c 0
 86.1777 60.2275 89.7607 124.526 91.2822 146 c 0
 97 226.702 103 530 105.06 651 c 0
 105.638 684.994 97.1045 723 97.1045 723 c 1
 374.795 723 l 1
 375.616 721.356 376.047 719.529 376.047 717.663 c 0
 376.047 708.549 368.792 707.38 368.792 695 c 2
 368.792 424 l 1
 380.795 424 l 2
 437.795 424 473.021 424 514.745 384 c 0
 556.56 343.914 580.384 284.98 580.384 200.903 c 0
 580.384 126.489 549.951 55.79 494.59 22.7725 c 0
 459.041 1.57031 423.624 1 388.633 1 c 2
 288.792 1 l 1
 288.792 651 l 1
 185 651 l 1
 181 515 174.356 198.768 165.782 112 c 0
 156 13 122 -8.17969 93.1035 -8.17969 c 0
 64.8154 -8.17969 38.4072 6.74902 18.5508 36 c 1
368.792 72 m 1
 393.961 72 l 2
 412.724 72 431.122 72.5469 449.872 86.5967 c 0
 479.87 109.078 496.387 157.379 496.387 209.01 c 0
 496.387 261.227 479.3 312.754 447.075 338.19 c 0
 425.406 355.296 403.866 356 381.935 356 c 2
 368.792 356 l 1
 368.792 72 l 1
EndSplineSet
EndChar

StartChar: afii10059
Encoding: 1034 1034 441
Width: 600
Flags: W
LayerCount: 2
Fore
SplineSet
31 0 m 1
 31 722 l 1
 121 722 l 1
 121.822 720.356 122.252 718.529 122.252 716.663 c 0
 122.252 707.549 115 706.38 115 694 c 2
 115 413 l 1
 276.168 413 l 1
 276.168 723 l 1
 362.171 723 l 1
 362.992 721.356 363.423 719.529 363.423 717.663 c 0
 363.423 708.549 356.168 707.38 356.168 695 c 2
 356.168 424 l 1
 368.792 424 l 2
 428.792 424 465.871 424 509.792 384 c 0
 553.807 343.914 578.885 284.98 578.885 200.903 c 0
 578.885 126.489 546.851 55.79 488.576 22.7725 c 0
 451.156 1.57031 413.875 1 377.042 1 c 2
 276.168 1 l 1
 276.168 344 l 1
 115 344 l 1
 115 0 l 1
 31 0 l 1
356.168 72 m 1
 383.463 72 l 2
 403.824 72 423.79 72.5469 444.137 86.5967 c 0
 476.69 109.078 494.614 157.379 494.614 209.01 c 0
 494.614 261.227 476.071 312.754 441.103 338.19 c 0
 417.587 355.296 394.212 356 370.413 356 c 2
 356.168 356 l 1
 356.168 72 l 1
EndSplineSet
EndChar

StartChar: afii10060
Encoding: 1035 1035 442
Width: 600
Flags: W
LayerCount: 2
Fore
SplineSet
30 650 m 1
 30 723 l 1
 395.5 723 l 1
 395.5 650 l 1
 222 650 l 1
 222 402.591 l 1
 257.157 459.09 331.084 491.421 390.068 491.421 c 0
 449.053 491.421 519.544 470.556 545.899 412.283 c 0
 564.729 370.649 565 315.106 565 276.124 c 2
 565 -1 l 1
 483.006 -1 l 1
 483 274.238 l 2
 482.999 309.499 482.785 352.34 456.999 384.626 c 0
 439.887 406.052 398.317 416.235 361.172 416.235 c 0
 324.026 416.235 262.241 390.782 244.077 365.421 c 0
 230.632 346.648 224.532 310.699 222 291.031 c 1
 222 -1 l 1
 140 -1 l 1
 140 650 l 1
 30 650 l 1
EndSplineSet
EndChar

StartChar: afii10145
Encoding: 1039 1039 445
Width: 600
Flags: W
LayerCount: 2
Fore
SplineSet
63.168 0 m 1
 63.168 722 l 1
 153.168 722 l 1
 153.99 720.356 154.42 718.529 154.42 716.663 c 0
 154.42 707.549 147.168 706.38 147.168 694 c 2
 147.168 69 l 1
 459.168 69 l 1
 459.168 722 l 1
 547.168 722 l 1
 548.04 720.545 548.504 718.864 548.504 717.137 c 0
 548.504 708.363 540.168 708.006 540.168 696 c 2
 540.168 0 l 1
 346 0 l 1
 346 -168 l 1
 265 -168 l 1
 265 0 l 1
 63.168 0 l 1
EndSplineSet
EndChar

StartChar: afii10099
Encoding: 1106 1106 446
Width: 600
Flags: W
LayerCount: 2
Fore
SplineSet
45 630 m 1
 45 692 l 1
 117.5 692 l 1
 117.5 770 l 1
 213.5 770 l 1
 213.879 768.886 214.072 767.712 214.072 766.526 c 0
 214.072 760.484 209.366 756.916 206.706 754.11 c 0
 202.77 749.956 202.5 746.931 202.5 743 c 2
 202.5 692 l 1
 333 692 l 1
 333 630 l 1
 202.5 630 l 1
 202.5 436 l 1
 241.371 495.002 306.62 542.003 378.457 542.003 c 0
 438.781 542.003 493.044 508.129 519.399 448.568 c 0
 538.229 406.014 538.5 362.334 538.5 321 c 2
 538 37 l 2
 538 -8.68457 536.772 -52.1055 514.163 -96.3809 c 0
 478.277 -166.657 404.238 -202.181 328.699 -202.181 c 0
 263.017 -202.181 204.902 -175.027 167 -128 c 1
 221 -56 l 1
 228.204 -61.9473 226.358 -69.4814 231.11 -77.248 c 0
 235.378 -84.2227 270.009 -130.016 334.016 -130.016 c 0
 378.791 -130.016 420.506 -106.298 440.459 -63.2402 c 0
 453.497 -35.1016 456 -7.27539 456 21 c 2
 456.5 319 l 2
 456.5 356.393 456.262 401.823 427.61 436.061 c 0
 408.597 458.781 382.408 469.58 355.841 469.58 c 0
 299.862 469.58 248.99 422.787 228.808 395.893 c 0
 206.787 366.55 202.5 340.651 202.5 305 c 2
 202.5 0 l 1
 117.5 0 l 1
 117.5 630 l 1
 45 630 l 1
EndSplineSet
EndChar

StartChar: afii10101
Encoding: 1108 1108 448
Width: 600
Flags: W
LayerCount: 2
Fore
SplineSet
75 264.509 m 0
 75 423.38 185.476 540.028 341.051 540.028 c 0
 426.18 540.028 497.315 503.103 539 442 c 1
 480 373 l 1
 470.825 379.924 477.126 390.809 472.703 399.753 c 0
 469.634 405.96 426.164 469.074 335.78 469.074 c 0
 250.907 469.074 181.062 411.747 164.631 317 c 1
 422 317 l 1
 422 253 l 1
 161.678 253 l 1
 169.719 140.145 245.291 62.9785 342.756 62.9785 c 0
 395.811 62.9785 447.209 86.4434 483 127 c 1
 531 71 l 1
 480.516 16.5811 409.687 -13.001 335.78 -13.001 c 0
 186.047 -13.001 75 104.892 75 264.509 c 0
EndSplineSet
EndChar

StartChar: afii10106
Encoding: 1113 1113 453
Width: 600
Flags: W
LayerCount: 2
Fore
SplineSet
18.5508 36 m 1
 46.501 111 l 1
 50.9443 105.644 50.5615 97.916 52.5068 92.1807 c 0
 54.4229 86.5352 64 60.2275 78 60.2275 c 0
 86.1777 60.2275 89.7607 124.526 91.2822 146 c 0
 94.8243 195.994 97.9746 331.415 101.455 456.5 c 0
 102.034 490.494 93.5 528.5 93.5 528.5 c 1
 375.003 528.699 l 1
 375.824 527.056 376.255 525.197 376.255 523.331 c 0
 376.255 514.217 369 513.38 369 501 c 2
 369 320.273 l 1
 380.869 320.273 l 2
 470.349 320.273 495.047 312.207 523.704 287 c 0
 564.631 251 581.483 207.462 581.483 145.743 c 0
 581.483 91.1182 544.725 34.0146 495.688 14.9824 c 0
 472.702 6.06152 424.605 -1 389.697 -1 c 2
 369 -1 l 1
 287 -1 l 1
 287.864 456.5 l 1
 179.79 456.5 l 1
 176.054 319.374 171.321 168.054 165.782 112 c 0
 156 13 122 -8.17969 93.1035 -8.17969 c 0
 64.8154 -8.17969 38.4072 6.74902 18.5508 36 c 1
369 69.9004 m 1
 384 69.9004 l 2
 407.352 69.9004 432.104 70.2266 455.438 78.6143 c 0
 492.774 92.0352 503.229 120.87 503.229 151.694 c 0
 503.229 182.867 492.063 233.101 451.959 244.029 c 0
 424.99 251.378 411.093 251.68 383.799 251.68 c 2
 369 251.68 l 1
 369 69.9004 l 1
EndSplineSet
EndChar

StartChar: afii10107
Encoding: 1114 1114 454
Width: 600
Flags: W
LayerCount: 2
Fore
SplineSet
30.168 0 m 1
 30.168 528.7 l 1
 114.168 528.7 l 1
 114.168 308 l 1
 281.168 308 l 1
 281.168 528.7 l 1
 362.168 528.7 l 1
 362.168 528.67 l 1
 368.171 528.668 l 1
 368.992 527.024 369.423 525.197 369.423 523.331 c 0
 369.423 514.217 362.168 513.38 362.168 501 c 2
 362.168 320.273 l 1
 374.037 320.273 l 2
 463.517 320.273 495.047 312.207 523.704 287 c 0
 564.631 251 581.483 207.462 581.483 145.743 c 0
 581.483 91.1182 544.725 34.0146 495.688 14.9824 c 0
 472.702 6.06152 417.773 -1 382.865 -1 c 2
 362.168 -1 l 1
 280.168 -1 l 1
 280.168 239 l 1
 114.168 239 l 1
 114.168 0 l 1
 30.168 0 l 1
362.168 69.9004 m 1
 391.933 69.9004 l 2
 415.284 69.9004 432.104 70.2266 455.438 78.6143 c 0
 492.774 92.0352 503.229 120.87 503.229 151.694 c 0
 503.229 182.867 492.063 233.101 451.959 244.029 c 0
 424.99 251.378 404.261 251.68 376.967 251.68 c 2
 362.168 251.68 l 1
 362.168 69.9004 l 1
EndSplineSet
EndChar

StartChar: afii10108
Encoding: 1115 1115 455
Width: 600
Flags: W
LayerCount: 2
Fore
SplineSet
45 630 m 1
 45 692 l 1
 117.5 692 l 1
 117.5 770 l 1
 213.5 770 l 1
 213.879 768.886 214.072 767.712 214.072 766.526 c 0
 214.072 760.484 209.366 756.916 206.706 754.11 c 0
 202.77 749.956 202.5 746.931 202.5 743 c 2
 202.5 692 l 1
 333 692 l 1
 333 630 l 1
 202.5 630 l 1
 202.5 436 l 1
 241.371 495.002 306.62 542.003 378.457 542.003 c 0
 438.781 542.003 493.044 508.129 519.399 448.568 c 0
 538.229 406.014 538.5 362.334 538.5 321 c 2
 538.5 0 l 1
 456.5 0 l 1
 456.5 319 l 2
 456.5 356.393 456.262 401.823 427.61 436.061 c 0
 408.597 458.781 382.408 469.58 355.841 469.58 c 0
 299.862 469.58 248.99 422.787 228.808 395.893 c 0
 206.787 366.55 202.5 340.651 202.5 305 c 2
 202.5 0 l 1
 117.5 0 l 1
 117.5 630 l 1
 45 630 l 1
EndSplineSet
EndChar

StartChar: afii10193
Encoding: 1119 1119 458
Width: 600
Flags: W
LayerCount: 2
Fore
SplineSet
73.168 0 m 1
 73.168 530 l 1
 157.168 530 l 1
 157.168 69 l 1
 449.168 69 l 1
 449.168 530 l 1
 530.168 530 l 1
 530.168 0 l 1
 346 -3.33761e-15 l 1
 346 -168 l 1
 265 -168 l 1
 265 -1.55431e-15 l 1
 73.168 0 l 1
EndSplineSet
EndChar

StartChar: afii10050
Encoding: 1168 1168 459
Width: 600
Flags: W
LayerCount: 2
Fore
SplineSet
78 0 m 1
 78 723 l 1
 439 723 l 1
 439 917 l 1
 521 917 l 1
 521 651 l 1
 155 651 l 1
 155 414 l 2
 155 340 l 1
 155 72 l 2
 155.083 43.917 155.61 28.0801 156 0 c 1
 78 0 l 1
EndSplineSet
EndChar

StartChar: afii10098
Encoding: 1169 1169 460
Width: 600
Flags: W
LayerCount: 2
Fore
SplineSet
100.5 0 m 1
 100.5 531 l 1
 414.5 530.143 l 1
 414.5 674.7 l 1
 496.5 674.7 l 1
 496.5 457 l 1
 182.5 458 l 1
 182.5 0 l 1
 100.5 0 l 1
EndSplineSet
EndChar

StartChar: afii61352
Encoding: 8470 8470 461
Width: 600
Flags: W
LayerCount: 2
Fore
SplineSet
472.749 545.011 m 0
 516.797 545.011 561.632 477.808 561.632 338.756 c 0
 561.632 188.793 513.703 120.94 468.931 120.94 c 0
 420.458 120.94 377.149 198.446 377.149 324.869 c 0
 377.149 457.779 421.873 545.011 472.749 545.011 c 0
432.099 330.214 m 0
 432.099 233.196 451.406 187.925 469.848 187.925 c 0
 487.588 187.925 507.311 230.473 507.311 330.207 c 0
 507.311 429.509 488.882 480 469.78 480 c 0
 450.846 480 432.099 430.057 432.099 330.214 c 0
365.093 63 m 0
 579.005 63 l 0
 579.005 0 l 0
 365.093 0 l 0
 365.093 63 l 0
30.0049 0 m 0
 30.0049 722 l 0
 109.005 722 l 0
 259.505 247 l 0
 259.505 723 l 0
 345.505 723 l 0
 346.434 716.255 343.421 710.683 342.126 708.22 c 0
 339.349 702.938 337.505 700.058 337.505 692 c 0
 337.505 -1 l 0
 273.505 -1 l 0
 108.005 508 l 0
 108.005 0 l 0
 30.0049 0 l 0
EndSplineSet
EndChar

StartChar: Hbar
Encoding: 294 294 462
Width: 600
Flags: W
LayerCount: 2
Fore
SplineSet
73 722 m 1
 163 722 l 1
 163.822 720.356 164.252 718.529 164.252 716.663 c 0
 164.252 707.549 157 706.38 157 694 c 2
 157 625.001 l 1
 440 625.001 l 1
 440 722 l 1
 528 722 l 1
 528.872 720.545 529.336 718.865 529.336 717.137 c 0
 529.336 708.364 521 708.006 521 696 c 2
 521 625.001 l 1
 570 625.001 l 1
 570 563.001 l 1
 521 563.001 l 1
 521 -1 l 1
 439 -1 l 1
 439 344 l 1
 157 344 l 1
 157 0 l 1
 73 0 l 1
 73 563.001 l 1
 30 563.001 l 1
 30 625.001 l 1
 73 625.001 l 1
 73 722 l 1
440 563.001 m 1
 157 563.001 l 1
 157 413 l 1
 440 413 l 1
 440 563.001 l 1
EndSplineSet
EndChar

StartChar: Tbar
Encoding: 358 358 485
Width: 600
Flags: W
LayerCount: 2
Fore
SplineSet
46 723 m 1
 546 723 l 1
 546 650 l 1
 333 650 l 1
 333 420 l 1
 497 420 l 1
 497 355 l 1
 333 355 l 1
 333 -1 l 1
 251 -1 l 1
 251 355 l 1
 99 355 l 1
 99 420 l 1
 251 420 l 1
 251 650 l 1
 46 650 l 1
 46 723 l 1
EndSplineSet
EndChar

StartChar: tbar
Encoding: 359 359 491
Width: 600
Flags: W
LayerCount: 2
Fore
SplineSet
228 671 m 1
 319 686 l 1
 320 684 320 682 320 680 c 0
 320 671 314 665 312 655 c 0
 307 625 299 530 299 530 c 1
 472 530 l 1
 472 461 l 1
 298 461 l 1
 293.232 414 290.32 367 288.947 320 c 1
 447.002 320 l 1
 447.002 255 l 1
 288 255 l 1
 288 254 l 2
 288 177 291 157 291 152 c 0
 300 89 341 67 380 67 c 0
 413 67 454 82 499 115 c 1
 525 49 l 1
 480 16 419 -10 356 -10 c 0
 302 -10 260 11 235 46 c 0
 204 90 204 143 204 190 c 0
 204 211.662 204.232 233.324 204.681 255 c 1
 97.001 255 l 1
 97.001 320 l 1
 206.666 320 l 1
 208.543 366.824 211.367 413.777 215 461 c 1
 91 461 l 1
 92 529 l 1
 218 529 l 1
 228 671 l 1
EndSplineSet
EndChar

StartChar: Uogonek
Encoding: 370 370 499
Width: 600
Flags: W
LayerCount: 2
Fore
SplineSet
68 722 m 1
 159 722 l 1
 159.791 720.163 160.2 718.172 160.2 716.15 c 0
 160.2 709.235 155.631 704.498 152.571 700.195 c 0
 148.296 694.182 148 690.266 148 685 c 2
 148 248 l 2
 148 212.142 148.701 177.155 165.336 141.578 c 0
 191.299 86.0527 245.805 55.9209 303.067 55.9209 c 0
 359.414 55.9209 413.783 85.3438 440.467 140.549 c 0
 458.225 177.288 459 213.693 459 251 c 2
 459 722 l 1
 536 722 l 1
 536 253 l 2
 536 200.192 534.408 150.173 507.085 99.8135 c 0
 495.935 79.2644 482.798 61.9004 466.5 47 c 0
 427.542 12.0078 345.896 -66.5967 336.056 -77.7402 c 0
 327.912 -86.9648 316.548 -100.705 316.548 -117.842 c 0
 316.548 -135.64 329.349 -150.797 350.447 -150.797 c 0
 357.638 -150.797 366.177 -149.114 378.357 -144.679 c 0
 396.457 -138.087 408.134 -130.111 415.5 -124 c 1
 415.5 -177 l 1
 392.78 -196.689 364.2 -204.002 335.4 -204.002 c 0
 275.358 -204.002 244.551 -171.745 244.551 -133.094 c 0
 244.551 -98.8728 271.365 -57.173 322.078 -12.3105 c 1
 315.236 -12.8192 308.357 -13.0732 301.461 -13.0732 c 0
 216.265 -13.0732 136.155 24.9775 96.1416 99.2168 c 0
 69.4092 148.814 68 197.96 68 249 c 2
 68 722 l 1
EndSplineSet
EndChar

StartChar: IJ
Encoding: 306 306 515
Width: 600
Flags: W
LayerCount: 2
Fore
SplineSet
30 -1 m 1
 30 67 l 1
 108 67 l 1
 108 654 l 1
 38 654 l 1
 38 722 l 1
 585 722 l 1
 585 654 l 1
 514 654 l 1
 514 61 l 2
 514 9 514 -46 486 -98 c 0
 452 -160 390 -194 321 -194 c 0
 258 -194 196 -165 153 -114 c 1
 207 -48 l 1
 214 -54 209 -62 214 -69 c 0
 217 -72 262 -122 323 -122 c 0
 357 -122 389 -105 408 -76 c 0
 433.138 -38.7588 434 8.01758 434 50.6104 c 2
 434 60 l 1
 434 654 l 1
 189 654 l 1
 189 66 l 1
 288 66 l 1
 288 -1 l 1
 30 -1 l 1
EndSplineSet
EndChar

StartChar: ij
Encoding: 307 307 516
Width: 600
Flags: W
LayerCount: 2
Fore
SplineSet
30 0 m 1
 30 67 l 1
 156 67 l 1
 156 462 l 1
 37 462 l 1
 37 530 l 1
 521 530 l 1
 521 37 l 2
 521 -8.68457 519.772 -52.1055 497.163 -96.3809 c 0
 461.277 -166.657 387.238 -202.181 311.699 -202.181 c 0
 246.017 -202.181 187.902 -175.027 150 -128 c 1
 204 -56 l 1
 211.204 -61.9473 209.358 -69.4814 214.11 -77.248 c 0
 218.378 -84.2227 253.009 -130.016 317.016 -130.016 c 0
 361.791 -130.016 403.506 -106.298 423.459 -63.2402 c 0
 436.497 -35.1016 437 -7.27539 437 21 c 2
 437 461 l 1
 240 461 l 1
 240 67 l 1
 340 67 l 1
 340 0 l 1
 30 0 l 1
139.981 700.486 m 0
 139.981 733.264 166.81 760 199.99 760 c 0
 233.158 760 260.019 733.273 260.019 700.486 c 0
 260.019 667.72 233.182 640.992 199.99 640.992 c 0
 166.818 640.992 139.981 667.716 139.981 700.486 c 0
419.981 700.486 m 0
 419.981 733.264 446.81 760 479.99 760 c 0
 513.158 760 540.019 733.273 540.019 700.486 c 0
 540.019 667.72 513.182 640.992 479.99 640.992 c 0
 446.818 640.992 419.981 667.716 419.981 700.486 c 0
EndSplineSet
EndChar

StartChar: napostrophe
Encoding: 329 329 519
Width: 600
Flags: W
LayerCount: 2
Fore
SplineSet
180 0 m 0
 180 529 l 0
 265 529 l 0
 265 436 l 0
 303.871 495.002 348.12 542.003 419.957 542.003 c 0
 480.281 542.003 534.544 508.129 560.899 448.568 c 0
 579.729 406.014 580 362.334 580 321 c 0
 580 0 l 0
 498 0 l 0
 498 319 l 0
 498 356.393 497.762 401.823 469.11 436.061 c 0
 450.097 458.781 423.908 469.58 397.341 469.58 c 0
 341.362 469.58 311.49 422.787 291.308 395.893 c 0
 269.287 366.55 265 340.651 265 305 c 0
 265 0 l 0
 180 0 l 0
EndSplineSet
Refer: 56 8217 N 1 0 0 1 -190 0 2
EndChar

StartChar: longs
Encoding: 383 383 526
Width: 600
Flags: W
LayerCount: 2
Fore
SplineSet
198 0 m 1
 198 550 l 1
 198 597 200 641 227 685 c 0
 264 745 334 777 408 777 c 0
 475 777 532 751 570 705 c 1
 532 628 l 1
 528 628 523 630 523 638 c 0
 522 643 523 646 519 651 c 0
 497 685 455 712 404 712 c 0
 360 712 319 692 297 653 c 0
 278.818 621.182 277.992 584.405 277.992 549.431 c 0
 277.992 545.934 278 542.455 278 539 c 2
 278 -0 l 1
 198 0 l 1
EndSplineSet
EndChar

StartChar: endash
Encoding: 8211 8211 541
Width: 600
Flags: W
LayerCount: 2
Fore
SplineSet
123 403 m 0
 477 403 l 0
 477 326 l 0
 123 326 l 0
 123 403 l 0
EndSplineSet
EndChar

StartChar: emdash
Encoding: 8212 8212 542
Width: 600
Flags: W
LayerCount: 2
Fore
SplineSet
53.5205 403 m 0
 555.521 403 l 0
 555.521 326 l 0
 53.5205 326 l 0
 53.5205 403 l 0
EndSplineSet
EndChar

StartChar: afii00208
Encoding: 8213 8213 543
Width: 600
Flags: W
LayerCount: 2
Fore
SplineSet
0 403 m 0
 600 403 l 0
 600 326 l 0
 0 326 l 0
 0 403 l 0
EndSplineSet
EndChar

StartChar: quotereversed
Encoding: 8219 8219 545
Width: 600
Flags: W
LayerCount: 2
Fore
SplineSet
201 642.835 m 0
 201 702.133 240.266 738.93 281.48 738.93 c 0
 319.616 738.93 348.18 707.85 348.18 672.853 c 0
 348.18 641.694 326.105 628.371 315.868 621.562 c 0
 305.802 614.867 288.726 604.197 288.726 580.342 c 0
 288.726 561.166 300.225 541.362 305.883 532.066 c 0
 317.201 513.471 336.671 485.274 364.152 460 c 0
 324.152 425 l 0
 243.446 506.943 201 582.506 201 642.835 c 0
EndSplineSet
EndChar

StartChar: uni201F
Encoding: 8223 8223 546
Width: 600
Flags: W
LayerCount: 2
Fore
SplineSet
81 642.835 m 0
 81 702.133 120.266 738.93 161.48 738.93 c 0
 199.616 738.93 228.18 707.85 228.18 672.853 c 0
 228.18 641.694 206.105 628.371 195.868 621.562 c 0
 185.802 614.867 168.726 604.197 168.726 580.342 c 0
 168.726 561.166 180.225 541.362 185.883 532.066 c 0
 197.201 513.471 216.671 485.274 244.152 460 c 0
 204.152 425 l 0
 123.446 506.943 81 582.506 81 642.835 c 0
321 642.835 m 0
 321 702.133 360.266 738.93 401.48 738.93 c 0
 439.616 738.93 468.18 707.85 468.18 672.853 c 0
 468.18 641.694 446.105 628.371 435.868 621.562 c 0
 425.802 614.867 408.726 604.197 408.726 580.342 c 0
 408.726 561.166 420.225 541.362 425.883 532.066 c 0
 437.201 513.471 456.671 485.274 484.152 460 c 0
 444.152 425 l 0
 363.446 506.943 321 582.506 321 642.835 c 0
EndSplineSet
EndChar

StartChar: perthousand
Encoding: 8240 8240 547
Width: 600
Flags: W
LayerCount: 2
Fore
SplineSet
288.973 291.512 m 0
 338.75 291.512 380.852 226.955 380.852 138.593 c 0
 380.852 52.5283 339.494 -11.6123 289.712 -11.6123 c 0
 239.551 -11.6123 197.942 53.3164 197.942 139.854 c 0
 197.942 228.932 240.399 291.512 288.973 291.512 c 0
287.862 230.41 m 0
 277.497 230.41 261.847 212.529 261.847 143.835 c 0
 261.847 65.3584 279.212 50.3164 288.688 50.3164 c 0
 299.145 50.3164 314.517 68.5459 314.517 135.554 c 0
 314.517 218.072 296.375 230.41 287.862 230.41 c 0
493.056 291.512 m 0
 542.833 291.512 584.935 226.955 584.935 138.593 c 0
 584.935 52.5283 543.577 -11.6123 493.795 -11.6123 c 0
 443.634 -11.6123 402.025 53.3164 402.025 139.854 c 0
 402.025 228.932 444.482 291.512 493.056 291.512 c 0
491.945 230.41 m 0
 481.58 230.41 465.93 212.529 465.93 143.835 c 0
 465.93 65.3584 483.295 50.3164 492.771 50.3164 c 0
 503.228 50.3164 518.6 68.5459 518.6 135.554 c 0
 518.6 218.072 500.458 230.41 491.945 230.41 c 0
262.935 722 m 0
 340.935 722 l 0
 137 0 l 0
 63 0 l 0
 262.935 722 l 0
113.965 735.106 m 0
 163.742 735.106 205.844 670.55 205.844 582.188 c 0
 205.844 496.123 164.486 431.982 114.704 431.982 c 0
 64.543 431.982 22.9346 496.911 22.9346 583.448 c 0
 22.9346 672.526 65.3916 735.106 113.965 735.106 c 0
112.854 674.005 m 0
 102.489 674.005 86.8389 656.124 86.8389 587.43 c 0
 86.8389 508.953 104.204 493.911 113.68 493.911 c 0
 124.137 493.911 139.509 512.141 139.509 579.148 c 0
 139.509 661.667 121.367 674.005 112.854 674.005 c 0
EndSplineSet
EndChar

StartChar: minute
Encoding: 8242 8242 548
Width: 600
Flags: W
LayerCount: 2
Fore
SplineSet
304 740 m 0
 408 740 l 0
 304 541 l 0
 232 541 l 0
 304 740 l 0
EndSplineSet
EndChar

StartChar: uni207F
Encoding: 8319 8319 552
Width: 600
Flags: W
LayerCount: 2
Fore
SplineSet
234.7 292 m 1
 163.7 292 l 1
 163.7 609.4 l 1
 234.7 609.4 l 1
 234.7 572.254 l 1
 260.29 599.043 293.064 617.202 330.274 617.202 c 0
 370.351 617.202 406.611 594.449 423.983 555.188 c 0
 436.306 534.252 436.3 513.199 436.3 494.6 c 0
 436.3 292 l 1
 367.1 292 l 1
 367.1 493.4 l 0
 367.1 508.995 366.42 525.467 352.097 537.219 c 0
 342.656 548.5 329.919 553.748 316.704 553.748 c 0
 288.466 553.748 259.671 541.027 248.482 533.534 c 0
 236.795 517.959 234.7 505.617 234.7 485 c 0
 234.7 292 l 1
EndSplineSet
EndChar

StartChar: franc
Encoding: 8355 8355 553
Width: 600
Flags: W
LayerCount: 2
Fore
SplineSet
203 0 m 1
 121 0 l 1
 121 238 l 1
 31.5 238 l 5
 31.5 308 l 5
 121 308 l 1
 121 389.7 l 1
 31.5 389.7 l 5
 31.5 459.7 l 5
 121 459.7 l 1
 121 723 l 1
 537 723 l 1
 537 652 l 1
 203 652 l 1
 203 459.7 l 1
 473 459.7 l 1
 473 389.7 l 1
 203 389.7 l 1
 203 308 l 1
 473 308 l 1
 473 238 l 1
 203 238 l 1
 203 0 l 1
EndSplineSet
EndChar

StartChar: lira
Encoding: 8356 8356 554
Width: 600
Flags: W
LayerCount: 2
Fore
SplineSet
494 663 m 1
 443 599 l 1
 433.543 605.934 434.27 615.246 427.512 622.673 c 0
 422.593 628.078 390.006 656.128 341.348 656.128 c 0
 279.173 656.128 217.781 609.4 217.781 512.955 c 0
 217.781 488.175 221.729 463.315 227.168 438 c 1
 342 438 l 1
 342 372 l 1
 242.811 372 l 1
 247.695 351.21 252.202 329.938 255.127 308 c 1
 342 308 l 1
 342 242 l 1
 258.082 242 l 1
 255.383 191.273 240.743 144.015 216 104 c 1
 226.25 105.791 236.644 106.675 247.063 106.675 c 0
 324.103 106.675 372.006 58.916 438.359 58.916 c 0
 470.325 58.916 500.468 70.8545 524 91 c 1
 555 31 l 1
 528.906 10.2529 484.714 -17.1631 434.141 -17.1631 c 0
 360.259 -17.1631 311.803 34.666 227.673 34.666 c 0
 203.994 34.666 159.283 30.2656 85 -9 c 1
 55 57 l 1
 108.912 81.9053 122.949 87.4531 141.287 115.98 c 0
 164.591 152.231 178.401 195.481 180.828 242 c 1
 88 242 l 1
 88 308 l 1
 177.098 308 l 1
 173.828 329.627 168.962 350.876 163.82 372 c 1
 88 372 l 1
 88 438 l 1
 148.325 438 l 1
 143.399 462.328 139.93 486.842 139.93 511.928 c 0
 139.93 641.884 235.856 722.006 343.371 722.006 c 0
 398.585 722.006 452.418 701.138 494 663 c 1
EndSplineSet
EndChar

StartChar: peseta
Encoding: 8359 8359 555
Width: 600
VWidth: 0
LayerCount: 2
Fore
SplineSet
388.5 -11.5 m 0
 357.27 -11.5 328.739 11 314.281 46 c 0
 296.353 90 296.353 143 296.353 190 c 0
 296.353 280 298.666 370 302.714 461 c 1
 281.746 461 l 1
 274.142 410.722 256.422 366.791 229.234 342 c 0
 204.748 320 180.817 319 155.773 319 c 2
 94 319 l 1
 94 0 l 1
 30 0 l 1
 30 722 l 1
 152.435 722 l 2
 178.591 722 203.078 721 228.679 697 c 0
 264.79 663.602 284.179 598.333 285.878 529 c 1
 304.449 529 l 1
 310.232 671 l 1
 373.822 686 l 1
 374.222 684 374.222 682 374.222 680 c 0
 374.222 671 371.829 665 371.032 655 c 0
 369.039 625 365.85 530 365.85 530 c 1
 445.984 530 l 1
 457.305 537.697 470.109 542.004 484.123 542.004 c 0
 519.772 542.004 551.77 512.905 574.04 459 c 1
 551.731 386 l 1
 550.8 386.487 548.964 388.387 548.985 395.318 c 0
 548.997 399.389 549.344 402.17 547.857 406.383 c 0
 538.685 432.386 502.868 479.074 479.687 479.074 c 0
 461.3 479.074 445.423 449.386 445.423 406.786 c 0
 445.423 389 448.25 363.327 461.533 342.429 c 0
 476.732 318.517 515.391 306.562 542.625 272.983 c 0
 571.142 237.822 578 189.926 578 153.285 c 0
 578 73.3789 543.6 -12 477.734 -12 c 0
 441.125 -12 424.936 -11.5 388.5 -11.5 c 0
94 646 m 1
 93.4434 390 l 1
 146.658 390 l 2
 159.592 390 172.525 391 185.459 405 c 0
 204.859 426 215.021 469 215.021 515 c 0
 215.021 562 204.397 608 183.61 630 c 0
 169.754 645 156.358 646 142.501 646 c 2
 94 646 l 1
400.904 461 m 1
 365.451 461 l 1
 362.661 392 361.465 323 361.465 254 c 0
 361.465 177 362.661 157 362.661 152 c 0
 366.248 89 383.944 58.5 406.5 58.5 c 0
 425.585 58.5 449.177 58 477.052 58 c 0
 500.283 58 518.861 92.168 518.861 141.757 c 0
 518.861 160.887 516.051 188.765 502.635 209.208 c 0
 490.639 227.486 470.577 241.548 450.193 257.732 c 0
 437.112 268.119 391.478 301.799 391.478 394.231 c 0
 391.478 417.944 394.776 440.725 400.904 461 c 1
EndSplineSet
EndChar

StartChar: afii61248
Encoding: 8453 8453 556
Width: 600
Flags: W
LayerCount: 2
Fore
SplineSet
283.761 679.636 m 0
 288.072 673.316 l 1
 247.486 625.851 l 1
 239.977 631.518 l 0
 230.531 638.645 233.237 648.645 233.237 648.645 c 1
 229.746 653.912 210.607 677.537 173.89 677.537 c 0
 131.154 677.537 96.4844 645.232 96.4844 589.563 c 0
 96.4844 531.947 132.233 494.489 177.378 494.489 c 0
 200.958 494.489 223.973 504.954 240.002 523.117 c 0
 247.61 531.738 l 1
 284.896 488.237 l 1
 278.831 481.699 l 0
 251.626 452.375 213.506 436.499 173.891 436.499 c 0
 93.1464 436.499 33.5 500.602 33.5 585.255 c 0
 33.5 669.673 93.0828 733.014 176.525 733.014 c 0
 222.014 733.014 260.919 713.116 283.761 679.636 c 0
456.72 280.503 m 0
 522.757 280.503 584.557 229.017 584.557 136.172 c 0
 584.557 46.8694 524.123 -7 455.484 -7 c 0
 382.728 -7 321.434 52.8338 321.434 135.338 c 0
 321.434 218.954 383.086 280.503 456.72 280.503 c 0
522.584 134.562 m 0
 522.584 199.631 485.511 225.052 453.879 225.052 c 0
 420.156 225.052 385.492 196.539 385.492 138.802 c 0
 385.492 80.4686 420.687 48.9961 455.807 48.9961 c 0
 487.818 48.9961 522.584 75.2277 522.584 134.562 c 0
EndSplineSet
Refer: 274 8260 N 1 0 0 1 0 0 2
EndChar

StartChar: afii61289
Encoding: 8467 8467 557
Width: 600
Flags: W
LayerCount: 2
Fore
SplineSet
391.934 73 m 0
 416.934 73 437.104 77 466.426 79 c 1
 464.842 0 l 1
 458.501 0 452.955 0 446.614 0 c 0
 434.728 0 402.382 1.00684 391.287 1.00684 c 0
 330.257 1.00684 273.152 38.1045 228.369 108.823 c 1
 194.273 90.7275 156.603 80.2998 115.819 80.2998 c 1
 116.465 152.293 l 1
 143.896 152.293 169.919 160.893 193.977 175.715 c 1
 160.164 256.647 135.027 364.422 135.027 496.573 c 0
 135.027 586.3 163.241 777 298.151 777 c 0
 391.644 777 436.786 681.079 436.786 498.299 c 0
 436.786 384.276 384.318 241.971 293.623 156.265 c 1
 321.919 102.248 356.229 73 391.934 73 c 0
292.469 706.098 m 0
 258.496 706.098 219.325 634.171 223.145 503.801 c 0
 226.255 397.671 240.186 307.942 261.131 238.307 c 1
 317.708 311.261 352.84 416.271 352.84 494.839 c 0
 352.839 640.197 342.146 706.098 292.469 706.098 c 0
EndSplineSet
EndChar

StartChar: estimated
Encoding: 8494 8494 559
Width: 600
Flags: W
LayerCount: 2
Fore
SplineSet
310 730 m 0
 396 730 521.318 668.39 545.318 478.202 c 0
 549.166 451.584 550.957 426.254 550.957 395.504 c 0
 550.957 378.288 550.396 360.649 549.318 342.652 c 1
 180.318 342.652 l 1
 180.318 144.407 l 1
 225.082 85.277 285.653 66.8535 327 66.8535 c 0
 380 66.8535 455.318 96.1055 490.318 150.43 c 1
 536.318 97.8271 l 1
 491.318 25.502 396 -12 320 -12 c 0
 177 -12 40.3184 113.898 40.3184 350.964 c 0
 40.3184 609.459 183 730 310 730 c 0
180.318 411.909 m 1
 410.318 411.909 l 1
 410.318 599.326 l 1
 379.99 634.474 341.466 656.061 304 656.061 c 0
 270.445 656.061 219.672 637.142 180.318 582.906 c 1
 180.318 411.909 l 1
EndSplineSet
EndChar

StartChar: uni2070
Encoding: 8304 8304 560
Width: 600
Flags: W
LayerCount: 2
Fore
SplineSet
111.421 519.826 m 0
 111.421 663.292 206.906 752.429 301.052 752.429 c 0
 392.423 752.429 487.929 668.658 487.929 515.904 c 0
 487.929 361.776 388.031 289.378 302.057 289.378 c 0
 208.396 289.378 111.421 374.719 111.421 519.826 c 0
192.583 456.54 m 1
 382.195 646.639 l 1
 358.118 682.119 327.81 697.153 300.192 697.153 c 0
 248.342 697.153 183.097 638.896 183.097 528.414 c 0
 183.097 501.842 186.663 477.731 192.583 456.54 c 1
416.957 510.168 m 0
 416.957 539.643 413.405 565.971 407.944 587.205 c 1
 218.554 399.677 l 1
 242.831 364.308 274.271 346.425 304.262 346.425 c 0
 350.45 346.425 416.957 389.56 416.957 510.168 c 0
EndSplineSet
EndChar

StartChar: uni2075
Encoding: 8309 8309 561
Width: 600
Flags: W
LayerCount: 2
Fore
SplineSet
142.517 515.406 m 1
 163.102 743.381 l 1
 462.73 743.381 l 1
 462.73 686.887 l 1
 227.735 686.887 l 1
 220.087 577.594 l 1
 249.341 587.313 276.833 591.524 306.062 591.524 c 0
 403.266 591.524 484.022 538.476 484.022 442.446 c 0
 484.022 342.646 398.531 289.381 298.484 289.381 c 0
 229.57 289.381 164.637 314.378 125.507 359.096 c 0
 120.71 364.578 l 1
 186.631 402.856 l 1
 189.606 401.213 l 0
 201.111 394.859 198.402 382.774 198.402 382.774 c 1
 201.518 378.75 239.695 344.658 297.699 344.658 c 0
 356.417 344.658 406.67 379.687 406.67 443.385 c 0
 406.67 509.384 354.064 542.404 296.339 542.404 c 0
 258.98 542.404 220.187 528.086 194.042 502.596 c 0
 191.479 500.097 l 1
 142.517 515.406 l 1
EndSplineSet
EndChar

StartChar: uni2076
Encoding: 8310 8310 562
Width: 600
Flags: W
LayerCount: 2
Fore
SplineSet
152.124 641.661 m 1
 187.893 720.961 264.443 754.258 333.92 754.258 c 0
 380.823 754.258 427.7 739.313 461.979 712.774 c 0
 467.801 708.266 l 1
 414.936 662.951 l 1
 411.276 665.012 l 0
 400.227 671.233 399.175 679.785 397.162 681.343 c 0
 394.361 683.512 370.034 698.373 333.92 698.373 c 0
 295.952 698.373 212.727 682.014 202.906 550.9 c 1
 230.849 577.962 272.166 593.347 316.601 593.347 c 0
 399.306 593.347 478.476 538.926 478.476 443.502 c 0
 478.476 348.736 399.367 290.001 310.303 290.001 c 0
 258.444 290.001 205.526 310.029 171.109 350.631 c 0
 133.404 395.053 127.172 451.682 127.172 503.844 c 0
 127.172 546.3 131.859 598.355 152.124 641.661 c 1
404.283 440.455 m 0
 404.283 512.826 353.644 538.071 310.303 538.071 c 0
 270.925 538.071 229.65 515.704 205.05 482.648 c 1
 204.467 477.338 204.514 473.555 204.514 468.492 c 0
 204.514 397.402 251.925 345.886 312.664 345.886 c 0
 358.784 345.886 404.283 375.762 404.283 440.455 c 0
EndSplineSet
EndChar

StartChar: uni2077
Encoding: 8311 8311 563
Width: 600
Flags: W
LayerCount: 2
Fore
SplineSet
137.406 684.449 m 1
 137.406 743.381 l 1
 471.391 743.381 l 1
 471.391 709.241 l 1
 470.614 707.901 l 0
 432.213 641.63 396.305 574.538 362.947 506.734 c 0
 330.374 438.848 300.235 370.263 272.575 301.088 c 0
 271.067 297.315 l 1
 186.288 297.315 l 1
 189.844 305.666 l 0
 223.579 383.647 259.859 460.985 298.635 537.588 c 0
 323.564 586.833 349.628 635.94 376.538 684.449 c 1
 137.406 684.449 l 1
EndSplineSet
EndChar

StartChar: uni2078
Encoding: 8312 8312 564
Width: 600
Flags: W
LayerCount: 2
Fore
SplineSet
147.604 640.414 m 0
 147.604 704.679 218.761 754.904 307.328 754.904 c 0
 392.259 754.904 461.314 707.684 461.314 644.689 c 0
 461.314 602.146 427.99 562.384 380.154 538.953 c 1
 439.447 513.425 480.337 468.45 480.337 416.915 c 0
 480.337 344.817 400.652 289.962 299.377 289.962 c 0
 200.105 289.962 120.752 343.287 120.752 413.976 c 0
 120.752 465.262 164.608 511.921 224.663 537.659 c 1
 178.336 560.37 147.604 597.821 147.604 640.414 c 0
403.696 417.43 m 0
 403.696 455.602 359.449 493.107 288.488 511.017 c 1
 235.652 493.432 198.21 457.481 198.21 420.526 c 0
 198.21 381.106 242.148 346.492 302.293 346.492 c 0
 361.424 346.492 403.696 379.907 403.696 417.43 c 0
386.964 635.425 m 0
 386.964 667.323 351.552 695.43 302.433 695.43 c 0
 254.469 695.43 220.982 668.43 220.982 638.63 c 0
 220.982 591.356 299.724 561.627 314.74 556.653 c 1
 358.416 575.698 386.964 606.135 386.964 635.425 c 0
EndSplineSet
EndChar

StartChar: uni2079
Encoding: 8313 8313 565
Width: 600
Flags: W
LayerCount: 2
Fore
SplineSet
451.903 395.794 m 1
 415.981 323.107 341.166 290.001 270.153 290.001 c 0
 221.696 290.001 175.575 304.974 140.574 331.443 c 0
 134.633 335.936 l 1
 187.441 381.203 l 1
 191.031 379.35 l 0
 203.685 372.819 202.674 364.359 206.301 362.112 c 1
 206.301 362.112 231.837 347.104 271.728 347.104 c 0
 311.299 347.104 356.088 362.48 378.991 404.236 c 1
 383.563 413.34 396.661 440.974 400.362 495.472 c 1
 371.909 470.742 332.475 457.007 289.834 457.007 c 0
 204.78 457.007 127.959 513.189 127.959 601.975 c 0
 127.959 691.254 205.407 753.647 296.92 753.647 c 0
 357.71 753.647 425.637 724.653 456.695 654.409 c 0
 470.581 623.422 476.901 584.714 476.901 528.834 c 0
 476.901 456.063 461.676 416.604 451.903 395.794 c 1
202.151 603.804 m 0
 202.151 542.396 248.229 512.282 296.132 512.282 c 0
 334.854 512.282 374.721 532.521 398.202 562.253 c 1
 399 569.732 399.56 575.354 399.56 581.252 c 0
 399.56 654.495 350.944 697.763 295.345 697.763 c 0
 246.22 697.763 202.151 664.283 202.151 603.804 c 0
EndSplineSet
EndChar

StartChar: arrowleft
Encoding: 8592 8592 570
Width: 600
Flags: W
LayerCount: 2
Fore
SplineSet
204 130 m 1
 30 347 l 1
 30 372 l 1
 206 573 l 1
 245 515 l 1
 128.181 392 l 1
 570 392 l 1
 570 315 l 1
 127.6 315 l 1
 245 180 l 1
 204 130 l 1
EndSplineSet
EndChar

StartChar: arrowright
Encoding: 8594 8594 571
Width: 600
Flags: W
LayerCount: 2
Fore
SplineSet
396 130 m 1
 355 180 l 1
 472.4 315 l 1
 30 315 l 1
 30 392 l 1
 471.819 392 l 1
 355 515 l 1
 394 573 l 1
 570 372 l 1
 570 347 l 1
 396 130 l 1
EndSplineSet
EndChar

StartChar: arrowboth
Encoding: 8596 8596 572
Width: 600
Flags: W
LayerCount: 2
Fore
SplineSet
396 130 m 1
 355 180 l 1
 472.4 315 l 1
 127.6 315 l 1
 245 180 l 1
 204 130 l 1
 30 347 l 1
 30 372 l 1
 206 573 l 1
 245 515 l 1
 128.181 392 l 1
 471.819 392 l 1
 355 515 l 1
 394 573 l 1
 570 372 l 1
 570 347 l 1
 396 130 l 1
EndSplineSet
EndChar

StartChar: arrowupdn
Encoding: 8597 8597 573
Width: 600
Flags: W
LayerCount: 2
Fore
SplineSet
521 235 m 1
 304 -39 l 1
 279 -39 l 1
 78 237 l 1
 136 276 l 1
 259 109.181 l 1
 259 594.4 l 1
 124 427 l 1
 74 468 l 1
 291 742 l 1
 316 742 l 1
 517 466 l 1
 459 427 l 1
 336 593.819 l 1
 336 108.6 l 1
 471 276 l 1
 521 235 l 1
EndSplineSet
EndChar

StartChar: partialdiff
Encoding: 8706 8706 574
Width: 600
Flags: W
LayerCount: 2
Fore
SplineSet
305.228 470.011 m 0
 226.957 470.011 144.996 405.543 144.996 269.224 c 0
 144.996 134.476 222.952 57.9971 306.097 57.9971 c 0
 371.358 57.9971 459.002 107.826 459.002 268.758 c 0
 459.002 429.627 365.393 470.011 305.228 470.011 c 0
171 760 m 1
 265 779 l 1
 443 678 543.317 511 543.317 293.321 c 0
 543.317 230.904 536.102 156.905 498.489 94.5254 c 0
 455.932 23.9473 383.677 -14.0059 306.684 -14.0059 c 0
 172.735 -14.0059 56.7783 98.7598 56.7783 258.02 c 0
 56.7783 417.046 169.434 541.31 298.018 541.31 c 0
 351.944 541.31 401.981 518.882 437 481 c 1
 387 610 289 706 171 760 c 1
EndSplineSet
EndChar

StartChar: radical
Encoding: 8730 8730 580
Width: 600
Flags: W
LayerCount: 2
Fore
SplineSet
282.404 115.374 m 1
 523 770 l 1
 592 735 l 1
 324 0 l 1
 240 0 l 1
 124.113 367.642 l 1
 30 191 l 1
 30 341.354 l 1
 95 460 l 1
 174 460 l 1
 282.404 115.374 l 1
EndSplineSet
EndChar

StartChar: infinity
Encoding: 8734 8734 581
Width: 600
Flags: W
LayerCount: 2
Fore
SplineSet
293.419 323.776 m 1
 270.708 283.209 223.257 246.299 180.664 246.299 c 0
 116.399 246.299 56.1738 328.607 56.1738 406.161 c 0
 56.1738 480.531 113.399 561 176.389 561 c 0
 236.389 561 283.15 521.819 306.581 479.933 c 1
 329.292 520.5 376.743 561 419.336 561 c 0
 483.601 561 543.826 478.691 543.826 401.138 c 0
 543.826 326.768 486.601 246.299 423.611 246.299 c 0
 363.611 246.299 316.85 281.89 293.419 323.776 c 1
414.347 311.404 m 0
 446.247 311.404 484.352 362.413 484.352 405.424 c 0
 484.352 447.424 447.352 496.747 417.552 496.747 c 0
 370.278 496.747 330.549 407.796 325.575 394.647 c 1
 344.62 356.402 374.347 311.404 414.347 311.404 c 0
185.653 495.895 m 0
 153.753 495.895 115.648 444.886 115.648 401.875 c 0
 115.648 359.875 152.648 310.552 182.448 310.552 c 0
 229.722 310.552 269.451 399.503 274.425 412.651 c 1
 255.38 450.896 225.653 495.895 185.653 495.895 c 0
EndSplineSet
EndChar

StartChar: orthogonal
Encoding: 8735 8735 582
Width: 600
Flags: W
LayerCount: 2
Fore
SplineSet
183 268 m 1
 488 268 l 1
 488 197 l 1
 112 197 l 1
 112 573 l 1
 183 573 l 1
 183 268 l 1
EndSplineSet
EndChar

StartChar: intersection
Encoding: 8745 8745 583
Width: 600
Flags: W
LayerCount: 2
Fore
SplineSet
68 100 m 1
 68 274.927 l 0
 68 327.734 69.5918 377.754 96.915 428.113 c 0
 137.982 503.802 219.09 541 302.539 541 c 0
 387.735 541 467.845 502.949 507.858 428.71 c 0
 534.591 379.112 536 329.967 536 278.927 c 0
 536 100 l 1
 456 100 l 1
 456 279.927 l 0
 456 315.785 455.299 350.771 438.664 386.349 c 0
 412.701 441.874 358.195 472.006 300.933 472.006 c 0
 244.586 472.006 190.217 442.583 163.533 387.378 c 0
 145.775 350.639 145 314.233 145 276.927 c 0
 145 100 l 1
 68 100 l 1
EndSplineSet
EndChar

StartChar: integral
Encoding: 8747 8747 584
Width: 600
Flags: W
LayerCount: 2
Fore
SplineSet
345 37 m 1
 345 -8.68457 347.773 -52.1055 325.164 -96.3809 c 0
 289.277 -166.657 235.239 -202.181 159.7 -202.181 c 0
 94.0166 -202.181 55.9033 -175.027 18.001 -128 c 1
 72.001 -56 l 1
 79.2041 -61.9473 77.3584 -69.4814 82.1104 -77.248 c 0
 86.3779 -84.2227 101.009 -130.016 165.017 -130.016 c 0
 209.792 -130.016 231.507 -106.298 251.46 -63.2402 c 0
 264.496 -35.1016 265 -7.27539 265 21 c 2
 265 550 l 2
 265 597 267 641 294 685 c 0
 331 745 381 777 455 777 c 0
 522 777 559 751 597 705 c 1
 559 628 l 1
 555 628 550 630 550 638 c 1
 549 643 550 646 546 651 c 0
 524 685 502 712 451 712 c 0
 407 712 386 692 364 653 c 0
 345.818 621.182 345 584.405 345 549.431 c 0
 345 545.934 345 539 345 539 c 1
 345 37 l 1
EndSplineSet
EndChar

StartChar: equivalence
Encoding: 8801 8801 587
Width: 600
Flags: W
LayerCount: 2
Fore
SplineSet
62 217 m 25
 538 217 l 25
 538 146 l 25
 62 146 l 25
 62 217 l 25
62 541 m 25
 538 541 l 25
 538 470 l 25
 62 470 l 25
 62 541 l 25
62 379 m 25
 538 379 l 25
 538 308 l 25
 62 308 l 25
 62 379 l 25
EndSplineSet
EndChar

StartChar: SF100000
Encoding: 9472 9472 590
Width: 600
Flags: W
LayerCount: 2
Fore
SplineSet
0 359.5 m 0
 600 359.5 l 0
 600 282.5 l 0
 0 282.5 l 0
 0 359.5 l 0
EndSplineSet
EndChar

StartChar: SF110000
Encoding: 9474 9474 591
Width: 600
Flags: W
LayerCount: 2
Fore
SplineSet
338.5 820 m 0
 338.5 -180 l 0
 261.5 -180 l 0
 261.5 820 l 0
 338.5 820 l 0
EndSplineSet
EndChar

StartChar: SF010000
Encoding: 9484 9484 592
Width: 600
Flags: W
LayerCount: 2
Fore
SplineSet
261.5 359.5 m 5
 600 359.5 l 5
 600 282.5 l 5
 338.5 282.5 l 5
 338.5 -180 l 1
 261.5 -180 l 1
 261.5 359.5 l 5
EndSplineSet
EndChar

StartChar: SF030000
Encoding: 9488 9488 593
Width: 600
Flags: W
LayerCount: 2
Fore
SplineSet
338.5 359.5 m 5
 338.5 -180 l 1
 261.5 -180 l 1
 261.5 282.5 l 5
 0 282.5 l 5
 0 359.5 l 5
 338.5 359.5 l 5
EndSplineSet
EndChar

StartChar: SF020000
Encoding: 9492 9492 594
Width: 600
Flags: W
LayerCount: 2
Fore
SplineSet
261.5 282.5 m 5
 261.5 820 l 1
 338.5 820 l 1
 338.5 359.5 l 5
 600 359.5 l 5
 600 282.5 l 5
 261.5 282.5 l 5
EndSplineSet
EndChar

StartChar: SF040000
Encoding: 9496 9496 595
Width: 600
Flags: W
LayerCount: 2
Fore
SplineSet
338.5 282.5 m 5
 0 282.5 l 5
 0 359.5 l 5
 261.5 359.5 l 5
 261.5 820 l 1
 338.5 820 l 1
 338.5 282.5 l 5
EndSplineSet
EndChar

StartChar: SF080000
Encoding: 9500 9500 596
Width: 600
Flags: W
LayerCount: 2
Fore
SplineSet
261.5 820 m 1
 338.5 820 l 1
 338.5 359.5 l 5
 600 359.5 l 5
 600 282.5 l 5
 338.5 282.5 l 5
 338.5 -180 l 1
 261.5 -180 l 1
 261.5 820 l 1
EndSplineSet
EndChar

StartChar: SF090000
Encoding: 9508 9508 597
Width: 600
Flags: W
LayerCount: 2
Fore
SplineSet
338.5 -180 m 1
 261.5 -180 l 1
 261.5 282.5 l 5
 0 282.5 l 5
 0 359.5 l 5
 261.5 359.5 l 5
 261.5 820 l 1
 338.5 820 l 1
 338.5 -180 l 1
EndSplineSet
EndChar

StartChar: SF060000
Encoding: 9516 9516 598
Width: 600
Flags: W
LayerCount: 2
Fore
SplineSet
600 359.5 m 5
 600 282.5 l 5
 338.5 282.5 l 5
 338.5 -180 l 1
 261.5 -180 l 1
 261.5 282.5 l 5
 0 282.5 l 5
 0 359.5 l 5
 600 359.5 l 5
EndSplineSet
EndChar

StartChar: SF070000
Encoding: 9524 9524 599
Width: 600
Flags: W
LayerCount: 2
Fore
SplineSet
0 282.5 m 5
 0 359.5 l 5
 261.5 359.5 l 5
 261.5 820 l 1
 338.5 820 l 1
 338.5 359.5 l 5
 600 359.5 l 5
 600 282.5 l 5
 0 282.5 l 5
EndSplineSet
EndChar

StartChar: SF050000
Encoding: 9532 9532 600
Width: 600
Flags: W
LayerCount: 2
Fore
SplineSet
338.5 282.5 m 5
 338.5 -180 l 1
 261.5 -180 l 1
 261.5 282.5 l 5
 0 282.5 l 5
 0 359.5 l 5
 261.5 359.5 l 5
 261.5 820 l 1
 338.5 820 l 1
 338.5 359.5 l 5
 600 359.5 l 5
 600 282.5 l 5
 338.5 282.5 l 5
EndSplineSet
EndChar

StartChar: SF510000
Encoding: 9554 9554 603
Width: 600
Flags: W
LayerCount: 2
Fore
SplineSet
261.5 460 m 5
 600 459.5 l 5
 600 382.5 l 5
 338.5 382.5 l 5
 338.5 259.5 l 5
 600 259.5 l 5
 600 182.5 l 5
 338.5 182.5 l 5
 338.5 -180 l 1
 261.5 -180 l 1
 261.5 460 l 5
 261.5 460 l 5
EndSplineSet
EndChar

StartChar: SF520000
Encoding: 9555 9555 604
Width: 600
Flags: W
LayerCount: 2
Fore
SplineSet
161.5 359.5 m 5
 600 359.5 l 5
 600 282.5 l 5
 438.5 282.5 l 5
 438.5 -180 l 1
 361.5 -180 l 1
 361.5 282.5 l 5
 238.5 282.5 l 5
 238.5 -180 l 1
 161.5 -180 l 1
 161.5 359.5 l 5
EndSplineSet
EndChar

StartChar: SF390000
Encoding: 9556 9556 605
Width: 600
Flags: W
LayerCount: 2
Fore
SplineSet
238.5 -180 m 1
 161.5 -180 l 1
 161.5 459.5 l 5
 600 459.5 l 5
 600 382.5 l 5
 238.5 382.5 l 5
 238.5 -180 l 1
361.5 259.5 m 5
 600 259.5 l 5
 600 182.5 l 5
 438.5 182.5 l 5
 438.5 -180 l 1
 361.5 -180 l 1
 361.5 259.5 l 5
EndSplineSet
EndChar

StartChar: SF220000
Encoding: 9557 9557 606
Width: 600
Flags: W
LayerCount: 2
Fore
SplineSet
338.5 460 m 5
 338.5 460 l 5
 338.5 -180 l 1
 261.5 -180 l 1
 261.5 182.5 l 5
 0 182.5 l 5
 0 259.5 l 5
 261.5 259.5 l 5
 261.5 382.5 l 5
 0 382.5 l 5
 0 459.5 l 5
 338.5 460 l 5
EndSplineSet
EndChar

StartChar: SF210000
Encoding: 9558 9558 607
Width: 600
Flags: W
LayerCount: 2
Fore
SplineSet
438.5 359.5 m 1
 438.5 -180 l 1
 361.5 -180 l 1
 361.5 282.5 l 1
 238.5 282.5 l 1
 238.5 -180 l 1
 161.5 -180 l 1
 161.5 282.5 l 1
 0 282.5 l 1
 0 359.5 l 1
 438.5 359.5 l 1
EndSplineSet
EndChar

StartChar: SF250000
Encoding: 9559 9559 608
Width: 600
Flags: W
LayerCount: 2
Fore
SplineSet
361.5 -180 m 1
 361.5 382.5 l 1
 0 382.5 l 1
 0 459.5 l 1
 438.5 459.5 l 1
 438.5 -180 l 1
 361.5 -180 l 1
238.5 259.5 m 1
 238.5 -180 l 1
 161.5 -180 l 1
 161.5 182.5 l 1
 0 182.5 l 1
 0 259.5 l 1
 238.5 259.5 l 1
EndSplineSet
EndChar

StartChar: SF500000
Encoding: 9560 9560 609
Width: 600
Flags: W
LayerCount: 2
Fore
SplineSet
261.5 180 m 5
 261.5 180 l 5
 261.5 820 l 1
 338.5 820 l 1
 338.5 457.5 l 5
 600 457.5 l 5
 600 380.5 l 5
 338.5 380.5 l 5
 338.5 257.5 l 5
 600 257.5 l 5
 600 180.5 l 5
 261.5 180 l 5
EndSplineSet
EndChar

StartChar: SF490000
Encoding: 9561 9561 610
Width: 600
Flags: W
LayerCount: 2
Fore
SplineSet
161.5 280.5 m 5
 161.5 820 l 1
 238.5 820 l 1
 238.5 357.5 l 5
 361.5 357.5 l 5
 361.5 820 l 1
 438.5 820 l 1
 438.5 357.5 l 5
 600 357.5 l 5
 600 280.5 l 5
 161.5 280.5 l 5
EndSplineSet
EndChar

StartChar: SF380000
Encoding: 9562 9562 611
Width: 600
Flags: W
LayerCount: 2
Fore
SplineSet
238.5 820 m 1
 238.5 257.5 l 5
 600 257.5 l 5
 600 180.5 l 5
 161.5 180.5 l 5
 161.5 820 l 1
 238.5 820 l 1
361.5 380.5 m 5
 361.5 820 l 1
 438.5 820 l 1
 438.5 457.5 l 5
 600 457.5 l 5
 600 380.5 l 5
 361.5 380.5 l 5
EndSplineSet
EndChar

StartChar: SF280000
Encoding: 9563 9563 612
Width: 600
Flags: W
LayerCount: 2
Fore
SplineSet
338.5 180 m 5
 0 180.5 l 5
 0 257.5 l 5
 261.5 257.5 l 5
 261.5 380.5 l 5
 0 380.5 l 5
 0 457.5 l 5
 261.5 457.5 l 5
 261.5 820 l 1
 338.5 820 l 1
 338.5 180 l 5
 338.5 180 l 5
EndSplineSet
EndChar

StartChar: SF270000
Encoding: 9564 9564 613
Width: 600
Flags: W
LayerCount: 2
Fore
SplineSet
438.5 280.5 m 1
 0 280.5 l 1
 0 357.5 l 1
 161.5 357.5 l 1
 161.5 820 l 1
 238.5 820 l 1
 238.5 357.5 l 1
 361.5 357.5 l 1
 361.5 820 l 1
 438.5 820 l 1
 438.5 280.5 l 1
EndSplineSet
EndChar

StartChar: SF260000
Encoding: 9565 9565 614
Width: 600
Flags: W
LayerCount: 2
Fore
SplineSet
361.5 820 m 1
 438.5 820 l 1
 438.5 180.5 l 1
 0 180.5 l 1
 0 257.5 l 1
 361.5 257.5 l 1
 361.5 820 l 1
238.5 380.5 m 1
 0 380.5 l 1
 0 457.5 l 1
 161.5 457.5 l 1
 161.5 820 l 1
 238.5 820 l 1
 238.5 380.5 l 1
EndSplineSet
EndChar

StartChar: SF360000
Encoding: 9566 9566 615
Width: 600
Flags: W
LayerCount: 2
Fore
SplineSet
261.5 820 m 1
 338.5 820 l 1
 338.5 459.5 l 1
 600 459.5 l 1
 600 382.5 l 1
 338.5 382.5 l 1
 338.5 259.5 l 1
 600 259.5 l 1
 600 182.5 l 1
 338.5 182.5 l 1
 338.5 -180 l 1
 261.5 -180 l 1
 261.5 820 l 1
EndSplineSet
EndChar

StartChar: SF370000
Encoding: 9567 9567 616
Width: 600
Flags: W
LayerCount: 2
Fore
SplineSet
238.5 -180 m 1
 161.5 -180 l 1
 161.5 820 l 1
 238.5 820 l 1
 238.5 -180 l 1
361.5 820 m 1
 438.5 820 l 1
 438.5 359.5 l 1
 600 359.5 l 1
 600 282.5 l 1
 438.5 282.5 l 1
 438.5 -180 l 1
 361.5 -180 l 1
 361.5 820 l 1
EndSplineSet
EndChar

StartChar: SF420000
Encoding: 9568 9568 617
Width: 600
Flags: W
LayerCount: 2
Fore
SplineSet
238.5 -180 m 1
 161.5 -180 l 1
 161.5 820 l 1
 238.5 820 l 1
 238.5 -180 l 1
361.5 820 m 1
 438.5 820 l 1
 438.5 459.5 l 1
 600 459.5 l 1
 600 382.5 l 1
 361.5 382.5 l 1
 361.5 820 l 1
361.5 259.5 m 1
 600 259.5 l 1
 600 182.5 l 1
 438.5 182.5 l 1
 438.5 -180 l 1
 361.5 -180 l 1
 361.5 259.5 l 1
EndSplineSet
EndChar

StartChar: SF190000
Encoding: 9569 9569 618
Width: 600
Flags: W
LayerCount: 2
Fore
SplineSet
338.5 820 m 1
 338.5 -180 l 1
 261.5 -180 l 1
 261.5 182.5 l 1
 0 182.5 l 1
 0 259.5 l 1
 261.5 259.5 l 1
 261.5 382.5 l 1
 0 382.5 l 1
 0 459.5 l 1
 261.5 459.5 l 1
 261.5 820 l 1
 338.5 820 l 1
EndSplineSet
EndChar

StartChar: SF200000
Encoding: 9570 9570 619
Width: 600
Flags: W
LayerCount: 2
Fore
SplineSet
361.5 -180 m 1
 361.5 820 l 1
 438.5 820 l 1
 438.5 -180 l 1
 361.5 -180 l 1
238.5 820 m 1
 238.5 -180 l 1
 161.5 -180 l 1
 161.5 282.5 l 1
 0 282.5 l 1
 0 359.5 l 1
 161.5 359.5 l 1
 161.5 820 l 1
 238.5 820 l 1
EndSplineSet
EndChar

StartChar: SF230000
Encoding: 9571 9571 620
Width: 600
Flags: W
LayerCount: 2
Fore
SplineSet
361.5 -180 m 1
 361.5 820 l 1
 438.5 820 l 1
 438.5 -180 l 1
 361.5 -180 l 1
238.5 820 m 1
 238.5 382.5 l 1
 0 382.5 l 1
 0 459.5 l 1
 161.5 459.5 l 1
 161.5 820 l 1
 238.5 820 l 1
238.5 259.5 m 1
 238.5 -180 l 1
 161.5 -180 l 1
 161.5 182.5 l 1
 0 182.5 l 1
 0 259.5 l 1
 238.5 259.5 l 1
EndSplineSet
EndChar

StartChar: SF470000
Encoding: 9572 9572 621
Width: 600
Flags: W
LayerCount: 2
Fore
SplineSet
0 459.5 m 1
 600 459.5 l 1
 600 382.5 l 1
 0 382.5 l 1
 0 459.5 l 1
0 259.5 m 1
 600 259.5 l 1
 600 182.5 l 1
 338.5 182.5 l 1
 338.5 -180 l 1
 261.5 -180 l 1
 261.5 182.5 l 1
 0 182.5 l 1
 0 259.5 l 1
EndSplineSet
EndChar

StartChar: SF480000
Encoding: 9573 9573 622
Width: 600
Flags: W
LayerCount: 2
Fore
SplineSet
0 359.5 m 1
 600 359.5 l 1
 600 282.5 l 1
 438.5 282.5 l 1
 438.5 -180 l 1
 361.5 -180 l 1
 361.5 282.5 l 1
 238.5 282.5 l 1
 238.5 -180 l 1
 161.5 -180 l 1
 161.5 282.5 l 1
 0 282.5 l 1
 0 359.5 l 1
EndSplineSet
EndChar

StartChar: SF410000
Encoding: 9574 9574 623
Width: 600
Flags: W
LayerCount: 2
Fore
SplineSet
0 459.5 m 1
 600 459.5 l 1
 600 382.5 l 1
 0 382.5 l 1
 0 459.5 l 1
161.5 182.5 m 1
 0 182.5 l 1
 0 259.5 l 1
 238.5 259.5 l 1
 238.5 -180 l 1
 161.5 -180 l 1
 161.5 182.5 l 1
438.5 182.5 m 1
 438.5 -180 l 1
 361.5 -180 l 1
 361.5 259.5 l 1
 600 259.5 l 1
 600 182.5 l 1
 438.5 182.5 l 1
EndSplineSet
EndChar

StartChar: SF450000
Encoding: 9575 9575 624
Width: 600
Flags: W
LayerCount: 2
Fore
SplineSet
0 180.5 m 1
 0 257.5 l 1
 600 257.5 l 1
 600 180.5 l 1
 0 180.5 l 1
0 380.5 m 1
 0 457.5 l 1
 261.5 457.5 l 1
 261.5 820 l 1
 338.5 820 l 1
 338.5 457.5 l 1
 600 457.5 l 1
 600 380.5 l 1
 0 380.5 l 1
EndSplineSet
EndChar

StartChar: SF460000
Encoding: 9576 9576 625
Width: 600
Flags: W
LayerCount: 2
Fore
SplineSet
0 280.5 m 1
 0 357.5 l 1
 161.5 357.5 l 1
 161.5 820 l 1
 238.5 820 l 1
 238.5 357.5 l 1
 361.5 357.5 l 1
 361.5 820 l 1
 438.5 820 l 1
 438.5 357.5 l 1
 600 357.5 l 1
 600 280.5 l 1
 0 280.5 l 1
EndSplineSet
EndChar

StartChar: SF400000
Encoding: 9577 9577 626
Width: 600
Flags: W
LayerCount: 2
Fore
SplineSet
0 180.5 m 1
 0 257.5 l 1
 600 257.5 l 1
 600 180.5 l 1
 0 180.5 l 1
161.5 457.5 m 1
 161.5 820 l 1
 238.5 820 l 1
 238.5 380.5 l 1
 0 380.5 l 1
 0 457.5 l 1
 161.5 457.5 l 1
438.5 457.5 m 1
 600 457.5 l 1
 600 380.5 l 1
 361.5 380.5 l 1
 361.5 820 l 1
 438.5 820 l 1
 438.5 457.5 l 1
EndSplineSet
EndChar

StartChar: SF540000
Encoding: 9578 9578 627
Width: 600
Flags: W
LayerCount: 2
Fore
SplineSet
261.5 259.5 m 1
 261.5 382.5 l 1
 0 382.5 l 1
 0 459.5 l 1
 261.5 459.5 l 1
 261.5 820 l 1
 338.5 820 l 1
 338.5 459.5 l 1
 600 459.5 l 1
 600 382.5 l 1
 338.5 382.5 l 1
 338.5 259.5 l 1
 600 259.5 l 1
 600 182.5 l 1
 338.5 182.5 l 1
 338.5 -180 l 1
 261.5 -180 l 1
 261.5 182.5 l 1
 0 182.5 l 1
 0 259.5 l 1
 261.5 259.5 l 1
EndSplineSet
EndChar

StartChar: SF530000
Encoding: 9579 9579 628
Width: 600
Flags: W
LayerCount: 2
Fore
SplineSet
161.5 359.5 m 1
 161.5 820 l 1
 238.5 820 l 1
 238.5 359.5 l 1
 361.5 359.5 l 1
 361.5 820 l 1
 438.5 820 l 1
 438.5 359.5 l 1
 600 359.5 l 1
 600 282.5 l 1
 438.5 282.5 l 1
 438.5 -180 l 1
 361.5 -180 l 1
 361.5 282.5 l 1
 238.5 282.5 l 1
 238.5 -180 l 1
 161.5 -180 l 1
 161.5 282.5 l 1
 0 282.5 l 1
 0 359.5 l 1
 161.5 359.5 l 1
EndSplineSet
EndChar

StartChar: SF440000
Encoding: 9580 9580 629
Width: 600
Flags: W
LayerCount: 2
Fore
SplineSet
361.5 382.5 m 1
 361.5 820 l 1
 438.5 820 l 1
 438.5 459.5 l 1
 600 459.5 l 1
 600 382.5 l 1
 361.5 382.5 l 1
361.5 259.5 m 1
 600 259.5 l 1
 600 182.5 l 1
 438.5 182.5 l 1
 438.5 -180 l 1
 361.5 -180 l 1
 361.5 259.5 l 1
238.5 259.5 m 1
 238.5 -180 l 1
 161.5 -180 l 1
 161.5 182.5 l 1
 0 182.5 l 1
 0 259.5 l 1
 238.5 259.5 l 1
238.5 382.5 m 1
 0 382.5 l 1
 0 459.5 l 1
 161.5 459.5 l 1
 161.5 820 l 1
 238.5 820 l 1
 238.5 382.5 l 1
EndSplineSet
EndChar

StartChar: dnblock
Encoding: 9604 9604 630
Width: 600
Flags: W
LayerCount: 2
Fore
SplineSet
0 320 m 29
 600 320 l 29
 600 -180 l 29
 0 -180 l 29
 0 320 l 29
EndSplineSet
EndChar

StartChar: block
Encoding: 9608 9608 631
Width: 600
Flags: W
LayerCount: 2
Fore
SplineSet
0 820 m 25
 600 820 l 25
 600 -180 l 25
 0 -180 l 25
 0 820 l 25
EndSplineSet
EndChar

StartChar: lfblock
Encoding: 9612 9612 632
Width: 600
Flags: W
LayerCount: 2
Fore
SplineSet
0 820 m 25
 300 820 l 25
 300 -180 l 29
 0 -180 l 25
 0 820 l 25
EndSplineSet
EndChar

StartChar: shade
Encoding: 9618 9618 633
Width: 600
Flags: W
LayerCount: 2
Fore
SplineSet
0 820 m 1
 60 820 l 1
 60 770 l 1
 0 770 l 1
 0 820 l 1
120 820 m 1
 180 820 l 1
 180 770 l 1
 120 770 l 1
 120 720 l 1
 60 720 l 1
 60 770 l 1
 120 770 l 1
 120 820 l 1
240 820 m 1
 300 820 l 1
 300 770 l 1
 240 770 l 1
 240 720 l 1
 180 720 l 1
 180 770 l 1
 240 770 l 1
 240 820 l 1
360 820 m 1
 420 820 l 1
 420 770 l 1
 360 770 l 1
 360 720 l 1
 300 720 l 1
 300 770 l 1
 360 770 l 1
 360 820 l 1
480 820 m 1
 540 820 l 1
 540 770 l 1
 480 770 l 1
 480 720 l 1
 420 720 l 1
 420 770 l 1
 480 770 l 1
 480 820 l 1
540 770 m 1
 600 770 l 1
 600 720 l 1
 540 720 l 1
 540 770 l 1
60 720 m 1
 60 670 l 1
 0 670 l 1
 0 720 l 1
 60 720 l 1
60 670 m 1
 120 670 l 1
 120 620 l 1
 60 620 l 1
 60 670 l 1
120 670 m 1
 120 720 l 1
 180 720 l 1
 180 670 l 1
 120 670 l 1
180 670 m 1
 240 670 l 1
 240 620 l 1
 180 620 l 1
 180 670 l 1
240 670 m 1
 240 720 l 1
 300 720 l 1
 300 670 l 1
 240 670 l 1
300 670 m 1
 360 670 l 1
 360 620 l 1
 300 620 l 1
 300 670 l 1
360 670 m 1
 360 720 l 1
 420 720 l 1
 420 670 l 1
 360 670 l 1
420 670 m 1
 480 670 l 1
 480 620 l 1
 420 620 l 1
 420 670 l 1
480 670 m 1
 480 720 l 1
 540 720 l 1
 540 670 l 1
 480 670 l 1
540 670 m 1
 600 670 l 1
 600 620 l 1
 540 620 l 1
 540 670 l 1
60 620 m 1
 60 570 l 1
 0 570 l 1
 0 620 l 1
 60 620 l 1
60 570 m 1
 120 570 l 1
 120 520 l 1
 60 520 l 1
 60 570 l 1
120 570 m 1
 120 620 l 1
 180 620 l 1
 180 570 l 1
 120 570 l 1
180 570 m 1
 240 570 l 1
 240 520 l 1
 180 520 l 1
 180 570 l 1
240 570 m 1
 240 620 l 1
 300 620 l 1
 300 570 l 1
 240 570 l 1
300 570 m 1
 360 570 l 1
 360 520 l 1
 300 520 l 1
 300 570 l 1
360 570 m 1
 360 620 l 1
 420 620 l 1
 420 570 l 1
 360 570 l 1
420 570 m 1
 480 570 l 1
 480 520 l 1
 420 520 l 1
 420 570 l 1
480 570 m 1
 480 620 l 1
 540 620 l 1
 540 570 l 1
 480 570 l 1
540 570 m 1
 600 570 l 1
 600 520 l 1
 540 520 l 1
 540 570 l 1
60 520 m 1
 60 470 l 1
 0 470 l 1
 0 520 l 1
 60 520 l 1
60 470 m 1
 120 470 l 1
 120 420 l 1
 60 420 l 1
 60 470 l 1
120 470 m 1
 120 520 l 1
 180 520 l 1
 180 470 l 1
 120 470 l 1
180 470 m 1
 240 470 l 1
 240 420 l 1
 180 420 l 1
 180 470 l 1
240 470 m 1
 240 520 l 1
 300 520 l 1
 300 470 l 1
 240 470 l 1
300 470 m 1
 360 470 l 1
 360 420 l 1
 300 420 l 1
 300 470 l 1
360 470 m 1
 360 520 l 1
 420 520 l 1
 420 470 l 1
 360 470 l 1
420 470 m 1
 480 470 l 1
 480 420 l 1
 420 420 l 1
 420 470 l 1
480 470 m 1
 480 520 l 1
 540 520 l 1
 540 470 l 1
 480 470 l 1
540 470 m 1
 600 470 l 1
 600 420 l 1
 540 420 l 1
 540 470 l 1
60 420 m 1
 60 370 l 1
 0 370 l 1
 0 420 l 1
 60 420 l 1
60 370 m 1
 120 370 l 1
 120 320 l 1
 60 320 l 1
 60 370 l 1
120 370 m 1
 120 420 l 1
 180 420 l 1
 180 370 l 1
 120 370 l 1
180 370 m 1
 240 370 l 1
 240 320 l 1
 180 320 l 1
 180 370 l 1
240 370 m 1
 240 420 l 1
 300 420 l 1
 300 370 l 1
 240 370 l 1
300 370 m 1
 360 370 l 1
 360 320 l 1
 300 320 l 1
 300 370 l 1
360 370 m 1
 360 420 l 1
 420 420 l 1
 420 370 l 1
 360 370 l 1
420 370 m 1
 480 370 l 1
 480 320 l 1
 420 320 l 1
 420 370 l 1
480 370 m 1
 480 420 l 1
 540 420 l 1
 540 370 l 1
 480 370 l 1
540 370 m 1
 600 370 l 1
 600 320 l 1
 540 320 l 1
 540 370 l 1
60 320 m 1
 60 270 l 1
 0 270 l 1
 0 320 l 1
 60 320 l 1
60 270 m 1
 120 270 l 1
 120 220 l 1
 60 220 l 1
 60 270 l 1
120 270 m 1
 120 320 l 1
 180 320 l 1
 180 270 l 1
 120 270 l 1
180 270 m 1
 240 270 l 1
 240 220 l 1
 180 220 l 1
 180 270 l 1
240 270 m 1
 240 320 l 1
 300 320 l 1
 300 270 l 1
 240 270 l 1
300 270 m 1
 360 270 l 1
 360 220 l 1
 300 220 l 1
 300 270 l 1
360 270 m 1
 360 320 l 1
 420 320 l 1
 420 270 l 1
 360 270 l 1
420 270 m 1
 480 270 l 1
 480 220 l 1
 420 220 l 1
 420 270 l 1
480 270 m 1
 480 320 l 1
 540 320 l 1
 540 270 l 1
 480 270 l 1
540 270 m 1
 600 270 l 1
 600 220 l 1
 540 220 l 1
 540 270 l 1
60 220 m 1
 60 170 l 1
 0 170 l 1
 0 220 l 1
 60 220 l 1
60 170 m 1
 120 170 l 1
 120 120 l 1
 60 120 l 1
 60 170 l 1
120 170 m 1
 120 220 l 1
 180 220 l 1
 180 170 l 1
 120 170 l 1
180 170 m 1
 240 170 l 1
 240 120 l 1
 180 120 l 1
 180 170 l 1
240 170 m 1
 240 220 l 1
 300 220 l 1
 300 170 l 1
 240 170 l 1
300 170 m 1
 360 170 l 1
 360 120 l 1
 300 120 l 1
 300 170 l 1
360 170 m 1
 360 220 l 1
 420 220 l 1
 420 170 l 1
 360 170 l 1
420 170 m 1
 480 170 l 1
 480 120 l 1
 420 120 l 1
 420 170 l 1
480 170 m 1
 480 220 l 1
 540 220 l 1
 540 170 l 1
 480 170 l 1
540 170 m 1
 600 170 l 1
 600 120 l 1
 540 120 l 1
 540 170 l 1
60 120 m 1
 60 70 l 1
 0 70 l 1
 0 120 l 1
 60 120 l 1
60 70 m 1
 120 70 l 1
 120 20 l 1
 60 20 l 1
 60 70 l 1
120 70 m 1
 120 120 l 1
 180 120 l 1
 180 70 l 1
 120 70 l 1
180 70 m 1
 240 70 l 1
 240 20 l 1
 180 20 l 1
 180 70 l 1
240 70 m 1
 240 120 l 1
 300 120 l 1
 300 70 l 1
 240 70 l 1
300 70 m 1
 360 70 l 1
 360 20 l 1
 300 20 l 1
 300 70 l 1
360 70 m 1
 360 120 l 1
 420 120 l 1
 420 70 l 1
 360 70 l 1
420 70 m 1
 480 70 l 1
 480 20 l 1
 420 20 l 1
 420 70 l 1
480 70 m 1
 480 120 l 1
 540 120 l 1
 540 70 l 1
 480 70 l 1
540 70 m 1
 600 70 l 1
 600 20 l 1
 540 20 l 1
 540 70 l 1
60 20 m 1
 60 -30 l 1
 0 -30 l 1
 0 20 l 1
 60 20 l 1
60 -30 m 1
 120 -30 l 1
 120 -80 l 1
 60 -80 l 1
 60 -30 l 1
120 -30 m 1
 120 20 l 1
 180 20 l 1
 180 -30 l 1
 120 -30 l 1
180 -30 m 1
 240 -30 l 1
 240 -80 l 1
 180 -80 l 1
 180 -30 l 1
240 -30 m 1
 240 20 l 1
 300 20 l 1
 300 -30 l 1
 240 -30 l 1
300 -30 m 1
 360 -30 l 1
 360 -80 l 1
 300 -80 l 1
 300 -30 l 1
360 -30 m 1
 360 20 l 1
 420 20 l 1
 420 -30 l 1
 360 -30 l 1
420 -30 m 1
 480 -30 l 1
 480 -80 l 1
 420 -80 l 1
 420 -30 l 1
480 -30 m 1
 480 20 l 1
 540 20 l 1
 540 -30 l 1
 480 -30 l 1
540 -30 m 1
 600 -30 l 1
 600 -80 l 1
 540 -80 l 1
 540 -30 l 1
60 -80 m 1
 60 -130 l 1
 0 -130 l 1
 0 -80 l 1
 60 -80 l 1
60 -130 m 1
 120 -130 l 1
 120 -180 l 1
 60 -180 l 1
 60 -130 l 1
120 -130 m 1
 120 -80 l 1
 180 -80 l 1
 180 -130 l 1
 120 -130 l 1
180 -130 m 1
 240 -130 l 1
 240 -180 l 1
 180 -180 l 1
 180 -130 l 1
240 -130 m 1
 240 -80 l 1
 300 -80 l 1
 300 -130 l 1
 240 -130 l 1
300 -130 m 1
 360 -130 l 1
 360 -180 l 1
 300 -180 l 1
 300 -130 l 1
360 -130 m 1
 360 -80 l 1
 420 -80 l 1
 420 -130 l 1
 360 -130 l 1
420 -130 m 1
 480 -130 l 1
 480 -180 l 1
 420 -180 l 1
 420 -130 l 1
480 -130 m 1
 480 -80 l 1
 540 -80 l 1
 540 -130 l 1
 480 -130 l 1
540 -130 m 1
 600 -130 l 1
 600 -180 l 1
 540 -180 l 1
 540 -130 l 1
EndSplineSet
EndChar

StartChar: dkshade
Encoding: 9619 9619 634
Width: 600
Flags: W
LayerCount: 2
Fore
SplineSet
0 820 m 1
 60 820 l 1
 60 770 l 1
 120 770 l 1
 120 820 l 1
 180 820 l 1
 180 770 l 1
 240 770 l 1
 240 820 l 1
 300 820 l 1
 300 770 l 1
 360 770 l 1
 360 820 l 1
 420 820 l 1
 420 770 l 1
 480 770 l 1
 480 820 l 1
 540 820 l 1
 540 770 l 1
 600 770 l 1
 600 620 l 1
 540 620 l 1
 540 570 l 1
 600 570 l 1
 600 420 l 1
 540 420 l 1
 540 370 l 1
 600 370 l 1
 600 220 l 1
 540 220 l 1
 540 170 l 1
 600 170 l 1
 600 20 l 1
 540 20 l 1
 540 -30 l 1
 600 -30 l 1
 600 -180 l 1
 400 -180 200 -180 0 -180 c 1
 0 -130 l 1
 60 -130 l 1
 60 -80 l 1
 0 -80 l 1
 0 70 l 1
 60 70 l 1
 60 120 l 1
 0 120 l 1
 0 270 l 1
 60 270 l 1
 60 320 l 1
 0 320 l 1
 0 470 l 1
 60 470 l 1
 60 520 l 1
 0 520 l 1
 0 670 l 1
 60 670 l 1
 60 720 l 1
 0 720 l 1
 -0 753.333 0 786.667 0 820 c 1
120 720 m 1
 120 670 l 1
 180 670 l 1
 180 720 l 1
 120 720 l 1
240 720 m 1
 240 670 l 1
 300 670 l 1
 300 720 l 1
 240 720 l 1
360 720 m 1
 360 670 l 1
 420 670 l 1
 420 720 l 1
 360 720 l 1
480 720 m 1
 480 670 l 1
 540 670 l 1
 540 720 l 1
 480 720 l 1
60 620 m 1
 60 570 l 1
 120 570 l 1
 120 620 l 1
 60 620 l 1
180 620 m 1
 180 570 l 1
 240 570 l 1
 240 620 l 1
 180 620 l 1
300 620 m 1
 300 570 l 1
 360 570 l 1
 360 620 l 1
 300 620 l 1
420 620 m 1
 420 570 l 1
 480 570 l 1
 480 620 l 1
 420 620 l 1
120 520 m 1
 120 470 l 1
 180 470 l 1
 180 520 l 1
 120 520 l 1
240 520 m 1
 240 470 l 1
 300 470 l 1
 300 520 l 1
 240 520 l 1
360 520 m 1
 360 470 l 1
 420 470 l 1
 420 520 l 1
 360 520 l 1
480 520 m 1
 480 470 l 1
 540 470 l 1
 540 520 l 1
 480 520 l 1
60 420 m 1
 60 370 l 1
 120 370 l 1
 120 420 l 1
 60 420 l 1
180 420 m 1
 180 370 l 1
 240 370 l 1
 240 420 l 1
 180 420 l 1
300 420 m 1
 300 370 l 1
 360 370 l 1
 360 420 l 1
 300 420 l 1
420 420 m 1
 420 370 l 1
 480 370 l 1
 480 420 l 1
 420 420 l 1
120 320 m 1
 120 270 l 1
 180 270 l 1
 180 320 l 1
 120 320 l 1
240 320 m 1
 240 270 l 1
 300 270 l 1
 300 320 l 1
 240 320 l 1
360 320 m 1
 360 270 l 1
 420 270 l 1
 420 320 l 1
 360 320 l 1
480 320 m 1
 480 270 l 1
 540 270 l 1
 540 320 l 1
 480 320 l 1
60 220 m 1
 60 170 l 1
 120 170 l 1
 120 220 l 1
 60 220 l 1
180 220 m 1
 180 170 l 1
 240 170 l 1
 240 220 l 1
 180 220 l 1
300 220 m 1
 300 170 l 1
 360 170 l 1
 360 220 l 1
 300 220 l 1
420 220 m 1
 420 170 l 1
 480 170 l 1
 480 220 l 1
 420 220 l 1
120 120 m 1
 120 70 l 1
 180 70 l 1
 180 120 l 1
 120 120 l 1
240 120 m 1
 240 70 l 1
 300 70 l 1
 300 120 l 1
 240 120 l 1
360 120 m 1
 360 70 l 1
 420 70 l 1
 420 120 l 1
 360 120 l 1
480 120 m 1
 480 70 l 1
 540 70 l 1
 540 120 l 1
 480 120 l 1
60 20 m 1
 60 -30 l 1
 120 -30 l 1
 120 20 l 1
 60 20 l 1
180 20 m 1
 180 -30 l 1
 240 -30 l 1
 240 20 l 1
 180 20 l 1
300 20 m 1
 300 -30 l 1
 360 -30 l 1
 360 20 l 1
 300 20 l 1
420 20 m 1
 420 -30 l 1
 480 -30 l 1
 480 20 l 1
 420 20 l 1
120 -80 m 1
 120 -130 l 1
 180 -130 l 1
 180 -80 l 1
 120 -80 l 1
240 -80 m 1
 240 -130 l 1
 300 -130 l 1
 300 -80 l 1
 240 -80 l 1
360 -80 m 1
 360 -130 l 1
 420 -130 l 1
 420 -80 l 1
 360 -80 l 1
480 -80 m 1
 480 -130 l 1
 540 -130 l 1
 540 -80 l 1
 480 -80 l 1
EndSplineSet
EndChar

StartChar: filledbox
Encoding: 9632 9632 635
Width: 600
Flags: W
LayerCount: 2
Fore
SplineSet
80 540 m 25
 520 540 l 29
 520 100 l 29
 80 100 l 25
 80 540 l 25
EndSplineSet
EndChar

StartChar: H22073
Encoding: 9633 9633 636
Width: 600
Flags: W
LayerCount: 2
Fore
SplineSet
80 540 m 25
 520 540 l 25
 520 100 l 25
 80 100 l 25
 80 540 l 25
150 470 m 25
 150 170 l 25
 450 170 l 25
 450 470 l 25
 150 470 l 25
EndSplineSet
EndChar

StartChar: H18543
Encoding: 9642 9642 637
Width: 600
Flags: W
LayerCount: 2
Fore
SplineSet
140 480 m 25
 460 480 l 25
 460 160 l 25
 140 160 l 25
 140 480 l 25
EndSplineSet
EndChar

StartChar: H18551
Encoding: 9643 9643 638
Width: 600
Flags: W
LayerCount: 2
Fore
SplineSet
140 480 m 25
 460 480 l 25
 460 160 l 25
 140 160 l 25
 140 480 l 25
210 410 m 25
 210 230 l 29
 390 230 l 29
 390 410 l 25
 210 410 l 25
EndSplineSet
EndChar

StartChar: triagup
Encoding: 9650 9650 639
Width: 600
Flags: W
LayerCount: 2
Fore
SplineSet
300 540 m 1
 520 100 l 1
 80 100 l 1
 300 540 l 1
EndSplineSet
EndChar

StartChar: triagdn
Encoding: 9660 9660 640
Width: 600
Flags: W
LayerCount: 2
Fore
SplineSet
80 540 m 1
 520 540 l 1
 300 100 l 1
 80 540 l 1
EndSplineSet
EndChar

StartChar: lozenge
Encoding: 9674 9674 641
Width: 600
Flags: W
LayerCount: 2
Fore
SplineSet
300 640 m 25
 520 320 l 25
 300 0 l 25
 80 320 l 25
 300 640 l 25
300 550 m 25
 150 320 l 25
 300 90 l 25
 450 320 l 25
 300 550 l 25
EndSplineSet
EndChar

StartChar: circle
Encoding: 9675 9675 642
Width: 600
Flags: W
LayerCount: 2
Fore
SplineSet
120 320 m 0
 120 220.64 200.64 140 300 140 c 0
 399.36 140 480 220.64 480 320 c 0
 480 419.36 399.36 500 300 500 c 0
 200.64 500 120 419.36 120 320 c 0
40 320 m 0
 40 463.52 156.48 580 300 580 c 0
 443.52 580 560 463.52 560 320 c 0
 560 176.48 443.52 60 300 60 c 0
 156.48 60 40 176.48 40 320 c 0
EndSplineSet
EndChar

StartChar: H18533
Encoding: 9679 9679 643
Width: 600
Flags: W
LayerCount: 2
Fore
SplineSet
40 320 m 0
 40 463.52 156.48 580 300 580 c 0
 443.52 580 560 463.52 560 320 c 0
 560 176.48 443.52 60 300 60 c 0
 156.48 60 40 176.48 40 320 c 0
EndSplineSet
EndChar

StartChar: openbullet
Encoding: 9702 9702 644
Width: 600
Flags: W
LayerCount: 2
Fore
SplineSet
306.474 420.001 m 0
 262.597 420.001 227.967 385.165 227.967 343.507 c 0
 227.967 301.783 262.632 266.968 306.461 266.968 c 0
 350.36 266.968 385.001 301.817 385.001 343.496 c 0
 385.001 385.174 350.348 420.001 306.474 420.001 c 0
306.474 490.001 m 0
 387.938 490.001 455.001 424.91 455.001 343.496 c 0
 455.001 262.105 387.972 196.968 306.461 196.968 c 0
 225.014 196.968 157.967 262.075 157.967 343.507 c 0
 157.967 424.879 224.985 490.001 306.474 490.001 c 0
EndSplineSet
EndChar

StartChar: female
Encoding: 9792 9792 645
Width: 600
Flags: W
LayerCount: 2
Fore
SplineSet
92 522 m 0
 92 636.816 185.184 730 300 730 c 0
 414.816 730 508 636.816 508 522 c 0
 508 420.864 435.7 336.513 340 317.848 c 1
 340 220 l 1
 538 220 l 1
 538 149 l 1
 340 149 l 1
 340 0 l 1
 267 0 l 1
 267 149 l 1
 62 149 l 1
 62 220 l 1
 267 220 l 1
 267 316.607 l 1
 167.848 332.434 92 418.413 92 522 c 0
156 522 m 0
 156 442.512 220.512 378 300 378 c 0
 379.488 378 444 442.512 444 522 c 0
 444 601.488 379.488 666 300 666 c 0
 220.512 666 156 601.488 156 522 c 0
EndSplineSet
EndChar

